<svg xmlns="http://www.w3.org/2000/svg" xmlns:xlink="http://www.w3.org/1999/xlink" xmlns:lucid="lucid" width="1083.51" height="957.46"><g transform="translate(-259.99272777667744 203.49999999999994)" lucid:page-tab-id="0_0"><path d="M543.88-115.24H1320v420.92H543.88z" fill-opacity="0"/><path d="M563.78-115.24h19.9m9.95 0h19.9m9.95 0h19.9m9.95 0h19.9m9.95 0h19.9m9.95 0h19.9m9.96 0h19.9m9.94 0h19.9m9.95 0h19.9m9.94 0h19.9m9.95 0h19.9m9.94 0h19.9m9.95 0h19.9m9.94 0h19.9m9.95 0h19.9m9.94 0h19.9m9.95 0h19.9m9.94 0h19.9m9.95 0h19.9m9.94 0h19.9m9.96 0h19.9m9.95 0h19.9m9.95 0h19.9m9.95 0h19.9m9.95 0h19.9m9.95 0h9.95v10.02m0 10.02v20.04m0 10.03v20.04m0 10.03v20.05M1320-5v20.04m0 10.02V45.1m0 10.03v20.04m0 10.02v20.04m0 10.02v20.04m0 10.03v20.04m0 10.02v20.04m0 10.02v20.04m0 10.02v20.05m0 10.02v20.03m0 10.02v10.03h-9.95m-9.95 0h-19.9m-9.95 0h-19.9m-9.95 0h-19.9m-9.95 0h-19.9m-9.95 0h-19.9m-9.95 0h-19.9m-9.96 0h-19.9m-9.96 0h-19.9m-9.95 0h-19.9m-9.96 0h-19.9m-9.95 0h-19.9m-9.96 0h-19.9m-9.95 0H922m-9.96 0h-19.9m-9.95 0h-19.9m-9.96 0h-19.9m-9.95 0h-19.9m-9.96 0h-19.9m-9.95 0h-19.9m-9.97 0h-19.9m-9.94 0h-19.92m-9.95 0h-19.9m-9.95 0h-19.9m-9.95 0h-19.9m-9.95 0h-19.9m-9.95 0h-9.95v-10.03m0-10.02V265.6m0-10.03v-20.05m0-10.02v-20.04m0-10.02V175.4m0-10.03v-20.04m0-10.03v-20.04m0-10.02V85.2m0-10.03V55.13m0-10.02V25.07m0-10.02V-5m0-10.02v-20.05m0-10.02v-20.03m0-10.03V-95.2m0-10.02v-10.02h9.95" stroke="#d86613" stroke-width="2" fill="none"/><path d="M668.06-44.5a6 6 0 0 1 6-6h624.42a6 6 0 0 1 6 6v311.8a6 6 0 0 1-6 6H674.06a6 6 0 0 1-6-6z" stroke="#d86613" stroke-width="5" fill-opacity="0"/><path d="M543.88-174a6 6 0 0 1 6-6H1314a6 6 0 0 1 6 6v52.76a6 6 0 0 1-6 6H549.88a6 6 0 0 1-6-6z" fill="#fff" fill-opacity="0"/><use xlink:href="#a" transform="matrix(1,0,0,1,548.8805970149253,-175) translate(325.36111111111114 40.770833333333314)"/><path d="M543.88-166a14 14 0 0 1 14-14H1306a14 14 0 0 1 14 14v684.33a14 14 0 0 1-14 14H557.88a14 14 0 0 1-14-14z" stroke="#d86613" stroke-width="7" fill-opacity="0"/><path d="M543.88-109.24a6 6 0 0 1 6-6H1314a6 6 0 0 1 6 6v52.75a6 6 0 0 1-6 6H549.88a6 6 0 0 1-6-6z" fill="#fff" fill-opacity="0"/><use xlink:href="#b" transform="matrix(1,0,0,1,548.8805970149253,-110.24313782848226) translate(0 35.319444444444436)"/><use xlink:href="#c" transform="matrix(1,0,0,1,548.8805970149253,-110.24313782848226) translate(191.50617283950606 35.319444444444436)"/><path d="M543.88 311.68a6 6 0 0 1 6-6H1314a6 6 0 0 1 6 6v52.75a6 6 0 0 1-6 6H549.88a6 6 0 0 1-6-6z" fill="#fff" fill-opacity="0"/><use xlink:href="#d" transform="matrix(1,0,0,1,548.8805970149253,310.67646628638295) translate(0 35.319444444444436)"/><path d="M976.55 455.35h-89.22c-1.03 0-1.96-.87-1.96-2V408.8c0-1.12.93-2 1.96-2h89.22c1.03 0 1.96.88 1.96 2v44.56c0 1.12-.92 2-1.95 2zm-87.17-3.98h85.12V410.8h-85.12zM940.24 402.4c-.83-3.03-3-5.23-6.07-6.05-4.58-1.23-9.3 1.48-10.52 6.06l-3.84-1.04c1.78-6.7 8.65-10.7 15.34-8.93 4.5 1.2 7.74 4.43 8.93 8.93z" stroke="#fff" stroke-opacity="0" fill="#3f8624"/><path d="M946.86 398.35c-1.7-3.95-4.53-6.74-8.46-8.44-8.2-3.54-17.73.24-21.3 8.45l-3.63-1.56c4.34-10.26 16.17-15.03 26.4-10.7 5.02 2.15 8.58 5.67 10.7 10.7zM931.94 470.07c-5.77.03-10.65-3.7-12.13-9.27l3.85-1c.82 3.03 3 5.22 6.06 6.05 4.6 1.24 9.3-1.47 10.53-6.06l3.84 1c-1.48 5.58-6.36 9.3-12.13 9.27z" stroke="#fff" stroke-opacity="0" fill="#3f8624"/><path d="M931.94 477.64c-8.3 0-15.33-4.64-18.55-12.26l3.66-1.57c1.7 3.95 4.48 6.75 8.44 8.45 8.18 3.55 17.73-.24 21.24-8.44l3.67 1.58c-3.2 7.6-10.2 12.24-18.46 12.26zM903.15 437.58c0 2.56-2.08 4.64-4.64 4.64-2.55 0-4.63-2.08-4.63-4.64 0-2.56 2.08-4.64 4.64-4.64 2.57 0 4.65 2.08 4.65 4.64z" stroke="#fff" stroke-opacity="0" fill="#3f8624"/><path d="M896.53 440.37h3.96v13h-3.97v-13zM905.96 420.92c0 2.56-2.08 4.63-4.63 4.63-2.57 0-4.64-2.07-4.64-4.63s2.06-4.64 4.63-4.64c2.55 0 4.63 2.08 4.63 4.64z" stroke="#fff" stroke-opacity="0" fill="#3f8624"/><path d="M915.35 453.37h-3.95v-19.62l-10.6-10.55 2.82-2.8 11.73 11.7v21.27zM971.08 433.06h-15.12v-15.1h15.12zm-11.16-3.95h7.2v-7.18h-7.2zM948.64 425.5c0 2.57-2.07 4.65-4.63 4.65-2.55 0-4.63-2.08-4.63-4.64 0-2.55 2.08-4.62 4.64-4.62 2.57 0 4.64 2.07 4.64 4.63z" stroke="#fff" stroke-opacity="0" fill="#3f8624"/><path d="M944.94 423.53h13v3.97h-13v-3.97zM942.14 442.24c0 2.56-2.07 4.63-4.63 4.63-2.55 0-4.63-2.07-4.63-4.63s2.08-4.64 4.64-4.64c2.57 0 4.64 2.08 4.64 4.64z" stroke="#fff" stroke-opacity="0" fill="#3f8624"/><path d="M941.23 440.25h35.3v3.97h-35.3v-3.97zM931.94 430.15c0 2.56-2.08 4.64-4.64 4.64-2.56 0-4.63-2.1-4.63-4.65 0-2.56 2.07-4.64 4.63-4.64s4.64 2.1 4.64 4.65z" stroke="#fff" stroke-opacity="0" fill="#3f8624"/><path d="M925 430.67l-11.7-11.72-.07-10.13 3.97-.05.03 8.54 10.6 10.56-2.83 2.8z" stroke="#fff" stroke-opacity="0" fill="#3f8624"/><path d="M931.73 445.44c9.62 0 17.42 6.82 17.42 15.22s-7.8 15.2-17.42 15.2c-9.62 0-17.42-6.8-17.42-15.2 0-8.4 7.8-15.22 17.43-15.22zM931.73 386.44c9.62 0 17.42 6.82 17.42 15.22s-7.8 15.22-17.42 15.22c-9.62 0-17.42-6.82-17.42-15.22s7.8-15.22 17.43-15.22z" stroke="#fff" stroke-opacity="0" stroke-width=".37" fill="#fff" fill-opacity="0"/><use xlink:href="#e" transform="matrix(1,0,0,1,855.3731343283582,486.6431187655199) translate(3.6370370370371177 17.066666666666652)"/><use xlink:href="#f" transform="matrix(1,0,0,1,855.3731343283582,486.6431187655199) translate(62.718518518518536 17.066666666666652)"/><path d="M704.38 609.55h-10.62v6.7h10.62v4.37h-10.62v6.6h10.62v4.48h-10.62v6.6h10.62v4.37h-10.62v6.7h10.62v4.38h-10.62v6.3c0 3.8-2.98 6.9-6.6 6.9h-6.06v11.08h-4.2v-11.07h-6.42v11.07h-4.2v-11.07h-6.33v11.07h-4.28v-11.07h-6.33v11.07h-4.2v-11.07h-6.42v11.07h-4.2v-11.07h-6.05c-3.63 0-6.6-3.1-6.6-6.9v-6.3h-10.63v-4.4h10.62v-6.7h-10.62v-4.36h10.62v-6.6h-10.62v-4.47h10.62v-6.6h-10.62v-4.38h10.62v-6.7h-10.62v-4.37h10.62v-6.32c0-3.78 2.98-6.9 6.6-6.9h6.07V580.9h4.2v11.07h6.4V580.9h4.2v11.07h6.34V580.9h4.28v11.07h6.34V580.9h4.18v11.07h6.42V580.9h4.2v11.07h6.05c3.63 0 6.6 3.1 6.6 6.9v6.3h10.63zm-14.8 50.5v-61.2c0-1.35-1.13-2.5-2.43-2.5h-58.68c-1.3 0-2.42 1.15-2.42 2.5v61.2c0 1.37 1.12 2.53 2.42 2.53h58.68c1.3 0 2.42-1.16 2.42-2.52zm-23.3-22.82c2.7 2.53 4.2 6.02 4.2 9.8 0 4.1-1.68 7.78-4.66 10.3-2.23 1.95-5.12 3.02-8 3.02-.94 0-1.78-.1-2.7-.3-4.95-1.06-8.86-5.33-9.8-10.48-.83-4.67.76-9.23 4.02-12.34V607.4c0-4.85 3.8-8.83 8.47-8.83 4.67 0 8.5 3.98 8.5 8.84zm-3.16 16.7c2.05-1.64 3.17-4.17 3.17-6.9 0-2.7-1.22-5.23-3.46-6.98l-.84-.68V607.4c0-2.42-1.86-4.46-4.2-4.46-2.32 0-4.18 2.04-4.18 4.47v31.97l-.84.68c-2.7 2.04-3.9 5.34-3.26 8.64.56 3.5 3.17 6.3 6.43 7 2.6.57 5.2-.1 7.17-1.76zm-3.17-13.1c2.42.97 4.2 3.4 4.2 6.2 0 3.7-2.8 6.72-6.34 6.72-3.53 0-6.32-3.02-6.32-6.7 0-2.82 1.77-5.25 4.2-6.22v-24.58h4.27zm10.53-31.28v-4.37h10.62v4.37zm0 17.68v-4.37h10.62v4.37zm0-8.84V614h8.47v4.37zm0 17.67v-4.38h8.47v4.37zm-12.67 13.2c1.22 0 2.15-.97 2.15-2.23 0-1.16-.93-2.13-2.14-2.13-1.2 0-2.13.98-2.13 2.14 0 1.26.93 2.24 2.14 2.24z" stroke="#000" stroke-opacity="0" fill="#3f8624"/><use xlink:href="#g" transform="matrix(1,0,0,1,581.2445086183724,687.0284237726099) translate(22.946296296296296 17.955555555555552)"/><use xlink:href="#h" transform="matrix(1,0,0,1,581.2445086183724,687.0284237726099) translate(40.87067901234569 44.888888888888886)"/><path d="M797.38 623.56l-.1 1.23-.3 1.3-.52 1.22-.7 1.14-.87 1.02-1.02.86-1.14.7-1.24.5-1.3.32-1.23.1h-59.74v-5h59.55l.64-.05.54-.12.5-.2.47-.3.42-.35.35-.42.3-.45.2-.5.13-.54.05-.64v-47.1h5zm63.14-189.98h-59.55l-.64.05-.53.13-.5.2-.48.3-.4.35-.37.42-.3.47-.2.5-.12.53-.05.64v117.76h-5V436.98l.1-1.24.3-1.3.52-1.23.7-1.13.86-1 1-.88 1.15-.7 1.25-.5 1.3-.33 1.23-.1h59.74z" stroke="#3f8624" stroke-width=".05" fill="#3f8624"/><path d="M726.74 634.1l-14.27-4.64 14.26-4.63z" fill="#3f8624"/><path d="M729.24 637.54l-24.86-8.08 24.86-8.08zm-8.68-8.08l3.68 1.2v-2.4z" stroke="#3f8624" stroke-width=".05" fill="#3f8624"/><path d="M877.28 431.08l-14.26 4.63v-9.26z" fill="#3f8624"/><path d="M885.37 431.08l-24.85 8.07V423zm-19.85 1.2l3.67-1.2-3.68-1.2z" stroke="#3f8624" stroke-width=".05" fill="#3f8624"/><use xlink:href="#i" transform="matrix(1,0,0,1,773.6661089301554,554.932076318392) translate(0 14.222222222222223)"/><g stroke="#000" stroke-opacity="0" fill="#3f8624"><path d="M710.02 583.68c2.2 2.54 3.43 5.6 3.7 8.46l4.72 1.03c-.28-4.04-2.03-8.35-5.24-12.08-3.2-3.73-7.2-6.1-11.05-6.86l.32 4.8c2.52.42 5.37 2.1 7.55 4.64z"/><path d="M716.23 578.34c4.16 4.82 6.46 10.5 6.84 15.85l4.72 1.02c-.45-6.48-3.24-13.44-8.42-19.45-5.17-6-11.56-9.88-17.9-11.27l.34 4.86c4.97 1.03 10.26 4.15 14.4 8.98z"/><path d="M722.5 572.95c6.18 7.2 9.56 15.57 10.06 23.17l4.72 1.03c-.6-8.9-4.6-18.6-11.7-26.85-7.12-8.26-16.03-13.56-24.75-15.5l.35 4.87c7.5 1.58 15.22 6.2 21.3 13.28zM707.1 586.35c1.85 2.16 2.06 5.08.45 6.46-1.62 1.4-4.5.78-6.35-1.38-1.86-2.16-2.07-5.07-.43-6.48 1.6-1.4 4.46-.75 6.32 1.4z"/></g><path d="M668.06-44.5a6 6 0 0 1 6-6h624.42a6 6 0 0 1 6 6V-7.9a6 6 0 0 1-6 6H674.06a6 6 0 0 1-6-6z" fill="#fff" fill-opacity="0"/><path d="M671.34-49.83l.87-.36.92-.2.94-.1h3.02m4.03 0h6.05m4.03 0h6.04m4.03 0h6.04m4.02 0h6.05m4.02 0h6.04m4.03 0h6.04m4.04 0h6.04m4.03 0h6.05m4.03 0h6.04m4.03 0h6.04m4.02 0h6.04m4.03 0h6.04m4.02 0H808m4.04 0h6.04m4.03 0h6.05m4.03 0h6.04m4.03 0h6.04m4.02 0h6.04m4.03 0h6.03m4.03 0h6.05m4.03 0h6.05m4.03 0h6.05m4.03 0h6.04m4.03 0h6.04m4.02 0h6.04m4.03 0h6.03m4.03 0H949m4.03 0h6.05m4.02 0h6.05m4.03 0h6.04m4.03 0h6.04m4.02 0h6.04m4.03 0h6.03m4.03 0h6.04m4.03 0h6.05m4.02 0h6.05m4.02 0h6.05m4.03 0h6.04m4.02 0h6.04m4.03 0h6.03m4.03 0h6.04m4.03 0h6.04m4.03 0h6.05m4.02 0h6.05m4.02 0h6.05m4.02 0h6.04m4.03 0h6.03m4.03 0h6.04m4.03 0h6.04m4.03 0h6.04m4.03 0h6.04m4.04 0h6.05m4.02 0h6.04m4.03 0h6.03m4.03 0h6.04m4.03 0h6.04m4.03 0h6.04m4.03 0h6.04m4.04 0h6.05m4 0h6.06m4.03 0h6.03m4.03 0h3.02l.94.1.9.2.88.37m2.62 2.62l.36.86.22.92.08.93v2.76m0 3.65v5.5m0 3.66v5.48m0 3.66v5.48m0 3.66v2.74l-.08.94-.22.92-.36.86m-2.62 2.63l-.87.36-.9.2-.95.08h-3.02m-4.03 0h-6.05m-4.02 0h-6.05m-4 0h-6.06m-4.03 0h-6.03m-4.03 0h-6.04m-4.03 0h-6.04m-4.03 0h-6.04m-4.03 0h-6.04m-4.04 0h-6.04m-4.03 0h-6.06m-4.03 0h-6.03m-4.03 0h-6.04m-4.03 0h-6.04m-4.03 0h-6.04m-4.03 0h-6.04m-4.04 0h-6.04m-4.03 0h-6.06m-4.02 0h-6.05m-4.03 0h-6.04m-4.03 0h-6.04m-4.03 0h-6.04m-4.03 0h-6.04m-4.04 0h-6.04m-4.03 0h-6.05m-4.03 0h-6.05m-4.02 0h-6.05m-4.02 0h-6.05m-4.03 0h-6.04m-4.03 0h-6.04m-4.04 0h-6.04m-4.03 0h-6.05m-4.03 0h-6.04m-4.03 0h-6.04m-4.02 0h-6.05m-4.02 0h-6.04m-4.03 0h-6.04m-4.04 0h-6.04m-4.03 0h-6.05m-4.03 0h-6.04m-4.03 0h-6.04m-4.02 0h-6.05m-4.02 0h-6.04m-4.03 0h-6.04m-4.04 0h-6.04m-4.03 0h-6.05m-4.03 0h-6.04m-4.03 0h-6.04m-4.02 0h-6.04m-4.03 0h-6.03m-4.03 0h-6.05m-4.03 0h-6.05m-4.03 0h-6.05m-4.03 0h-6.04m-4.03 0h-6.04m-4.02 0h-6.04m-4.03 0h-6.03m-4.03 0h-6.05m-4.03 0h-6.05m-4.03 0h-6.05m-4.03 0h-6.04m-4.03 0h-6.04m-4.02 0h-3.02l-.94-.07-.9-.2-.88-.37M668.7-5.2l-.35-.87-.22-.9-.07-.95v-2.74m0-3.66v-5.48m0-3.66v-5.48m0-3.66v-5.5m0-3.64v-2.75l.07-.92.22-.92.36-.87" stroke="#d86613" stroke-width="2" fill="none"/><use xlink:href="#j" transform="matrix(1,0,0,1,673.0597014925373,-45.48627565696454) translate(275.58333333333337 29.104166666666657)"/><path d="M665.28 388.4c-14.13 0-28.26 3.55-28.26 10.1V461c0 6.6 14.24 10.08 28.26 10.08 14.02 0 28.27-3.47 28.27-10.1v-62.5c0-6.6-14.14-10.08-28.27-10.08zm0 3.55c14.93 0 24.76 3.97 24.76 6.54 0 2.55-9.9 6.52-24.76 6.52-14.8 0-24.7-3.97-24.7-6.53 0-2.66 9.78-6.55 24.7-6.55zm0 75.57c-14.92 0-24.7-3.97-24.7-6.53v-15.72c5.08 3.3 14.98 4.96 24.7 4.96 9.78 0 19.67-1.73 24.76-4.96v15.7c0 2.57-9.83 6.54-24.76 6.54zm0-20.83c-14.92 0-24.7-3.9-24.7-6.54v-15.7c5.08 3.2 14.98 4.95 24.7 4.95 9.78 0 19.67-1.8 24.76-4.95v15.7c0 2.65-9.83 6.54-24.76 6.54zm0-20.85c-16.28 0-24.7-4.2-24.7-6.53v-15.7c5.08 3.3 14.98 4.95 24.7 4.95 9.78 0 19.67-1.65 24.76-4.96v15.72c0 2.32-8.48 6.53-24.76 6.53z" stroke="#fff" stroke-opacity="0" fill="#d86613"/><path d="M645.14 413.5h4.2v3.55h-4.2v-3.55zM645.14 434.33h4.2v3.56h-4.2v-3.56zM645.14 455.17h4.2v3.55h-4.2v-3.55zM651.36 413.5h7.38v3.55h-7.38v-3.55zM651.36 434.33h7.38v3.56h-7.38v-3.56zM651.36 455.17h7.38v3.55h-7.38v-3.55z" stroke="#fff" stroke-opacity="0" fill="#d86613"/><use xlink:href="#k" transform="matrix(1,0,0,1,607.0149253731344,480.07794734891377) translate(17.234567901234584 17.77777777777777)"/><path d="M1149.38 389.44h69.6v69.6h-69.6z" stroke="#fff" stroke-opacity="0" fill="#d86613"/><path d="M1217.72 390.7v67.08h-67.1l.02-67.08h67.08m2.53-2.53h-72.14v72.14h72.15v-72.13z" stroke="#fff" stroke-opacity="0" fill="#fff"/><path d="M1205.82 415.33v-1.7h-3.4v-3.7c0-1.7-1.4-3.1-3.1-3.1h-3.68v-3.38h-1.7v3.4h-3.4v-3.4h-1.7v3.4h-3.4v-3.4h-1.68v3.4h-3.4v-3.4h-1.7v3.4h-3.4v-3.4h-1.7v3.4h-3.68c-1.7 0-3.1 1.4-3.1 3.1v3.68h-3.4v1.7h3.4v3.4h-3.4v1.7h3.4v3.4h-3.4v1.68h3.4v3.4h-3.4v1.7h3.4v3.4h-3.4v1.7h3.4v3.7c0 1.7 1.4 3.1 3.1 3.1h3.7v3.38h1.7v-3.4h3.38v3.4h1.7v-3.4h3.4v3.4h1.7v-3.4h3.4v3.4h1.68v-3.4h3.4v3.4h1.7v-3.4h3.7c1.7 0 3.1-1.4 3.1-3.1v-3.68h3.38V434h-3.4v-3.4h3.4v-1.7h-3.4v-3.4h3.4v-1.68h-3.4v-3.4h3.4v-1.7h-3.4v-3.4zm-5.1 24.06c0 .75-.63 1.4-1.4 1.4h-29.44c-.77 0-1.4-.65-1.4-1.4v-29.46c0-.76.63-1.4 1.4-1.4h29.45c.76 0 1.4.64 1.4 1.4z" stroke="#fff" stroke-opacity="0" fill="#fff"/><path d="M1192.77 414.48h-16.33c-1.1 0-2.02.92-2.02 2.02v16.33c0 1.1.92 2.02 2.02 2.02h16.33c1.1 0 2.02-.92 2.02-2.02V416.5c0-1.1-.93-2.02-2.03-2.02zm.33 18.35c0 .2-.15.33-.33.33h-16.33c-.2 0-.33-.14-.33-.33V416.5c0-.2.15-.33.34-.33h16.33c.18 0 .33.14.33.33z" stroke="#fff" stroke-opacity="0" fill="#fff"/><path d="M1141.5 477.37a6 6 0 0 1 6-6h73.37a6 6 0 0 1 6 6v31.17a6 6 0 0 1-6 6h-73.38a6 6 0 0 1-6-6z" fill="none"/><use xlink:href="#l" transform="matrix(1,0,0,1,1141.4925373134329,471.36911327091525) translate(-4.993827160493829 17.77777777777778)"/><use xlink:href="#m" transform="matrix(1,0,0,1,1141.4925373134329,471.36911327091525) translate(7.96913580246914 44.44444444444444)"/><path d="M1147.95 207.7h-59.48c-.68 0-1.3-.6-1.3-1.33v-37.19c0-.7.62-1.3 1.3-1.3h59.48c.68 0 1.3.6 1.3 1.3v37.2c0 .7-.62 1.3-1.3 1.3zm-58.12-2.64h56.75V170.5h-56.75z" stroke="#fff" stroke-opacity="0" fill="#3f8624"/><path d="M1094.6 174.15h2.64v27.27h-2.64v-27.27zM1102.03 174.15h2.64v27.27h-2.64v-27.27zM1109.46 174.15h2.65v27.27h-2.64v-27.27zM1116.9 174.15h2.63v27.27h-2.64v-27.27zM1124.33 174.15h2.64v27.27h-2.64v-27.27zM1131.75 174.15h2.64v27.27h-2.65v-27.27zM1139.2 174.15h2.63v27.27h-2.64v-27.27z" stroke="#fff" stroke-opacity="0" fill="#3f8624"/><use xlink:href="#n" transform="matrix(1,0,0,1,1057.1641791044776,216.6859667819307) translate(11.870370370370381 14.222222222222221)"/><use xlink:href="#o" transform="matrix(1,0,0,1,1057.1641791044776,216.6859667819307) translate(53.89506172839506 14.222222222222221)"/><use xlink:href="#p" transform="matrix(1,0,0,1,1057.1641791044776,216.6859667819307) translate(21.574074074074076 35.55555555555556)"/><path d="M1003.36 431.08h39a6 6 0 0 0 6-6v-231.3a6 6 0 0 1 6-6h7.95" stroke="#3f8624" stroke-width="5" fill="none"/><path d="M986.6 431.08l14.26-4.64v9.27zM1079.07 187.78l-14.26 4.63v-9.26z" stroke="#3f8624" stroke-width="5" fill="#3f8624"/><path d="M1272.13 152.08h-59.48c-.7 0-1.3-.6-1.3-1.32v-37.18c0-.72.6-1.32 1.3-1.32h59.48c.68 0 1.3.6 1.3 1.3v37.2c0 .72-.62 1.32-1.3 1.32zm-58.12-2.63h56.76V114.9H1214z" stroke="#fff" stroke-opacity="0" fill="#3f8624"/><path d="M1218.78 118.54h2.64v27.27h-2.64v-27.26zM1226.2 118.54h2.65v27.27h-2.64v-27.26zM1233.64 118.54h2.64v27.27h-2.64v-27.26zM1241.07 118.54h2.64v27.27h-2.63v-27.26zM1248.5 118.54h2.65v27.27h-2.64v-27.26zM1255.93 118.54h2.64v27.27h-2.64v-27.26zM1263.37 118.54h2.64v27.27h-2.63v-27.26z" stroke="#fff" stroke-opacity="0" fill="#3f8624"/><use xlink:href="#q" transform="matrix(1,0,0,1,1181.3432835820897,161.07601139213978) translate(15.672839506172842 14.222222222222221)"/><use xlink:href="#r" transform="matrix(1,0,0,1,1181.3432835820897,161.07601139213978) translate(24.981481481481488 35.55555555555556)"/><use xlink:href="#s" transform="matrix(1,0,0,1,1181.3432835820897,161.07601139213978) translate(33.42592592592593 56.888888888888886)"/><use xlink:href="#t" transform="matrix(1,0,0,1,1181.3432835820897,161.07601139213978) translate(28.48765432098766 78.22222222222223)"/><path d="M1174.1 187.78h.2a6 6 0 0 0 6-6v-43.6a6 6 0 0 1 6-6h.2" stroke="#3f8624" stroke-width="5" fill="none"/><path d="M1157.34 187.78l14.27-4.64v9.27zM1203.25 132.17L1189 136.8v-9.27z" stroke="#3f8624" stroke-width="5" fill="#3f8624"/><use xlink:href="#u" transform="matrix(1,0,0,1,1134.8664085778519,122.48266004229318) translate(0 14.222222222222223)"/><path d="M969.44 54.94h-59.48c-.68 0-1.3-.6-1.3-1.3v-37.2c0-.72.62-1.3 1.3-1.3h59.48c.68 0 1.3.58 1.3 1.3v37.2c0 .7-.62 1.3-1.3 1.3zm-58.1-2.63h56.74V17.76h-56.75z" stroke="#fff" stroke-opacity="0" fill="#3f8624"/><path d="M916.1 21.4h2.64v27.27h-2.65V21.4zM923.52 21.4h2.64v27.27h-2.64V21.4zM930.96 21.4h2.64v27.27h-2.64V21.4zM938.38 21.4h2.64v27.27h-2.64V21.4zM945.82 21.4h2.64v27.27h-2.64V21.4zM953.24 21.4h2.64v27.27h-2.64V21.4zM960.68 21.4h2.64v27.27h-2.64V21.4z" stroke="#fff" stroke-opacity="0" fill="#3f8624"/><use xlink:href="#v" transform="matrix(1,0,0,1,878.6567164179105,63.94071813486324) translate(5.327160493827165 14.222222222222221)"/><use xlink:href="#w" transform="matrix(1,0,0,1,878.6567164179105,63.94071813486324) translate(60.48765432098765 14.222222222222221)"/><path d="M1244.9 87.4h-5v-3.73h5zm-7.18-54.77l1.3.3 1.23.52 1.14.7 1 .87.87 1 .7 1.15.5 1.23.32 1.3.1 1.23v21.4h-5v-21.2l-.06-.64-.13-.55-.2-.5-.3-.47-.34-.42-.42-.35-.47-.28-.5-.2-.54-.14-.64-.05H995.6v-5h240.9z" stroke="#3f8624" stroke-width=".05" fill="#3f8624"/><path d="M1242.4 104.17l-4.65-14.27h9.27z" fill="#3f8624"/><path d="M1242.4 112.26l-8.1-24.86h16.16zm-1.2-19.86l1.2 3.68 1.18-3.67z" stroke="#3f8624" stroke-width=".05" fill="#3f8624"/><path d="M993.1 39.67l-14.26-4.64 14.26-4.63z" fill="#3f8624"/><path d="M995.6 43.1l-24.85-8.07 24.85-8.07zm-8.67-8.07l3.67 1.2v-2.4z" stroke="#3f8624" stroke-width=".05" fill="#3f8624"/><use xlink:href="#x" transform="matrix(1,0,0,1,1217.2769485903816,62.33824495667194) translate(0 14.222222222222223)"/><path d="M946.16 168.26h-59.48c-.7 0-1.3-.6-1.3-1.3v-37.2c0-.7.6-1.3 1.3-1.3h59.48c.68 0 1.3.6 1.3 1.3v37.2c0 .7-.62 1.3-1.3 1.3zm-58.12-2.62h56.75v-34.56h-56.76z" stroke="#fff" stroke-opacity="0" fill="#3f8624"/><path d="M892.8 134.73h2.65V162h-2.64v-27.27zM900.24 134.73h2.64V162h-2.64v-27.27zM907.67 134.73h2.65V162h-2.65v-27.27zM915.1 134.73h2.64V162h-2.64v-27.27zM922.53 134.73h2.65V162h-2.65v-27.27zM929.96 134.73h2.64V162h-2.64v-27.27zM937.4 134.73h2.64V162h-2.64v-27.27z" stroke="#fff" stroke-opacity="0" fill="#3f8624"/><use xlink:href="#q" transform="matrix(1,0,0,1,855.3731343283582,177.2652269350192) translate(15.672839506172842 14.222222222222221)"/><use xlink:href="#y" transform="matrix(1,0,0,1,855.3731343283582,177.2652269350192) translate(33.845679012345684 35.55555555555556)"/><path d="M883.8 35.03h-9.14a6 6 0 0 0-6 6V85.7a6 6 0 0 0 6 6h35.76a6 6 0 0 1 6 6v5.9" stroke="#3f8624" stroke-width="5" fill="none"/><path d="M900.57 35.03l-14.27 4.64V30.4zM916.42 120.36l-4.64-14.27h9.27z" stroke="#3f8624" stroke-width="5" fill="#3f8624"/><use xlink:href="#x" transform="matrix(1,0,0,1,810.4344941956883,51.06681996446021) translate(0 14.222222222222223)"/><path d="M744.37 168.26H684.9c-.7 0-1.32-.6-1.32-1.3v-37.2c0-.7.62-1.3 1.3-1.3h59.5c.67 0 1.3.6 1.3 1.3v37.2c0 .7-.63 1.3-1.3 1.3zm-58.12-2.62H743v-34.56h-56.75z" stroke="#fff" stroke-opacity="0" fill="#3f8624"/><path d="M691.02 134.73h2.64V162h-2.64v-27.27zM698.44 134.73h2.65V162h-2.66v-27.27zM705.88 134.73h2.64V162h-2.64v-27.27zM713.3 134.73h2.65V162h-2.64v-27.27zM720.74 134.73h2.64V162h-2.64v-27.27zM728.17 134.73h2.64V162h-2.63v-27.27zM735.6 134.73h2.65V162h-2.64v-27.27z" stroke="#fff" stroke-opacity="0" fill="#3f8624"/><use xlink:href="#z" transform="matrix(1,0,0,1,653.5820895522388,177.2652269350192) translate(29.919753086419753 14.222222222222221)"/><path d="M717.13 103.6h-5V96.5h5zM883.8 37.52H720.73l-.65.05-.53.13-.5.22-.48.3-.4.34-.37.42-.28.47-.2.5-.14.54-.05.63v34.05h-5V40.93l.1-1.23.3-1.3.52-1.23.7-1.14.86-1 1.03-.88 1.13-.7 1.24-.5 1.3-.32 1.23-.1H883.8z" stroke="#3f8624" stroke-width=".05" fill="#3f8624"/><path d="M714.63 120.36L710 106.1h9.26z" fill="#3f8624"/><path d="M714.63 128.45l-8.08-24.86h16.15zm-1.2-19.86l1.2 3.67 1.2-3.68z" stroke="#3f8624" stroke-width=".05" fill="#3f8624"/><path d="M900.57 35.03l-14.27 4.64V30.4z" fill="#3f8624"/><path d="M908.66 35.03L883.8 43.1V26.97zm-19.86 1.2l3.68-1.2-3.68-1.2z" stroke="#3f8624" stroke-width=".05" fill="#3f8624"/><use xlink:href="#x" transform="matrix(1,0,0,1,689.5157545605307,75.18137764139) translate(0 14.222222222222223)"/><path d="M770.53 148.36h99.5" stroke="#3f8624" stroke-width="5" fill="none"/><path d="M753.76 148.36l14.27-4.64V153zM880.46 148.36l-12.9 7.63V140.7z" stroke="#3f8624" stroke-width="5" fill="#3f8624"/><use xlink:href="#A" transform="matrix(1,0,0,1,791.8680669526443,123.02443091511871) translate(0 14.222222222222223)"/><path d="M1023.77 249.2H964.3c-.7 0-1.3-.6-1.3-1.3v-37.2c0-.7.6-1.3 1.3-1.3h59.47c.68 0 1.3.6 1.3 1.3v37.2c0 .7-.62 1.3-1.3 1.3zm-58.12-2.62h56.75v-34.56h-56.75z" stroke="#fff" stroke-opacity="0" fill="#3f8624"/><path d="M970.42 215.68h2.65v27.27h-2.65v-27.27zM977.85 215.68h2.64v27.27h-2.65v-27.27zM985.28 215.68h2.65v27.27h-2.65v-27.27zM992.7 215.68h2.65v27.27h-2.64v-27.27zM1000.15 215.68h2.64v27.27h-2.65v-27.27zM1007.57 215.68h2.64v27.27h-2.63v-27.27zM1015 215.68h2.65v27.27H1015v-27.27z" stroke="#fff" stroke-opacity="0" fill="#3f8624"/><use xlink:href="#B" transform="matrix(1,0,0,1,932.9850746268656,258.2113046494164) translate(10.240740740740748 14.222222222222221)"/><path d="M949.96 165.86h38.07a6 6 0 0 1 6 6v35.04" stroke="#3f8624" stroke-width="5" fill="none"/><path d="M950.03 168.36h-5.57v-.1h1.7l.9-.38.4-.93v-3.6h2.57zM996.53 209.4h-5v-2.57h5z" stroke="#3f8624" stroke-width=".05" fill="#3f8624"/><path d="M868.55 249.2h-59.48c-.7 0-1.3-.6-1.3-1.3v-37.2c0-.7.6-1.3 1.3-1.3h59.48c.68 0 1.3.6 1.3 1.3v37.2c0 .7-.62 1.3-1.3 1.3zm-58.12-2.62h56.75v-34.56h-56.75z" stroke="#fff" stroke-opacity="0" fill="#3f8624"/><path d="M815.2 215.68h2.64v27.27h-2.64v-27.27zM822.62 215.68h2.64v27.27h-2.64v-27.27zM830.06 215.68h2.64v27.27h-2.64v-27.27zM837.5 215.68h2.63v27.27h-2.64v-27.27zM844.92 215.68h2.65v27.27h-2.65v-27.27zM852.35 215.68H855v27.27h-2.65v-27.27zM859.78 215.68h2.65v27.27h-2.65v-27.27z" stroke="#fff" stroke-opacity="0" fill="#3f8624"/><use xlink:href="#C" transform="matrix(1,0,0,1,777.7611940298508,258.2113046494164) translate(37.351851851851855 14.222222222222221)"/><path d="M838.8 206.9v-37.02a6 6 0 0 1 6-6h38.07" stroke="#3f8624" stroke-width="5" fill="none"/><path d="M841.3 209.4h-5v-2.57h5zM885.37 166.38h-2.56v-5h2.57z" stroke="#3f8624" stroke-width=".05" fill="#3f8624"/><path d="M364.6-19.3l4.57.66 3.77.65 3.44 1 4.74 1.72 3.76 1.74 5.24 3.05 3.44 2.6 3.76 3.5 3.1 3.36 2.8 3.58 2.44 3.8 2.46 5 1.63 4.68 1.15 3.48.65 2.6 2.62.44 4.42.87 4.08 1.42 5.24 2.72 3.92 2.93 2.95 2.83 3.43 4.12 1.96 3.6 1.62 3.8 1.3 4.88.5 4.46-.16 4.9-.33 3.03-1.14 4-1.5 3.6-1.62 3.25-2.45 3.37-2.46 2.94-3.44 2.93-4.1 2.7-3.75 1.74-3.76 1.3-4.1 1-3.76.42h-93.43l-5.72-.87-6.05-1.75-6.38-3.15-4.74-3.37-4.9-4.9-2.96-3.8-2.3-3.8-2.12-4.77-1.47-5.33-.82-4.56-.16-4.13.16-4.67.66-3.26 1.47-5.75 2.28-5.32 3.44-5.54 3.76-4.36 5.07-4.13 5.08-3.03 4.9-2.07 4.6-1.2 4.08-.64 1.48-.1 2.45-4.8 4.1-5.54 3.92-4.12 4.58-3.92 4.1-2.7 4.4-2.3 3.94-1.73 5.07-1.63 4.75-.87 5.22-.55zm-9 14.46l-4.42.86-3.44 1.2-3.27 1.3-3.44 1.96-2.78 1.85-3.1 2.6-3.12 3.16-1.96 2.92-1.47 2.28-1.8 3.7-1.3 4.34h-6.72l-4.9.76-4.26 1.42-3.93 2.06-3.77 2.72-3.44 3.58-2.63 4.02-2.13 5.1-.8 3.7-.34 3.8.16 3.6.66 3.58 1.47 3.8 1.95 3.7 2.46 3.04 2.8 2.7 3.42 2.4 2.95 1.63 3.27 1.2 3.28.76 3.27.44h91.94l2.46-.2 2.3-.56 3.43-1.4 2.94-1.75 2.62-2.28 2.12-2.72 1.96-3.7.98-3.03.33-2.83.15-2.82-.32-1.96-.5-2.94-1.3-2.93-1-1.85-1.46-2.07-2.45-2.6-3.1-2.17-2.96-1.52-3.1-.97-3.12-.32h-11.12l-.17-4.77-.32-3.6-.82-4.23-1.3-3.9-1.96-4.25-1.8-2.93-1.8-2.6-3.1-3.27-2.96-2.4L382.1.7l-2.94-1.74-2.8-1.2-3.1-1.2-3.92-1.08-5.4-.76h-3.44z" stroke="#000" stroke-opacity="0" stroke-width=".01" fill="#5c85de"/><use xlink:href="#D" transform="matrix(1,0,0,1,280,94.36161365725131) translate(13.950617283950649 28.444444444444436)"/><path d="M643.47 216.83H584c-.7 0-1.3-.6-1.3-1.3v-37.2c0-.72.6-1.3 1.3-1.3h59.47c.68 0 1.3.6 1.3 1.3v37.2c0 .7-.62 1.3-1.3 1.3zm-58.1-2.63h56.74v-34.55h-56.74z" stroke="#fff" stroke-opacity="0" fill="#3f8624"/><path d="M590.12 183.3h2.65v27.27h-2.65V183.3zM597.55 183.3h2.64v27.27h-2.65V183.3zM605 183.3h2.63v27.27H605V183.3zM612.4 183.3h2.65v27.27h-2.64V183.3zM619.85 183.3h2.64v27.27h-2.65V183.3zM627.27 183.3h2.64v27.27h-2.63V183.3zM634.7 183.3h2.65v27.27h-2.64V183.3z" stroke="#fff" stroke-opacity="0" fill="#3f8624"/><use xlink:href="#E" transform="matrix(1,0,0,1,552.6865671641791,225.83287356365753) translate(25.030864197530875 14.222222222222221)"/><use xlink:href="#F" transform="matrix(1,0,0,1,552.6865671641791,225.83287356365753) translate(27.006172839506178 35.55555555555556)"/><use xlink:href="#G" transform="matrix(1,0,0,1,552.6865671641791,225.83287356365753) translate(34.41358024691358 56.888888888888886)"/><path d="M616.23 152.16h-5V97.84h5zM883.8 37.53H619.83l-.65.05-.53.13-.5.22-.47.3-.42.34-.35.42-.28.47-.2.5-.14.54-.05.63V76.5h-5V40.94l.1-1.24.3-1.3.52-1.23.7-1.14.87-1 1-.88 1.15-.7 1.23-.5 1.3-.32 1.23-.1H883.8z" stroke="#3f8624" stroke-width=".05" fill="#3f8624"/><path d="M613.73 168.93l-4.63-14.27h9.27z" fill="#3f8624"/><path d="M613.73 177.02l-8.08-24.86h16.16zm-1.2-19.86l1.2 3.68 1.2-3.68z" stroke="#3f8624" stroke-width=".05" fill="#3f8624"/><path d="M900.57 35.03l-14.27 4.64V30.4z" fill="#3f8624"/><path d="M908.66 35.03L883.8 43.1V26.97zm-19.86 1.2l3.68-1.2-3.68-1.2z" stroke="#3f8624" stroke-width=".05" fill="#3f8624"/><use xlink:href="#x" transform="matrix(1,0,0,1,588.620232172471,76.50236385464515) translate(0 14.222222222222223)"/><path d="M470.26 32.63l1.3.3 1.23.52 1.13.7 1 .87.88 1 .7 1.15.52 1.23.3 1.3.1 1.23v149.9l.06.64.13.53.22.5.28.48.36.42.42.35.46.3.5.2.54.13.65.05h76.8v5h-77l-1.23-.1-1.3-.3-1.23-.52-1.14-.7-1.02-.86-.85-1-.7-1.15-.5-1.25-.32-1.3-.1-1.23V41.12l-.05-.63-.13-.55-.2-.5-.3-.47-.35-.42-.42-.35-.47-.28-.5-.2-.52-.14-.65-.05h-7.74v-5h7.93z" stroke="#3f8624" stroke-width=".05" fill="#3f8624"/><path d="M574.6 196.93l-14.27 4.63v-9.27z" fill="#3f8624"/><path d="M582.7 196.93L557.82 205v-16.15zm-19.87 1.2l3.68-1.2-3.67-1.2z" stroke="#3f8624" stroke-width=".05" fill="#3f8624"/><path d="M458.6 39.67l-14.28-4.64 14.27-4.63z" fill="#3f8624"/><path d="M461.1 43.1l-24.87-8.07 24.86-8.07zm-8.68-8.07l3.67 1.2v-2.4zM470.26 32.63l1.3.3 1.23.52 1.13.7 1 .87.88 1 .7 1.15.52 1.23.3 1.3.1 1.23v101.33l.06.64.13.54.22.5.28.47.36.43.42.35.46.3.5.2.54.13.65.06h177.7v5h-177.9l-1.23-.1-1.3-.3-1.23-.52-1.14-.7-1.02-.87-.85-1-.7-1.15-.5-1.23-.32-1.3-.1-1.24V41.13l-.05-.64-.13-.55-.2-.5-.3-.47-.35-.42-.42-.35-.47-.28-.5-.2-.52-.14-.65-.05h-7.74v-5h7.93z" stroke="#3f8624" stroke-width=".05" fill="#3f8624"/><path d="M675.5 148.36L661.22 153v-9.28z" fill="#3f8624"/><path d="M683.58 148.36l-24.85 8.07v-16.15zm-19.85 1.2l3.67-1.2-3.67-1.2z" stroke="#3f8624" stroke-width=".05" fill="#3f8624"/><path d="M458.6 39.67l-14.28-4.64 14.27-4.63z" fill="#3f8624"/><path d="M461.1 43.1l-24.87-8.07 24.86-8.07zm-8.68-8.07l3.67 1.2v-2.4z" stroke="#3f8624" stroke-width=".05" fill="#3f8624"/><path d="M665.28 385.9v-17.56a6 6 0 0 1 6-6h245.97a6 6 0 0 0 6-6V278.3" stroke="#d86613" stroke-width="5" fill="none"/><path d="M667.78 388.58l-2.5-.18-2.5.2v-2.77h5zM925.75 278.36h-5v-2.56h5z" stroke="#d86613" stroke-width=".05" fill="#d86613"/><path d="M1184.18 385.67v-17.33a6 6 0 0 0-6-6H929.25a6 6 0 0 1-6-6V278.3" stroke="#d86613" stroke-width="5" fill="none"/><path d="M1186.68 388.17h-5v-2.56h5zM925.75 278.36h-5v-2.56h5z" stroke="#d86613" stroke-width=".05" fill="#d86613"/><defs><path fill="#d86613" d="M175 0L67-191c6 58 2 128 3 191H24v-248h59L193-55c-6-58-2-129-3-193h46V0h-61" id="H"/><path fill="#d86613" d="M110-194c64 0 96 36 96 99 0 64-35 99-97 99-61 0-95-36-95-99 0-62 34-99 96-99zm-1 164c35 0 45-28 45-65 0-40-10-65-43-65-34 0-45 26-45 65 0 36 10 65 43 65" id="I"/><path fill="#d86613" d="M88-194c31-1 46 15 58 34l-1-101h50l1 261h-48c-2-10 0-23-3-31C134-8 116 4 84 4 32 4 16-41 15-95c0-56 19-97 73-99zm17 164c33 0 40-30 41-66 1-37-9-64-41-64s-38 30-39 65c0 43 13 65 39 65" id="J"/><path fill="#d86613" d="M185-48c-13 30-37 53-82 52C43 2 14-33 14-96s30-98 90-98c62 0 83 45 84 108H66c0 31 8 55 39 56 18 0 30-7 34-22zm-45-69c5-46-57-63-70-21-2 6-4 13-4 21h74" id="K"/><g id="a"><use transform="matrix(0.12962962962962957,0,0,0.12962962962962957,0,0)" xlink:href="#H"/><use transform="matrix(0.12962962962962957,0,0,0.12962962962962957,33.574074074074055,0)" xlink:href="#I"/><use transform="matrix(0.12962962962962957,0,0,0.12962962962962957,61.96296296296293,0)" xlink:href="#J"/><use transform="matrix(0.12962962962962957,0,0,0.12962962962962957,90.3518518518518,0)" xlink:href="#K"/></g><path fill="#d86613" d="M194 0L95-120 63-95V0H30v-248h33v124l119-124h40L117-140 236 0h-42" id="L"/><path fill="#d86613" d="M84 4C-5 8 30-112 23-190h32v120c0 31 7 50 39 49 72-2 45-101 50-169h31l1 190h-30c-1-10 1-25-2-33-11 22-28 36-60 37" id="M"/><path fill="#d86613" d="M115-194c53 0 69 39 70 98 0 66-23 100-70 100C84 3 66-7 56-30L54 0H23l1-261h32v101c10-23 28-34 59-34zm-8 174c40 0 45-34 45-75 0-40-5-75-45-74-42 0-51 32-51 76 0 43 10 73 51 73" id="N"/><path fill="#d86613" d="M100-194c63 0 86 42 84 106H49c0 40 14 67 53 68 26 1 43-12 49-29l28 8c-11 28-37 45-77 45C44 4 14-33 15-96c1-61 26-98 85-98zm52 81c6-60-76-77-97-28-3 7-6 17-6 28h103" id="O"/><path fill="#d86613" d="M114-163C36-179 61-72 57 0H25l-1-190h30c1 12-1 29 2 39 6-27 23-49 58-41v29" id="P"/><path fill="#d86613" d="M117-194c89-4 53 116 60 194h-32v-121c0-31-8-49-39-48C34-167 62-67 57 0H25l-1-190h30c1 10-1 24 2 32 11-22 29-35 61-36" id="Q"/><path fill="#d86613" d="M59-47c-2 24 18 29 38 22v24C64 9 27 4 27-40v-127H5v-23h24l9-43h21v43h35v23H59v120" id="R"/><path fill="#d86613" d="M135-143c-3-34-86-38-87 0 15 53 115 12 119 90S17 21 10-45l28-5c4 36 97 45 98 0-10-56-113-15-118-90-4-57 82-63 122-42 12 7 21 19 24 35" id="S"/><g id="b"><use transform="matrix(0.0987654320987654,0,0,0.0987654320987654,0,0)" xlink:href="#L"/><use transform="matrix(0.0987654320987654,0,0,0.0987654320987654,23.703703703703695,0)" xlink:href="#M"/><use transform="matrix(0.0987654320987654,0,0,0.0987654320987654,43.45679012345677,0)" xlink:href="#N"/><use transform="matrix(0.0987654320987654,0,0,0.0987654320987654,63.209876543209845,0)" xlink:href="#O"/><use transform="matrix(0.0987654320987654,0,0,0.0987654320987654,82.96296296296292,0)" xlink:href="#P"/><use transform="matrix(0.0987654320987654,0,0,0.0987654320987654,94.716049382716,0)" xlink:href="#Q"/><use transform="matrix(0.0987654320987654,0,0,0.0987654320987654,114.46913580246907,0)" xlink:href="#O"/><use transform="matrix(0.0987654320987654,0,0,0.0987654320987654,134.22222222222214,0)" xlink:href="#R"/><use transform="matrix(0.0987654320987654,0,0,0.0987654320987654,144.09876543209867,0)" xlink:href="#O"/><use transform="matrix(0.0987654320987654,0,0,0.0987654320987654,163.85185185185176,0)" xlink:href="#S"/></g><path fill="#d86613" d="M87 75C49 33 22-17 22-94c0-76 28-126 65-167h31c-38 41-64 92-64 168S80 34 118 75H87" id="T"/><path fill="#d86613" d="M143 0L79-87 56-68V0H24v-261h32v163l83-92h37l-77 82L181 0h-38" id="U"/><path fill="#d86613" d="M126-127c33 6 58 20 58 59 0 88-139 92-164 29-3-8-5-16-6-25l32-3c6 27 21 44 54 44 32 0 52-15 52-46 0-38-36-46-79-43v-28c39 1 72-4 72-42 0-27-17-43-46-43-28 0-47 15-49 41l-32-3c6-42 35-63 81-64 48-1 79 21 79 65 0 36-21 52-52 59" id="V"/><path fill="#d86613" d="M33-261c38 41 65 92 65 168S71 34 33 75H2C39 34 66-17 66-93S39-220 2-261h31" id="W"/><g id="c"><use transform="matrix(0.0987654320987654,0,0,0.0987654320987654,0,0)" xlink:href="#T"/><use transform="matrix(0.0987654320987654,0,0,0.0987654320987654,11.753086419753082,0)" xlink:href="#U"/><use transform="matrix(0.0987654320987654,0,0,0.0987654320987654,29.530864197530853,0)" xlink:href="#V"/><use transform="matrix(0.0987654320987654,0,0,0.0987654320987654,49.283950617283935,0)" xlink:href="#S"/><use transform="matrix(0.0987654320987654,0,0,0.0987654320987654,67.0617283950617,0)" xlink:href="#W"/></g><path fill="#d86613" d="M197 0v-115H63V0H30v-248h33v105h134v-105h34V0h-34" id="X"/><path fill="#d86613" d="M141-36C126-15 110 5 73 4 37 3 15-17 15-53c-1-64 63-63 125-63 3-35-9-54-41-54-24 1-41 7-42 31l-33-3c5-37 33-52 76-52 45 0 72 20 72 64v82c-1 20 7 32 28 27v20c-31 9-61-2-59-35zM48-53c0 20 12 33 32 33 41-3 63-29 60-74-43 2-92-5-92 41" id="Y"/><path fill="#d86613" d="M85-194c31 0 48 13 60 33l-1-100h32l1 261h-30c-2-10 0-23-3-31C134-8 116 4 85 4 32 4 16-35 15-94c0-66 23-100 70-100zm9 24c-40 0-46 34-46 75 0 40 6 74 45 74 42 0 51-32 51-76 0-42-9-74-50-73" id="Z"/><path fill="#d86613" d="M206 0h-36l-40-164L89 0H53L-1-190h32L70-26l43-164h34l41 164 42-164h31" id="aa"/><g id="d"><use transform="matrix(0.0987654320987654,0,0,0.0987654320987654,0,0)" xlink:href="#X"/><use transform="matrix(0.0987654320987654,0,0,0.0987654320987654,25.58024691358024,0)" xlink:href="#Y"/><use transform="matrix(0.0987654320987654,0,0,0.0987654320987654,45.333333333333314,0)" xlink:href="#P"/><use transform="matrix(0.0987654320987654,0,0,0.0987654320987654,57.0864197530864,0)" xlink:href="#Z"/><use transform="matrix(0.0987654320987654,0,0,0.0987654320987654,76.83950617283948,0)" xlink:href="#aa"/><use transform="matrix(0.0987654320987654,0,0,0.0987654320987654,102.41975308641972,0)" xlink:href="#Y"/><use transform="matrix(0.0987654320987654,0,0,0.0987654320987654,122.17283950617279,0)" xlink:href="#P"/><use transform="matrix(0.0987654320987654,0,0,0.0987654320987654,133.92592592592587,0)" xlink:href="#O"/></g><path fill="#2c3e50" d="M24 0v-248h52v208h133V0H24" id="ab"/><path fill="#2c3e50" d="M110-194c64 0 96 36 96 99 0 64-35 99-97 99-61 0-95-36-95-99 0-62 34-99 96-99zm-1 164c35 0 45-28 45-65 0-40-10-65-43-65-34 0-45 26-45 65 0 36 10 65 43 65" id="ac"/><path fill="#2c3e50" d="M240-174c0 40-23 61-54 70L253 0h-59l-57-94H76V0H24v-248c93 4 217-23 216 74zM76-134c48-2 112 12 112-38 0-48-66-32-112-35v73" id="ad"/><path fill="#2c3e50" d="M133-34C117-15 103 5 69 4 32 3 11-16 11-54c-1-60 55-63 116-61 1-26-3-47-28-47-18 1-26 9-28 27l-52-2c7-38 36-58 82-57s74 22 75 68l1 82c-1 14 12 18 25 15v27c-30 8-71 5-69-32zm-48 3c29 0 43-24 42-57-32 0-66-3-65 30 0 17 8 27 23 27" id="ae"/><g id="e"><use transform="matrix(0.059259259259259206,0,0,0.059259259259259206,0,0)" xlink:href="#ab"/><use transform="matrix(0.059259259259259206,0,0,0.059259259259259206,12.977777777777765,0)" xlink:href="#ac"/><use transform="matrix(0.059259259259259206,0,0,0.059259259259259206,25.95555555555553,0)" xlink:href="#ad"/><use transform="matrix(0.059259259259259206,0,0,0.059259259259259206,41.30370370370366,0)" xlink:href="#ae"/></g><path fill="#2c3e50" d="M67-125c0 54 23 88 75 88 28 0 53-7 68-21v-34h-60v-39h108v91C232-14 192 4 140 4 58 4 20-42 15-125 8-236 126-280 215-234c19 10 29 26 37 47l-47 15c-11-23-29-39-63-39-53 1-75 33-75 86" id="af"/><path fill="#2c3e50" d="M115-3C79 11 28 4 28-45v-112H4v-33h27l15-45h31v45h36v33H77v99c-1 23 16 31 38 25v30" id="ag"/><path fill="#2c3e50" d="M185-48c-13 30-37 53-82 52C43 2 14-33 14-96s30-98 90-98c62 0 83 45 84 108H66c0 31 8 55 39 56 18 0 30-7 34-22zm-45-69c5-46-57-63-70-21-2 6-4 13-4 21h74" id="ah"/><path fill="#2c3e50" d="M231 0h-52l-39-155L100 0H48L-1-190h46L77-45c9-52 24-97 36-145h53l37 145 32-145h46" id="ai"/><path fill="#2c3e50" d="M123 10C108 53 80 86 19 72V37c35 8 53-11 59-39L3-190h52l48 148c12-52 28-100 44-148h51" id="aj"/><g id="f"><use transform="matrix(0.059259259259259206,0,0,0.059259259259259206,0,0)" xlink:href="#af"/><use transform="matrix(0.059259259259259206,0,0,0.059259259259259206,16.592592592592577,0)" xlink:href="#ae"/><use transform="matrix(0.059259259259259206,0,0,0.059259259259259206,28.444444444444418,0)" xlink:href="#ag"/><use transform="matrix(0.059259259259259206,0,0,0.059259259259259206,35.496296296296265,0)" xlink:href="#ah"/><use transform="matrix(0.059259259259259206,0,0,0.059259259259259206,47.348148148148105,0)" xlink:href="#ai"/><use transform="matrix(0.059259259259259206,0,0,0.059259259259259206,63.94074074074069,0)" xlink:href="#ae"/><use transform="matrix(0.059259259259259206,0,0,0.059259259259259206,75.79259259259251,0)" xlink:href="#aj"/></g><path d="M24 0v-248h52v208h133V0H24" id="ak"/><path d="M110-194c64 0 96 36 96 99 0 64-35 99-97 99-61 0-95-36-95-99 0-62 34-99 96-99zm-1 164c35 0 45-28 45-65 0-40-10-65-43-65-34 0-45 26-45 65 0 36 10 65 43 65" id="al"/><path d="M240-174c0 40-23 61-54 70L253 0h-59l-57-94H76V0H24v-248c93 4 217-23 216 74zM76-134c48-2 112 12 112-38 0-48-66-32-112-35v73" id="am"/><path d="M133-34C117-15 103 5 69 4 32 3 11-16 11-54c-1-60 55-63 116-61 1-26-3-47-28-47-18 1-26 9-28 27l-52-2c7-38 36-58 82-57s74 22 75 68l1 82c-1 14 12 18 25 15v27c-30 8-71 5-69-32zm-48 3c29 0 43-24 42-57-32 0-66-3-65 30 0 17 8 27 23 27" id="an"/><path d="M275 0h-61l-44-196L126 0H64L0-248h53L97-49l45-199h58l43 199 44-199h52" id="ao"/><path d="M199 0l-22-63H83L61 0H9l90-248h61L250 0h-51zm-33-102l-36-108c-10 38-24 72-36 108h72" id="ap"/><path d="M175 0L67-191c6 58 2 128 3 191H24v-248h59L193-55c-6-58-2-129-3-193h46V0h-61" id="aq"/><g id="g"><use transform="matrix(0.06234567901234567,0,0,0.06234567901234567,0,0)" xlink:href="#ak"/><use transform="matrix(0.06234567901234567,0,0,0.06234567901234567,13.653703703703702,0)" xlink:href="#al"/><use transform="matrix(0.06234567901234567,0,0,0.06234567901234567,27.307407407407403,0)" xlink:href="#am"/><use transform="matrix(0.06234567901234567,0,0,0.06234567901234567,43.45493827160493,0)" xlink:href="#an"/><use transform="matrix(0.06234567901234567,0,0,0.06234567901234567,55.92407407407406,0)" xlink:href="#ao"/><use transform="matrix(0.06234567901234567,0,0,0.06234567901234567,75.81234567901234,0)" xlink:href="#ap"/><use transform="matrix(0.06234567901234567,0,0,0.06234567901234567,91.95987654320987,0)" xlink:href="#aq"/></g><path d="M24-248c120-7 223 5 221 122C244-46 201 0 124 0H24v-248zM76-40c74 7 117-18 117-86 0-67-45-88-117-82v168" id="ar"/><path d="M185-48c-13 30-37 53-82 52C43 2 14-33 14-96s30-98 90-98c62 0 83 45 84 108H66c0 31 8 55 39 56 18 0 30-7 34-22zm-45-69c5-46-57-63-70-21-2 6-4 13-4 21h74" id="as"/><path d="M128 0H69L1-190h53L99-40l48-150h52" id="at"/><path d="M25-224v-37h50v37H25zM25 0v-190h50V0H25" id="au"/><path d="M190-63c-7 42-38 67-86 67-59 0-84-38-90-98-12-110 154-137 174-36l-49 2c-2-19-15-32-35-32-30 0-35 28-38 64-6 74 65 87 74 30" id="av"/><g id="h"><use transform="matrix(0.06234567901234567,0,0,0.06234567901234567,0,0)" xlink:href="#ar"/><use transform="matrix(0.06234567901234567,0,0,0.06234567901234567,16.147530864197527,0)" xlink:href="#as"/><use transform="matrix(0.06234567901234567,0,0,0.06234567901234567,28.61666666666666,0)" xlink:href="#at"/><use transform="matrix(0.06234567901234567,0,0,0.06234567901234567,41.08580246913579,0)" xlink:href="#au"/><use transform="matrix(0.06234567901234567,0,0,0.06234567901234567,47.320370370370355,0)" xlink:href="#av"/><use transform="matrix(0.06234567901234567,0,0,0.06234567901234567,59.78950617283949,0)" xlink:href="#as"/></g><path fill="#333" d="M30 0v-248h33v221h125V0H30" id="aw"/><path fill="#333" d="M100-194c62-1 85 37 85 99 1 63-27 99-86 99S16-35 15-95c0-66 28-99 85-99zM99-20c44 1 53-31 53-75 0-43-8-75-51-75s-53 32-53 75 10 74 51 75" id="ax"/><path fill="#333" d="M233-177c-1 41-23 64-60 70L243 0h-38l-65-103H63V0H30v-248c88 3 205-21 203 71zM63-129c60-2 137 13 137-47 0-61-80-42-137-45v92" id="ay"/><path fill="#333" d="M141-36C126-15 110 5 73 4 37 3 15-17 15-53c-1-64 63-63 125-63 3-35-9-54-41-54-24 1-41 7-42 31l-33-3c5-37 33-52 76-52 45 0 72 20 72 64v82c-1 20 7 32 28 27v20c-31 9-61-2-59-35zM48-53c0 20 12 33 32 33 41-3 63-29 60-74-43 2-92-5-92 41" id="az"/><g id="i"><use transform="matrix(0.04938271604938272,0,0,0.04938271604938272,0,0)" xlink:href="#aw"/><use transform="matrix(0.04938271604938272,0,0,0.04938271604938272,9.876543209876544,0)" xlink:href="#ax"/><use transform="matrix(0.04938271604938272,0,0,0.04938271604938272,19.75308641975309,0)" xlink:href="#ay"/><use transform="matrix(0.04938271604938272,0,0,0.04938271604938272,32.543209876543216,0)" xlink:href="#az"/></g><path fill="#d86613" d="M266 0h-40l-56-210L115 0H75L2-248h35L96-30l15-64 43-154h32l59 218 59-218h35" id="aA"/><path fill="#d86613" d="M30 0v-248h187v28H63v79h144v27H63v87h162V0H30" id="aB"/><path fill="#d86613" d="M185-189c-5-48-123-54-124 2 14 75 158 14 163 119 3 78-121 87-175 55-17-10-28-26-33-46l33-7c5 56 141 63 141-1 0-78-155-14-162-118-5-82 145-84 179-34 5 7 8 16 11 25" id="aC"/><g id="j"><use transform="matrix(0.09259259259259256,0,0,0.09259259259259256,0,0)" xlink:href="#aA"/><use transform="matrix(0.09259259259259256,0,0,0.09259259259259256,31.38888888888888,0)" xlink:href="#aB"/><use transform="matrix(0.09259259259259256,0,0,0.09259259259259256,53.61111111111109,0)" xlink:href="#aC"/></g><path fill="#3a414a" d="M169-182c-1-43-94-46-97-3 18 66 151 10 154 114 3 95-165 93-204 36-6-8-10-19-12-30l50-8c3 46 112 56 116 5-17-69-150-10-154-114-4-87 153-88 188-35 5 8 8 18 10 28" id="aD"/><path fill="#3a414a" d="M115-3C79 11 28 4 28-45v-112H4v-33h27l15-45h31v45h36v33H77v99c-1 23 16 31 38 25v30" id="aE"/><path fill="#3a414a" d="M110-194c64 0 96 36 96 99 0 64-35 99-97 99-61 0-95-36-95-99 0-62 34-99 96-99zm-1 164c35 0 45-28 45-65 0-40-10-65-43-65-34 0-45 26-45 65 0 36 10 65 43 65" id="aF"/><path fill="#3a414a" d="M135-150c-39-12-60 13-60 57V0H25l-1-190h47c2 13-1 29 3 40 6-28 27-53 61-41v41" id="aG"/><path fill="#3a414a" d="M133-34C117-15 103 5 69 4 32 3 11-16 11-54c-1-60 55-63 116-61 1-26-3-47-28-47-18 1-26 9-28 27l-52-2c7-38 36-58 82-57s74 22 75 68l1 82c-1 14 12 18 25 15v27c-30 8-71 5-69-32zm-48 3c29 0 43-24 42-57-32 0-66-3-65 30 0 17 8 27 23 27" id="aH"/><path fill="#3a414a" d="M195-6C206 82 75 100 31 46c-4-6-6-13-8-21l49-6c3 16 16 24 34 25 40 0 42-37 40-79-11 22-30 35-61 35-53 0-70-43-70-97 0-56 18-96 73-97 30 0 46 14 59 34l2-30h47zm-90-29c32 0 41-27 41-63 0-35-9-62-40-62-32 0-39 29-40 63 0 36 9 62 39 62" id="aI"/><path fill="#3a414a" d="M185-48c-13 30-37 53-82 52C43 2 14-33 14-96s30-98 90-98c62 0 83 45 84 108H66c0 31 8 55 39 56 18 0 30-7 34-22zm-45-69c5-46-57-63-70-21-2 6-4 13-4 21h74" id="aJ"/><g id="k"><use transform="matrix(0.06172839506172837,0,0,0.06172839506172837,0,0)" xlink:href="#aD"/><use transform="matrix(0.06172839506172837,0,0,0.06172839506172837,14.81481481481481,0)" xlink:href="#aE"/><use transform="matrix(0.06172839506172837,0,0,0.06172839506172837,22.160493827160487,0)" xlink:href="#aF"/><use transform="matrix(0.06172839506172837,0,0,0.06172839506172837,35.679012345679,0)" xlink:href="#aG"/><use transform="matrix(0.06172839506172837,0,0,0.06172839506172837,44.32098765432097,0)" xlink:href="#aH"/><use transform="matrix(0.06172839506172837,0,0,0.06172839506172837,56.66666666666664,0)" xlink:href="#aI"/><use transform="matrix(0.06172839506172837,0,0,0.06172839506172837,70.18518518518516,0)" xlink:href="#aJ"/></g><path fill="#3a414a" d="M67-125c0 53 21 87 73 88 37 1 54-22 65-47l45 17C233-25 199 4 140 4 58 4 20-42 15-125 8-235 124-281 211-232c18 10 29 29 36 50l-46 12c-8-25-30-41-62-41-52 0-71 34-72 86" id="aK"/><path fill="#3a414a" d="M220-157c-53 9-28 100-34 157h-49v-107c1-27-5-49-29-50C55-147 81-57 75 0H25l-1-190h47c2 12-1 28 3 38 10-53 101-56 108 0 13-22 24-43 59-42 82 1 51 116 57 194h-49v-107c-1-25-5-48-29-50" id="aL"/><path fill="#3a414a" d="M135-194c53 0 70 44 70 98 0 56-19 98-73 100-31 1-45-17-59-34 3 33 2 69 2 105H25l-1-265h48c2 10 0 23 3 31 11-24 29-35 60-35zM114-30c33 0 39-31 40-66 0-38-9-64-40-64-56 0-55 130 0 130" id="aM"/><path fill="#3a414a" d="M85 4C-2 5 27-109 22-190h50c7 57-23 150 33 157 60-5 35-97 40-157h50l1 190h-47c-2-12 1-28-3-38-12 25-28 42-61 42" id="aN"/><g id="l"><use transform="matrix(0.06172839506172839,0,0,0.06172839506172839,0,0)" xlink:href="#aK"/><use transform="matrix(0.06172839506172839,0,0,0.06172839506172839,15.987654320987653,0)" xlink:href="#aF"/><use transform="matrix(0.06172839506172839,0,0,0.06172839506172839,29.50617283950617,0)" xlink:href="#aL"/><use transform="matrix(0.06172839506172839,0,0,0.06172839506172839,49.25925925925925,0)" xlink:href="#aM"/><use transform="matrix(0.06172839506172839,0,0,0.06172839506172839,62.77777777777777,0)" xlink:href="#aN"/><use transform="matrix(0.06172839506172839,0,0,0.06172839506172839,76.29629629629629,0)" xlink:href="#aE"/><use transform="matrix(0.06172839506172839,0,0,0.06172839506172839,83.64197530864197,0)" xlink:href="#aJ"/></g><path fill="#3a414a" d="M238-95c0 69-44 99-111 99C63 4 22-25 22-93v-155h51v151c-1 38 19 59 55 60 90 1 49-130 58-211h52v153" id="aO"/><path fill="#3a414a" d="M135-194c87-1 58 113 63 194h-50c-7-57 23-157-34-157-59 0-34 97-39 157H25l-1-190h47c2 12-1 28 3 38 12-26 28-41 61-42" id="aP"/><path fill="#3a414a" d="M25-224v-37h50v37H25zM25 0v-190h50V0H25" id="aQ"/><path fill="#3a414a" d="M67-93c0 74 22 123 53 168H70C40 30 18-18 18-93s22-123 52-168h50c-32 44-53 94-53 168" id="aR"/><path fill="#3a414a" d="M137-138c1-29-70-34-71-4 15 46 118 7 119 86 1 83-164 76-172 9l43-7c4 19 20 25 44 25 33 8 57-30 24-41C81-84 22-81 20-136c-2-80 154-74 161-7" id="aS"/><path fill="#3a414a" d="M102-93c0 74-22 123-52 168H0C30 29 54-18 53-93c0-74-22-123-53-168h50c30 45 52 94 52 168" id="aT"/><g id="m"><use transform="matrix(0.06172839506172839,0,0,0.06172839506172839,0,0)" xlink:href="#aO"/><use transform="matrix(0.06172839506172839,0,0,0.06172839506172839,15.987654320987653,0)" xlink:href="#aP"/><use transform="matrix(0.06172839506172839,0,0,0.06172839506172839,29.50617283950617,0)" xlink:href="#aQ"/><use transform="matrix(0.06172839506172839,0,0,0.06172839506172839,35.67901234567901,0)" xlink:href="#aE"/><use transform="matrix(0.06172839506172839,0,0,0.06172839506172839,43.02469135802469,0)" xlink:href="#aR"/><use transform="matrix(0.06172839506172839,0,0,0.06172839506172839,50.37037037037037,0)" xlink:href="#aS"/><use transform="matrix(0.06172839506172839,0,0,0.06172839506172839,62.716049382716044,0)" xlink:href="#aT"/></g><path fill="#3a414a" d="M24-248c120-7 223 5 221 122C244-46 201 0 124 0H24v-248zM76-40c74 7 117-18 117-86 0-67-45-88-117-82v168" id="aU"/><path fill="#3a414a" d="M24-248c93 1 206-16 204 79-1 75-69 88-152 82V0H24v-248zm52 121c47 0 100 7 100-41 0-47-54-39-100-39v80" id="aV"/><g id="n"><use transform="matrix(0.049382716049382706,0,0,0.049382716049382706,0,0)" xlink:href="#aO"/><use transform="matrix(0.049382716049382706,0,0,0.049382716049382706,12.790123456790122,0)" xlink:href="#aU"/><use transform="matrix(0.049382716049382706,0,0,0.049382716049382706,25.580246913580243,0)" xlink:href="#aV"/></g><path fill="#3a414a" d="M190-63c-7 42-38 67-86 67-59 0-84-38-90-98-12-110 154-137 174-36l-49 2c-2-19-15-32-35-32-30 0-35 28-38 64-6 74 65 87 74 30" id="aW"/><path fill="#3a414a" d="M147 0L96-86 75-71V0H25v-261h50v150l67-79h53l-66 74L201 0h-54" id="aX"/><g id="o"><use transform="matrix(0.049382716049382706,0,0,0.049382716049382706,0,0)" xlink:href="#aV"/><use transform="matrix(0.049382716049382706,0,0,0.049382716049382706,11.85185185185185,0)" xlink:href="#aH"/><use transform="matrix(0.049382716049382706,0,0,0.049382716049382706,21.728395061728392,0)" xlink:href="#aW"/><use transform="matrix(0.049382716049382706,0,0,0.049382716049382706,31.604938271604933,0)" xlink:href="#aX"/><use transform="matrix(0.049382716049382706,0,0,0.049382716049382706,41.481481481481474,0)" xlink:href="#aJ"/><use transform="matrix(0.049382716049382706,0,0,0.049382716049382706,51.35802469135801,0)" xlink:href="#aE"/></g><path fill="#3a414a" d="M76-208v77h127v40H76V0H24v-248h183v40H76" id="aY"/><path fill="#3a414a" d="M231 0h-52l-39-155L100 0H48L-1-190h46L77-45c9-52 24-97 36-145h53l37 145 32-145h46" id="aZ"/><path fill="#3a414a" d="M88-194c31-1 46 15 58 34l-1-101h50l1 261h-48c-2-10 0-23-3-31C134-8 116 4 84 4 32 4 16-41 15-95c0-56 19-97 73-99zm17 164c33 0 40-30 41-66 1-37-9-64-41-64s-38 30-39 65c0 43 13 65 39 65" id="ba"/><g id="p"><use transform="matrix(0.049382716049382706,0,0,0.049382716049382706,0,0)" xlink:href="#aY"/><use transform="matrix(0.049382716049382706,0,0,0.049382716049382706,10.814814814814813,0)" xlink:href="#aF"/><use transform="matrix(0.049382716049382706,0,0,0.049382716049382706,21.629629629629626,0)" xlink:href="#aG"/><use transform="matrix(0.049382716049382706,0,0,0.049382716049382706,28.543209876543205,0)" xlink:href="#aZ"/><use transform="matrix(0.049382716049382706,0,0,0.049382716049382706,42.37037037037037,0)" xlink:href="#aH"/><use transform="matrix(0.049382716049382706,0,0,0.049382716049382706,52.24691358024691,0)" xlink:href="#ba"/><use transform="matrix(0.049382716049382706,0,0,0.049382716049382706,63.061728395061714,0)" xlink:href="#aJ"/><use transform="matrix(0.049382716049382706,0,0,0.049382716049382706,72.93827160493827,0)" xlink:href="#aG"/></g><path fill="#3a414a" d="M114-157C55-157 80-60 75 0H25v-261h50l-1 109c12-26 28-41 61-42 86-1 58 113 63 194h-50c-7-57 23-157-34-157" id="bb"/><g id="q"><use transform="matrix(0.049382716049382706,0,0,0.049382716049382706,0,0)" xlink:href="#aK"/><use transform="matrix(0.049382716049382706,0,0,0.049382716049382706,12.790123456790122,0)" xlink:href="#bb"/><use transform="matrix(0.049382716049382706,0,0,0.049382716049382706,23.604938271604937,0)" xlink:href="#aQ"/><use transform="matrix(0.049382716049382706,0,0,0.049382716049382706,28.54320987654321,0)" xlink:href="#aG"/><use transform="matrix(0.049382716049382706,0,0,0.049382716049382706,35.456790123456784,0)" xlink:href="#aM"/><use transform="matrix(0.049382716049382706,0,0,0.049382716049382706,46.271604938271594,0)" xlink:href="#aS"/><use transform="matrix(0.049382716049382706,0,0,0.049382716049382706,56.14814814814814,0)" xlink:href="#aE"/><use transform="matrix(0.049382716049382706,0,0,0.049382716049382706,62.02469135802468,0)" xlink:href="#aH"/><use transform="matrix(0.049382716049382706,0,0,0.049382716049382706,71.90123456790123,0)" xlink:href="#aW"/><use transform="matrix(0.049382716049382706,0,0,0.049382716049382706,81.77777777777777,0)" xlink:href="#aX"/></g><path fill="#3a414a" d="M67-125c0 54 23 88 75 88 28 0 53-7 68-21v-34h-60v-39h108v91C232-14 192 4 140 4 58 4 20-42 15-125 8-236 126-280 215-234c19 10 29 26 37 47l-47 15c-11-23-29-39-63-39-53 1-75 33-75 86" id="bc"/><path fill="#3a414a" d="M123 10C108 53 80 86 19 72V37c35 8 53-11 59-39L3-190h52l48 148c12-52 28-100 44-148h51" id="bd"/><g id="r"><use transform="matrix(0.049382716049382706,0,0,0.049382716049382706,0,0)" xlink:href="#bc"/><use transform="matrix(0.049382716049382706,0,0,0.049382716049382706,13.827160493827158,0)" xlink:href="#aH"/><use transform="matrix(0.049382716049382706,0,0,0.049382716049382706,23.7037037037037,0)" xlink:href="#aE"/><use transform="matrix(0.049382716049382706,0,0,0.049382716049382706,29.58024691358024,0)" xlink:href="#aJ"/><use transform="matrix(0.049382716049382706,0,0,0.049382716049382706,39.456790123456784,0)" xlink:href="#aZ"/><use transform="matrix(0.049382716049382706,0,0,0.049382716049382706,53.28395061728394,0)" xlink:href="#aH"/><use transform="matrix(0.049382716049382706,0,0,0.049382716049382706,63.16049382716048,0)" xlink:href="#bd"/></g><path fill="#3a414a" d="M182-130c37 4 62 22 62 59C244 23 116-4 24 0v-248c84 5 203-23 205 63 0 31-19 50-47 55zM76-148c40-3 101 13 101-30 0-44-60-28-101-31v61zm0 110c48-3 116 14 116-37 0-48-69-32-116-35v72" id="be"/><g id="s"><use transform="matrix(0.049382716049382706,0,0,0.049382716049382706,0,0)" xlink:href="#be"/><use transform="matrix(0.049382716049382706,0,0,0.049382716049382706,12.790123456790122,0)" xlink:href="#aG"/><use transform="matrix(0.049382716049382706,0,0,0.049382716049382706,19.703703703703702,0)" xlink:href="#aQ"/><use transform="matrix(0.049382716049382706,0,0,0.049382716049382706,24.641975308641975,0)" xlink:href="#ba"/><use transform="matrix(0.049382716049382706,0,0,0.049382716049382706,35.456790123456784,0)" xlink:href="#aI"/><use transform="matrix(0.049382716049382706,0,0,0.049382716049382706,46.271604938271594,0)" xlink:href="#aJ"/></g><path fill="#3a414a" d="M99-251c69 0 84 53 88 123 5 99-61 162-144 118-15-8-21-25-26-45l46-6c4 31 50 33 63 7 7-15 12-36 12-60-9 18-29 28-54 28-48 0-72-32-72-82 0-55 31-83 87-83zm-1 128c24 0 37-16 37-39 0-27-10-51-37-51-25 0-35 19-35 45 0 25 10 45 35 45" id="bf"/><path fill="#3a414a" d="M23 0v-37h61v-169l-59 37v-38l62-41h46v211h57V0H23" id="bg"/><path fill="#3a414a" d="M139-81c0-46-55-55-73-27H18l9-140h149v37H72l-4 63c44-38 133-4 122 66C201 21 21 35 11-62l49-4c5 18 15 30 39 30 26 0 40-18 40-45" id="bh"/><g id="t"><use transform="matrix(0.049382716049382706,0,0,0.049382716049382706,0,0)" xlink:href="#aR"/><use transform="matrix(0.049382716049382706,0,0,0.049382716049382706,5.876543209876542,0)" xlink:href="#aO"/><use transform="matrix(0.049382716049382706,0,0,0.049382716049382706,18.666666666666664,0)" xlink:href="#aD"/><use transform="matrix(0.049382716049382706,0,0,0.049382716049382706,30.518518518518512,0)" xlink:href="#bf"/><use transform="matrix(0.049382716049382706,0,0,0.049382716049382706,40.39506172839505,0)" xlink:href="#bg"/><use transform="matrix(0.049382716049382706,0,0,0.049382716049382706,50.271604938271594,0)" xlink:href="#bh"/><use transform="matrix(0.049382716049382706,0,0,0.049382716049382706,60.14814814814814,0)" xlink:href="#aT"/></g><path fill="#333" d="M232-93c-1 65-40 97-104 97C67 4 28-28 28-90v-158h33c8 89-33 224 67 224 102 0 64-133 71-224h33v155" id="bi"/><path fill="#333" d="M30-248c118-7 216 8 213 122C240-48 200 0 122 0H30v-248zM63-27c89 8 146-16 146-99s-60-101-146-95v194" id="bj"/><path fill="#333" d="M30-248c87 1 191-15 191 75 0 78-77 80-158 76V0H30v-248zm33 125c57 0 124 11 124-50 0-59-68-47-124-48v98" id="bk"/><g id="u"><use transform="matrix(0.04938271604938272,0,0,0.04938271604938272,0,0)" xlink:href="#bi"/><use transform="matrix(0.04938271604938272,0,0,0.04938271604938272,12.790123456790125,0)" xlink:href="#bj"/><use transform="matrix(0.04938271604938272,0,0,0.04938271604938272,25.58024691358025,0)" xlink:href="#bk"/></g><path fill="#3a414a" d="M230 0l2-204L168 0h-37L68-204 70 0H24v-248h70l56 185 57-185h69V0h-46" id="bl"/><path fill="#3a414a" d="M140-251c80 0 125 45 125 126 0 70-33 111-92 124 6 28 34 38 68 31l-1 36C177 83 129 55 120 2 51-6 15-50 15-125c0-81 44-126 125-126zm-1 214c52 0 73-35 73-88 0-50-21-86-72-86-52 0-73 35-73 86s22 88 72 88" id="bm"/><path fill="#3a414a" d="M136-208V0H84v-208H4v-40h212v40h-80" id="bn"/><g id="v"><use transform="matrix(0.049382716049382706,0,0,0.049382716049382706,0,0)" xlink:href="#bl"/><use transform="matrix(0.049382716049382706,0,0,0.049382716049382706,14.765432098765428,0)" xlink:href="#bm"/><use transform="matrix(0.049382716049382706,0,0,0.049382716049382706,28.592592592592588,0)" xlink:href="#bn"/><use transform="matrix(0.049382716049382706,0,0,0.049382716049382706,39.407407407407405,0)" xlink:href="#bn"/></g><g id="w"><use transform="matrix(0.049382716049382706,0,0,0.049382716049382706,0,0)" xlink:href="#be"/><use transform="matrix(0.049382716049382706,0,0,0.049382716049382706,12.790123456790122,0)" xlink:href="#aG"/><use transform="matrix(0.049382716049382706,0,0,0.049382716049382706,19.703703703703702,0)" xlink:href="#aF"/><use transform="matrix(0.049382716049382706,0,0,0.049382716049382706,30.51851851851852,0)" xlink:href="#aX"/><use transform="matrix(0.049382716049382706,0,0,0.049382716049382706,40.395061728395056,0)" xlink:href="#aJ"/><use transform="matrix(0.049382716049382706,0,0,0.049382716049382706,50.271604938271594,0)" xlink:href="#aG"/></g><path fill="#333" d="M240 0l2-218c-23 76-54 145-80 218h-23L58-218 59 0H30v-248h44l77 211c21-75 51-140 76-211h43V0h-30" id="bo"/><path fill="#333" d="M140-251c81 0 123 46 123 126C263-53 228-8 163 1c7 30 30 48 69 40v23c-55 16-95-15-103-61C56-3 17-48 17-125c0-80 42-126 123-126zm0 227c63 0 89-41 89-101s-29-99-89-99c-61 0-89 39-89 99S79-25 140-24" id="bp"/><path fill="#333" d="M127-220V0H93v-220H8v-28h204v28h-85" id="bq"/><g id="x"><use transform="matrix(0.04938271604938272,0,0,0.04938271604938272,0,0)" xlink:href="#bo"/><use transform="matrix(0.04938271604938272,0,0,0.04938271604938272,14.765432098765434,0)" xlink:href="#bp"/><use transform="matrix(0.04938271604938272,0,0,0.04938271604938272,28.592592592592595,0)" xlink:href="#bq"/><use transform="matrix(0.04938271604938272,0,0,0.04938271604938272,39.40740740740741,0)" xlink:href="#bq"/></g><path fill="#3a414a" d="M128 0H69L1-190h53L99-40l48-150h52" id="br"/><g id="y"><use transform="matrix(0.049382716049382706,0,0,0.049382716049382706,0,0)" xlink:href="#aD"/><use transform="matrix(0.049382716049382706,0,0,0.049382716049382706,11.85185185185185,0)" xlink:href="#aJ"/><use transform="matrix(0.049382716049382706,0,0,0.049382716049382706,21.728395061728392,0)" xlink:href="#aG"/><use transform="matrix(0.049382716049382706,0,0,0.049382716049382706,28.64197530864197,0)" xlink:href="#br"/><use transform="matrix(0.049382716049382706,0,0,0.049382716049382706,38.51851851851851,0)" xlink:href="#aJ"/><use transform="matrix(0.049382716049382706,0,0,0.049382716049382706,48.39506172839505,0)" xlink:href="#aG"/></g><g id="z"><use transform="matrix(0.049382716049382706,0,0,0.049382716049382706,0,0)" xlink:href="#bn"/><use transform="matrix(0.049382716049382706,0,0,0.049382716049382706,9.82716049382716,0)" xlink:href="#aG"/><use transform="matrix(0.049382716049382706,0,0,0.049382716049382706,16.74074074074074,0)" xlink:href="#aH"/><use transform="matrix(0.049382716049382706,0,0,0.049382716049382706,26.617283950617278,0)" xlink:href="#aW"/><use transform="matrix(0.049382716049382706,0,0,0.049382716049382706,36.49382716049382,0)" xlink:href="#aX"/><use transform="matrix(0.049382716049382706,0,0,0.049382716049382706,46.37037037037037,0)" xlink:href="#aJ"/><use transform="matrix(0.049382716049382706,0,0,0.049382716049382706,56.24691358024691,0)" xlink:href="#aG"/></g><path fill="#333" d="M177-190C167-65 218 103 67 71c-23-6-38-20-44-43l32-5c15 47 100 32 89-28v-30C133-14 115 1 83 1 29 1 15-40 15-95c0-56 16-97 71-98 29-1 48 16 59 35 1-10 0-23 2-32h30zM94-22c36 0 50-32 50-73 0-42-14-75-50-75-39 0-46 34-46 75s6 73 46 73" id="bs"/><path fill="#333" d="M212-179c-10-28-35-45-73-45-59 0-87 40-87 99 0 60 29 101 89 101 43 0 62-24 78-52l27 14C228-24 195 4 139 4 59 4 22-46 18-125c-6-104 99-153 187-111 19 9 31 26 39 46" id="bt"/><g id="A"><use transform="matrix(0.04938271604938272,0,0,0.04938271604938272,0,0)" xlink:href="#bs"/><use transform="matrix(0.04938271604938272,0,0,0.04938271604938272,9.876543209876544,0)" xlink:href="#ay"/><use transform="matrix(0.04938271604938272,0,0,0.04938271604938272,22.66666666666667,0)" xlink:href="#bk"/><use transform="matrix(0.04938271604938272,0,0,0.04938271604938272,34.518518518518526,0)" xlink:href="#bt"/></g><path fill="#3a414a" d="M24 0v-248h52v208h133V0H24" id="bu"/><g id="B"><use transform="matrix(0.049382716049382706,0,0,0.049382716049382706,0,0)" xlink:href="#aV"/><use transform="matrix(0.049382716049382706,0,0,0.049382716049382706,11.85185185185185,0)" xlink:href="#aF"/><use transform="matrix(0.049382716049382706,0,0,0.049382716049382706,22.666666666666664,0)" xlink:href="#aS"/><use transform="matrix(0.049382716049382706,0,0,0.049382716049382706,32.5432098765432,0)" xlink:href="#aE"/><use transform="matrix(0.049382716049382706,0,0,0.049382716049382706,38.419753086419746,0)" xlink:href="#aI"/><use transform="matrix(0.049382716049382706,0,0,0.049382716049382706,49.234567901234556,0)" xlink:href="#aG"/><use transform="matrix(0.049382716049382706,0,0,0.049382716049382706,56.14814814814814,0)" xlink:href="#aJ"/><use transform="matrix(0.049382716049382706,0,0,0.049382716049382706,66.02469135802468,0)" xlink:href="#aD"/><use transform="matrix(0.049382716049382706,0,0,0.049382716049382706,77.87654320987653,0)" xlink:href="#bm"/><use transform="matrix(0.049382716049382706,0,0,0.049382716049382706,91.7037037037037,0)" xlink:href="#bu"/></g><path fill="#3a414a" d="M240-174c0 40-23 61-54 70L253 0h-59l-57-94H76V0H24v-248c93 4 217-23 216 74zM76-134c48-2 112 12 112-38 0-48-66-32-112-35v73" id="bv"/><g id="C"><use transform="matrix(0.049382716049382706,0,0,0.049382716049382706,0,0)" xlink:href="#bv"/><use transform="matrix(0.049382716049382706,0,0,0.049382716049382706,12.790123456790122,0)" xlink:href="#aJ"/><use transform="matrix(0.049382716049382706,0,0,0.049382716049382706,22.666666666666664,0)" xlink:href="#ba"/><use transform="matrix(0.049382716049382706,0,0,0.049382716049382706,33.48148148148148,0)" xlink:href="#aQ"/><use transform="matrix(0.049382716049382706,0,0,0.049382716049382706,38.41975308641975,0)" xlink:href="#aS"/></g><g id="D"><use transform="matrix(0.0987654320987654,0,0,0.0987654320987654,0,0)" xlink:href="#be"/><use transform="matrix(0.0987654320987654,0,0,0.0987654320987654,25.58024691358024,0)" xlink:href="#aJ"/><use transform="matrix(0.0987654320987654,0,0,0.0987654320987654,45.333333333333314,0)" xlink:href="#aJ"/><use transform="matrix(0.0987654320987654,0,0,0.0987654320987654,65.08641975308639,0)" xlink:href="#bb"/><use transform="matrix(0.0987654320987654,0,0,0.0987654320987654,86.71604938271601,0)" xlink:href="#aQ"/><use transform="matrix(0.0987654320987654,0,0,0.0987654320987654,96.59259259259255,0)" xlink:href="#br"/><use transform="matrix(0.0987654320987654,0,0,0.0987654320987654,116.34567901234561,0)" xlink:href="#aJ"/></g><g id="E"><use transform="matrix(0.049382716049382706,0,0,0.049382716049382706,0,0)" xlink:href="#bu"/><use transform="matrix(0.049382716049382706,0,0,0.049382716049382706,10.814814814814813,0)" xlink:href="#aF"/><use transform="matrix(0.049382716049382706,0,0,0.049382716049382706,21.629629629629626,0)" xlink:href="#aG"/><use transform="matrix(0.049382716049382706,0,0,0.049382716049382706,28.543209876543205,0)" xlink:href="#aH"/><use transform="matrix(0.049382716049382706,0,0,0.049382716049382706,38.419753086419746,0)" xlink:href="#aZ"/><use transform="matrix(0.049382716049382706,0,0,0.049382716049382706,52.246913580246904,0)" xlink:href="#aH"/><use transform="matrix(0.049382716049382706,0,0,0.049382716049382706,62.12345679012344,0)" xlink:href="#aP"/></g><g id="F"><use transform="matrix(0.049382716049382706,0,0,0.049382716049382706,0,0)" xlink:href="#bu"/><use transform="matrix(0.049382716049382706,0,0,0.049382716049382706,10.814814814814813,0)" xlink:href="#aQ"/><use transform="matrix(0.049382716049382706,0,0,0.049382716049382706,15.753086419753084,0)" xlink:href="#aS"/><use transform="matrix(0.049382716049382706,0,0,0.049382716049382706,25.629629629629626,0)" xlink:href="#aE"/><use transform="matrix(0.049382716049382706,0,0,0.049382716049382706,31.506172839506167,0)" xlink:href="#aJ"/><use transform="matrix(0.049382716049382706,0,0,0.049382716049382706,41.38271604938271,0)" xlink:href="#aP"/><use transform="matrix(0.049382716049382706,0,0,0.049382716049382706,52.19753086419752,0)" xlink:href="#aJ"/><use transform="matrix(0.049382716049382706,0,0,0.049382716049382706,62.07407407407406,0)" xlink:href="#aG"/></g><path fill="#3a414a" d="M25 0v-261h50V0H25" id="bw"/><g id="G"><use transform="matrix(0.049382716049382706,0,0,0.049382716049382706,0,0)" xlink:href="#aV"/><use transform="matrix(0.049382716049382706,0,0,0.049382716049382706,11.85185185185185,0)" xlink:href="#bw"/><use transform="matrix(0.049382716049382706,0,0,0.049382716049382706,16.79012345679012,0)" xlink:href="#aN"/><use transform="matrix(0.049382716049382706,0,0,0.049382716049382706,27.604938271604933,0)" xlink:href="#aI"/><use transform="matrix(0.049382716049382706,0,0,0.049382716049382706,38.419753086419746,0)" xlink:href="#aQ"/><use transform="matrix(0.049382716049382706,0,0,0.049382716049382706,43.35802469135802,0)" xlink:href="#aP"/></g></defs></g></svg>