<svg xmlns="http://www.w3.org/2000/svg" xmlns:xlink="http://www.w3.org/1999/xlink" xmlns:lucid="lucid" width="856.12" height="747.84"><g transform="translate(-280 183.49999999999994)" lucid:page-tab-id="0_0"><path d="M543.88-115.24H1060V180H543.88z" fill-opacity="0"/><path d="M564.12-115.24h20.24m10.12 0h20.24m10.12 0h20.24m10.12 0h20.24m10.12 0h20.24m10.12 0h20.24m10.12 0h20.24m10.12 0h20.24m10.12 0h20.24m10.12 0h20.24m10.12 0h20.24m10.12 0h20.24m10.12 0h20.24m10.12 0h20.24m10.12 0h20.24m10.12 0h20.24m10.12 0H1060v9.84m0 9.84v19.68m0 9.84v19.7m0 9.83v19.67m0 9.84v19.7m0 9.84v19.68m0 9.84v19.68m0 9.85v19.67m0 9.84v19.7m0 9.83v19.7m0 9.83V180h-10.12m-10.12 0h-20.24m-10.12 0h-20.24m-10.12 0H958.8m-10.12 0h-20.24m-10.12 0h-20.24m-10.12 0h-20.24m-10.12 0h-20.24m-10.12 0H807m-10.12 0h-20.24m-10.12 0h-20.24m-10.12 0h-20.24m-10.12 0h-20.24m-10.12 0H655.2m-10.12 0h-20.24m-10.12 0h-20.24m-10.12 0h-20.24M554 180h-10.12v-9.84m0-9.84v-19.7m0-9.83v-19.7m0-9.83V81.6m0-9.86V52.06m0-9.84V22.54m0-9.84V-7m0-9.83V-36.5m0-9.85v-19.7m0-9.83v-19.68m0-9.84v-9.84H554" stroke="#d86613" stroke-width="2" fill="none"/><path d="M543.88-174a6 6 0 0 1 6-6H1054a6 6 0 0 1 6 6v52.76a6 6 0 0 1-6 6H549.88a6 6 0 0 1-6-6z" fill="#fff" fill-opacity="0"/><use xlink:href="#a" transform="matrix(1,0,0,1,548.8805970149253,-175) translate(195.36111111111114 40.770833333333314)"/><path d="M543.88-166a14 14 0 0 1 14-14H1046a14 14 0 0 1 14 14v512a14 14 0 0 1-14 14H557.88a14 14 0 0 1-14-14z" stroke="#d86613" stroke-width="7" fill-opacity="0"/><path d="M800-54a6 6 0 0 1 6-6h208a6 6 0 0 1 6 6v192.05a6 6 0 0 1-6 6H806a6 6 0 0 1-6-6z" stroke="#d86613" stroke-width="5" fill-opacity="0"/><path d="M543.88-109.24a6 6 0 0 1 6-6H1054a6 6 0 0 1 6 6v52.75a6 6 0 0 1-6 6H549.88a6 6 0 0 1-6-6z" fill="#fff" fill-opacity="0"/><use xlink:href="#b" transform="matrix(1,0,0,1,548.8805970149253,-110.24313782848226) translate(0 35.319444444444436)"/><use xlink:href="#c" transform="matrix(1,0,0,1,548.8805970149253,-110.24313782848226) translate(191.50617283950606 35.319444444444436)"/><path d="M540 186a6 6 0 0 1 6-6h584.12a6 6 0 0 1 6 6v32.76a6 6 0 0 1-6 6H546a6 6 0 0 1-6-6z" fill="#fff" fill-opacity="0"/><use xlink:href="#d" transform="matrix(1,0,0,1,545,185) translate(0 30.631944444444436)"/><path d="M846.55 290.84h-89.22c-1.03 0-1.96-.87-1.96-2V244.3c0-1.13.93-2 1.96-2h89.22c1.03 0 1.96.88 1.96 2v44.55c0 1.12-.92 2-1.95 2zm-87.17-3.98h85.12v-40.58h-85.12zM810.24 237.9c-.83-3.04-3-5.24-6.07-6.06-4.58-1.23-9.3 1.48-10.52 6.06l-3.84-1.05c1.78-6.7 8.65-10.7 15.34-8.92 4.5 1.2 7.74 4.42 8.93 8.92z" stroke="#fff" stroke-opacity="0" fill="#3f8624"/><path d="M816.86 233.84c-1.7-3.94-4.53-6.74-8.46-8.44-8.2-3.55-17.73.23-21.3 8.44l-3.63-1.56c4.34-10.25 16.17-15.02 26.4-10.68 5.02 2.14 8.58 5.67 10.7 10.68zM801.94 305.57c-5.77.02-10.65-3.7-12.13-9.28l3.85-1.02c.82 3.05 3 5.24 6.06 6.06 4.6 1.24 9.3-1.47 10.53-6.06l3.84 1c-1.48 5.6-6.36 9.3-12.13 9.3z" stroke="#fff" stroke-opacity="0" fill="#3f8624"/><path d="M801.94 313.13c-8.3 0-15.33-4.64-18.55-12.26l3.66-1.57c1.7 3.95 4.48 6.74 8.44 8.44 8.18 3.56 17.73-.23 21.24-8.44l3.67 1.57c-3.2 7.6-10.2 12.24-18.46 12.26zM773.15 273.07c0 2.56-2.08 4.64-4.64 4.64-2.55 0-4.63-2.07-4.63-4.63s2.08-4.63 4.64-4.63c2.57 0 4.65 2.07 4.65 4.63z" stroke="#fff" stroke-opacity="0" fill="#3f8624"/><path d="M766.53 275.87h3.96v13h-3.97v-13zM775.96 256.4c0 2.57-2.08 4.64-4.63 4.64-2.57 0-4.64-2.07-4.64-4.63 0-2.55 2.06-4.63 4.63-4.63 2.55 0 4.63 2.08 4.63 4.64z" stroke="#fff" stroke-opacity="0" fill="#3f8624"/><path d="M785.35 288.86h-3.95v-19.6l-10.6-10.56 2.82-2.8 11.73 11.7v21.26zM841.08 268.55h-15.12v-15.1h15.12zm-11.16-3.95h7.2v-7.2h-7.2zM818.64 261c0 2.56-2.07 4.64-4.63 4.64-2.55 0-4.63-2.08-4.63-4.63 0-2.56 2.08-4.63 4.64-4.63 2.57 0 4.64 2.07 4.64 4.63z" stroke="#fff" stroke-opacity="0" fill="#3f8624"/><path d="M814.94 259.02h13V263h-13V259zM812.14 277.73c0 2.56-2.07 4.63-4.63 4.63-2.55 0-4.63-2.07-4.63-4.63s2.08-4.64 4.64-4.64c2.57 0 4.64 2.07 4.64 4.63z" stroke="#fff" stroke-opacity="0" fill="#3f8624"/><path d="M811.23 275.75h35.3v3.96h-35.3v-3.95zM801.94 265.64c0 2.56-2.08 4.64-4.64 4.64-2.56 0-4.63-2.08-4.63-4.64 0-2.56 2.07-4.63 4.63-4.63s4.64 2.08 4.64 4.64z" stroke="#fff" stroke-opacity="0" fill="#3f8624"/><path d="M795 266.16l-11.7-11.72-.07-10.13 3.97-.04.03 8.54 10.6 10.55-2.83 2.8z" stroke="#fff" stroke-opacity="0" fill="#3f8624"/><path d="M801.73 280.93c9.62 0 17.42 6.82 17.42 15.22s-7.8 15.22-17.42 15.22c-9.62 0-17.42-6.82-17.42-15.22s7.8-15.22 17.43-15.22zM801.73 221.94c9.62 0 17.42 6.8 17.42 15.2 0 8.4-7.8 15.23-17.42 15.23-9.62 0-17.42-6.82-17.42-15.22s7.8-15.2 17.43-15.2z" stroke="#fff" stroke-opacity="0" stroke-width=".37" fill="#fff" fill-opacity="0"/><use xlink:href="#e" transform="matrix(1,0,0,1,725.3731343283581,322.13432835820896) translate(3.6370370370371177 17.066666666666652)"/><use xlink:href="#f" transform="matrix(1,0,0,1,725.3731343283581,322.13432835820896) translate(62.718518518518536 17.066666666666652)"/><path d="M653.13 439.93h-10.6v6.7h10.6V451h-10.6v6.6h10.6v4.47h-10.6v6.6h10.6v4.38h-10.6v6.7h10.6v4.37h-10.6v6.3c0 3.8-3 6.9-6.63 6.9h-6.05v11.08h-4.2v-11.07h-6.42v11.07h-4.2v-11.07h-6.32v11.07h-4.28v-11.07h-6.33v11.07h-4.2v-11.07h-6.42v11.07h-4.2v-11.07h-6.05c-3.63 0-6.6-3.1-6.6-6.9v-6.3H560v-4.38h10.62v-6.7H560v-4.37h10.62v-6.6H560v-4.48h10.62V451H560v-4.37h10.62v-6.7H560v-4.38h10.62v-6.3c0-3.8 2.98-6.9 6.6-6.9h6.06v-11.08h4.2v11.07h6.42v-11.07h4.2v11.07h6.32v-11.07h4.3v11.07h6.32v-11.07h4.2v11.07h6.42v-11.07h4.2v11.07h6.04c3.64 0 6.62 3.1 6.62 6.9v6.3h10.6zm-14.8 50.5v-61.2c0-1.35-1.12-2.52-2.43-2.52h-58.67c-1.3 0-2.42 1.18-2.42 2.54v61.2c0 1.36 1.13 2.52 2.43 2.52h58.67c1.3 0 2.43-1.16 2.43-2.52zm-23.3-22.82c2.7 2.53 4.2 6.03 4.2 9.82 0 4.08-1.67 7.77-4.65 10.3-2.24 1.94-5.13 3-8 3-.94 0-1.78-.1-2.7-.3-4.95-1.05-8.86-5.33-9.8-10.48-.83-4.66.75-9.22 4-12.33v-29.8c0-4.87 3.83-8.85 8.5-8.85 4.64 0 8.46 3.98 8.46 8.84zm-3.15 16.72c2.04-1.65 3.16-4.18 3.16-6.9 0-2.72-1.2-5.25-3.44-7l-.84-.67V437.8c0-2.44-1.86-4.48-4.2-4.48-2.32 0-4.18 2.04-4.18 4.47v31.95l-.84.68c-2.7 2.03-3.9 5.34-3.26 8.64.56 3.5 3.17 6.3 6.42 7 2.6.58 5.22-.1 7.18-1.75zm-3.17-13.12c2.43.97 4.2 3.4 4.2 6.22 0 3.7-2.8 6.7-6.33 6.7-3.54 0-6.34-3-6.34-6.7 0-2.82 1.77-5.25 4.2-6.22v-24.57h4.28zm10.53-31.27v-4.38h10.62v4.38zm0 17.67v-4.37h10.62v4.37zm0-8.84v-4.37h8.48v4.36zm0 17.68v-4.37h8.48v4.37zm-12.66 13.2c1.2 0 2.14-.96 2.14-2.22 0-1.17-.92-2.14-2.13-2.14-1.2 0-2.15.97-2.15 2.14 0 1.26.94 2.23 2.15 2.23z" stroke="#000" stroke-opacity="0" fill="#3f8624"/><use xlink:href="#g" transform="matrix(1,0,0,1,530,517.4053784509149) translate(22.946296296296296 17.955555555555552)"/><use xlink:href="#h" transform="matrix(1,0,0,1,530,517.4053784509149) translate(40.87067901234569 44.888888888888886)"/><path d="M706.73 453.94l-.1 1.23-.3 1.3-.52 1.22-.68 1.12-.87 1.02-1 .86-1.14.7-1.23.5-1.3.32-1.22.1H678v-4.96h20.16l.64-.05.54-.12.5-.2.48-.3.42-.36.36-.42.3-.46.2-.5.13-.55.05-.66V401.4h4.95zm23.8-184.9h-20.18l-.65.05-.53.12-.5.2-.48.3-.43.36-.36.42-.28.47-.2.5-.14.55-.05.64v107.4h-4.95v-107.6l.1-1.22.3-1.3.52-1.22.7-1.14.86-1 1-.88 1.14-.7 1.23-.5 1.3-.3 1.23-.1h20.36z" stroke="#3f8624" stroke-width=".05" fill="#3f8624"/><path d="M675.5 464.47l-14.28-4.63 14.27-4.64z" fill="#3f8624"/><path d="M677.97 467.88l-24.75-8.04 24.75-8.04zm-8.74-8.04l3.78 1.23v-2.46z" stroke="#3f8624" stroke-width=".05" fill="#3f8624"/><path d="M747.28 266.57l-14.26 4.63v-9.27z" fill="#3f8624"/><path d="M755.3 266.57l-24.76 8.04v-16.08zm-19.8 1.23l3.77-1.23-3.78-1.23z" stroke="#3f8624" stroke-width=".05" fill="#3f8624"/><use xlink:href="#i" transform="matrix(1,0,0,1,683.0438546209691,380.0556343441386) translate(0 14.222222222222223)"/><g stroke="#000" stroke-opacity="0" fill="#3f8624"><path d="M658.78 414.95c2.2 2.54 3.42 5.6 3.7 8.46l4.72 1.04c-.28-4.04-2.04-8.35-5.24-12.08-3.2-3.72-7.22-6.1-11.05-6.85l.32 4.82c2.52.4 5.37 2.1 7.56 4.63z"/><path d="M665 409.6c4.14 4.83 6.44 10.52 6.83 15.86l4.7 1.03c-.42-6.5-3.22-13.45-8.4-19.46-5.17-6-11.56-9.87-17.9-11.27l.35 4.86c4.97 1.03 10.25 4.15 14.4 8.98z"/><path d="M671.24 404.22c6.2 7.2 9.58 15.57 10.08 23.17l4.7 1.02c-.6-8.9-4.6-18.6-11.7-26.85-7.1-8.26-16-13.56-24.74-15.5l.36 4.87c7.5 1.58 15.22 6.2 21.3 13.28zM655.85 417.62c1.85 2.16 2.07 5.08.45 6.46-1.6 1.4-4.48.77-6.34-1.4-1.86-2.15-2.07-5.06-.44-6.47 1.62-1.38 4.47-.74 6.33 1.42z"/></g><path d="M800-54a6 6 0 0 1 6-6h208a6 6 0 0 1 6 6v36.57a6 6 0 0 1-6 6H806a6 6 0 0 1-6-6z" fill="#fff" fill-opacity="0"/><path d="M803.28-59.35l.87-.36.9-.23.95-.07h2.97m3.96 0h5.95m3.96 0h5.94m3.96 0h5.95m3.95 0h5.94m3.95 0h5.95m3.96 0h5.94m3.96 0h5.94m3.97 0h5.94m3.97 0h5.94m3.98 0h5.94m3.96 0h5.94m3.97 0h5.93m3.96 0h5.93m3.97 0h5.94m3.96 0h5.94m3.97 0h5.95m3.96 0h5.95m3.96 0h5.96m3.96 0h5.94m3.96 0h5.95m3.96 0h2.97l.94.07.9.22.88.35m2.63 2.63l.36.87.23.9.07.95v2.74m0 3.66v5.48m0 3.66v5.5m0 3.64v5.5m0 3.64v2.75l-.07.94-.22.92-.35.87m-2.63 2.6l-.87.37-.9.22-.95.07h-2.97m-3.96 0h-5.95m-3.96 0h-5.94m-3.96 0h-5.95m-3.95 0h-5.94m-3.95 0h-5.95m-3.96 0h-5.94m-3.96 0h-5.94m-3.97 0h-5.94m-3.97 0h-5.94m-3.98 0h-5.94m-3.96 0h-5.94m-3.97 0h-5.93m-3.96 0h-5.93m-3.97 0h-5.94m-3.96 0h-5.94m-3.97 0h-5.95m-3.96 0h-5.95m-3.96 0h-5.96m-3.96 0h-5.94m-3.96 0h-5.95m-3.96 0H806l-.94-.08-.9-.23-.88-.36m-2.63-2.6l-.36-.88-.23-.9-.07-.95v-2.75m0-3.65v-5.5m0-3.64v-5.5m0-3.65v-5.48m0-3.66V-54l.07-.94.22-.9.35-.88" stroke="#d86613" stroke-width="2" fill="none"/><use xlink:href="#j" transform="matrix(1,0,0,1,805,-55) translate(67.08333333333334 29.104166666666657)"/><path d="M967.6 70.48H862.3c-1.2 0-2.3-1.05-2.3-2.32V2.33c0-1.27 1.1-2.33 2.3-2.33h105.3c1.22 0 2.32 1.06 2.32 2.33v65.83c0 1.27-1.1 2.33-2.3 2.33zm-102.87-4.65H965.2V4.65H864.72z" stroke="#fff" stroke-opacity="0" fill="#3f8624"/><path d="M873.17 11.12h4.67V59.4h-4.67V11.1zM886.3 11.12h4.7V59.4h-4.7V11.1zM899.48 11.12h4.67V59.4h-4.67V11.1zM912.62 11.12h4.68V59.4h-4.68V11.1zM925.8 11.12h4.67V59.4h-4.68V11.1zM938.93 11.12h4.68V59.4h-4.67V11.1zM952.1 11.12h4.67V59.4h-4.67V11.1z" stroke="#fff" stroke-opacity="0" fill="#3f8624"/><use xlink:href="#k" transform="matrix(1,0,0,1,830,79.4854224198748) translate(9.049382716049394 14.222222222222221)"/><use xlink:href="#l" transform="matrix(1,0,0,1,830,79.4854224198748) translate(105.64197530864197 14.222222222222221)"/><path d="M364.6-19.3l4.57.66 3.77.65 3.44 1 4.74 1.72 3.76 1.74 5.24 3.05 3.44 2.6 3.76 3.5 3.1 3.36 2.8 3.58 2.44 3.8 2.46 5 1.63 4.68 1.15 3.48.65 2.6 2.62.44 4.42.87 4.08 1.42 5.24 2.72 3.92 2.93 2.95 2.83 3.43 4.12 1.96 3.6 1.62 3.8 1.3 4.88.5 4.46-.16 4.9-.33 3.03-1.14 4-1.5 3.6-1.62 3.25-2.45 3.37-2.46 2.94-3.44 2.93-4.1 2.7-3.75 1.74-3.76 1.3-4.1 1-3.76.42h-93.43l-5.72-.87-6.05-1.75-6.38-3.15-4.74-3.37-4.9-4.9-2.96-3.8-2.3-3.8-2.12-4.77-1.47-5.33-.82-4.56-.16-4.13.16-4.67.66-3.26 1.47-5.75 2.28-5.32 3.44-5.54 3.76-4.36 5.07-4.13 5.08-3.03 4.9-2.07 4.6-1.2 4.08-.64 1.48-.1 2.45-4.8 4.1-5.54 3.92-4.12 4.58-3.92 4.1-2.7 4.4-2.3 3.94-1.73 5.07-1.63 4.75-.87 5.22-.55zm-9 14.46l-4.42.86-3.44 1.2-3.27 1.3-3.44 1.96-2.78 1.85-3.1 2.6-3.12 3.16-1.96 2.92-1.47 2.28-1.8 3.7-1.3 4.34h-6.72l-4.9.76-4.26 1.42-3.93 2.06-3.77 2.72-3.44 3.58-2.63 4.02-2.13 5.1-.8 3.7-.34 3.8.16 3.6.66 3.58 1.47 3.8 1.95 3.7 2.46 3.04 2.8 2.7 3.42 2.4 2.95 1.63 3.27 1.2 3.28.76 3.27.44h91.94l2.46-.2 2.3-.56 3.43-1.4 2.94-1.75 2.62-2.28 2.12-2.72 1.96-3.7.98-3.03.33-2.83.15-2.82-.32-1.96-.5-2.94-1.3-2.93-1-1.85-1.46-2.07-2.45-2.6-3.1-2.17-2.96-1.52-3.1-.97-3.12-.32h-11.12l-.17-4.77-.32-3.6-.82-4.23-1.3-3.9-1.96-4.25-1.8-2.93-1.8-2.6-3.1-3.27-2.96-2.4L382.1.7l-2.94-1.74-2.8-1.2-3.1-1.2-3.92-1.08-5.4-.76h-3.44z" fill="#5c85de"/><use xlink:href="#m" transform="matrix(1,0,0,1,280,94.36161365725131) translate(13.950617283950649 28.444444444444436)"/><path d="M715.34 66.96h-93.3c-1.07 0-2.04-.93-2.04-2.06V6.58c0-1.13.97-2.06 2.04-2.06h93.3c1.07 0 2.04.93 2.04 2.06V64.9c0 1.13-.97 2.06-2.04 2.06zm-91.15-4.12h89V8.64h-89z" stroke="#fff" stroke-opacity="0" fill="#3f8624"/><path d="M631.66 14.36h4.15v42.78h-4.13V14.36zM643.3 14.36h4.15v42.78h-4.14V14.36zM654.98 14.36h4.14v42.78h-4.14V14.36zM666.62 14.36h4.14v42.78h-4.14V14.36zM678.3 14.36h4.13v42.78h-4.14V14.36zM689.93 14.36h4.14v42.78h-4.14V14.36zM701.6 14.36h4.14v42.78h-4.14V14.36z" stroke="#fff" stroke-opacity="0" fill="#3f8624"/><use xlink:href="#n" transform="matrix(1,0,0,1,590,75.96345543017696) translate(5.567901234567927 14.222222222222221)"/><use xlink:href="#o" transform="matrix(1,0,0,1,590,75.96345543017696) translate(83.44444444444444 14.222222222222221)"/><use xlink:href="#p" transform="matrix(1,0,0,1,590,75.96345543017696) translate(51.91358024691358 35.55555555555556)"/><path d="M595.14 35.74h-66.67a.35.35 0 0 1-.35-.35.35.35 0 0 0-.36-.37H461.1" stroke="#3f8624" stroke-width="5" fill="none"/><path d="M611.9 35.74l-14.26 4.63V31.1zM444.32 35.03l14.27-4.63v9.27z" stroke="#3f8624" stroke-width="5" fill="#3f8624"/><path d="M1005.25 32.86l1.3.3 1.22.53 1.13.68 1.02.86.86 1.02.7 1.13.5 1.22.32 1.3.1 1.23v219.5l-.1 1.24-.3 1.3-.52 1.22-.7 1.13-.86 1-1 .88-1.15.7-1.23.5-1.3.3-1.22.1H873.36v-4.94h130.46l.65-.06.54-.13.52-.2.47-.3.4-.35.36-.42.3-.47.2-.5.13-.54.04-.65V41.34l-.05-.65-.14-.54-.2-.5-.3-.48-.35-.42-.4-.36-.48-.3-.5-.2-.55-.13-.65-.05h-9.05v-4.95h9.25z" stroke="#3f8624" stroke-width=".05" fill="#3f8624"/><path d="M870.86 271.2l-14.26-4.63 14.26-4.64z" fill="#3f8624"/><path d="M873.34 274.6l-24.75-8.03 24.74-8.05zm-8.73-8.03l3.8 1.23v-2.46z" stroke="#3f8624" stroke-width=".05" fill="#3f8624"/><path d="M992.27 39.88L978 35.24l14.27-4.63z" fill="#3f8624"/><path d="M994.75 43.28L970 35.24l24.75-8.04zm-8.73-8.04l3.78 1.23V34z" stroke="#3f8624" stroke-width=".05" fill="#3f8624"/><path d="M835.14 35.24h-92.91" stroke="#3f8624" stroke-width="5" fill="none"/><path d="M851.9 35.24l-14.26 4.64V30.6zM725.48 35.24l14.26-4.63v9.28z" stroke="#3f8624" stroke-width="5" fill="#3f8624"/><defs><path fill="#d86613" d="M175 0L67-191c6 58 2 128 3 191H24v-248h59L193-55c-6-58-2-129-3-193h46V0h-61" id="q"/><path fill="#d86613" d="M110-194c64 0 96 36 96 99 0 64-35 99-97 99-61 0-95-36-95-99 0-62 34-99 96-99zm-1 164c35 0 45-28 45-65 0-40-10-65-43-65-34 0-45 26-45 65 0 36 10 65 43 65" id="r"/><path fill="#d86613" d="M88-194c31-1 46 15 58 34l-1-101h50l1 261h-48c-2-10 0-23-3-31C134-8 116 4 84 4 32 4 16-41 15-95c0-56 19-97 73-99zm17 164c33 0 40-30 41-66 1-37-9-64-41-64s-38 30-39 65c0 43 13 65 39 65" id="s"/><path fill="#d86613" d="M185-48c-13 30-37 53-82 52C43 2 14-33 14-96s30-98 90-98c62 0 83 45 84 108H66c0 31 8 55 39 56 18 0 30-7 34-22zm-45-69c5-46-57-63-70-21-2 6-4 13-4 21h74" id="t"/><g id="a"><use transform="matrix(0.12962962962962957,0,0,0.12962962962962957,0,0)" xlink:href="#q"/><use transform="matrix(0.12962962962962957,0,0,0.12962962962962957,33.574074074074055,0)" xlink:href="#r"/><use transform="matrix(0.12962962962962957,0,0,0.12962962962962957,61.96296296296293,0)" xlink:href="#s"/><use transform="matrix(0.12962962962962957,0,0,0.12962962962962957,90.3518518518518,0)" xlink:href="#t"/></g><path fill="#d86613" d="M194 0L95-120 63-95V0H30v-248h33v124l119-124h40L117-140 236 0h-42" id="u"/><path fill="#d86613" d="M84 4C-5 8 30-112 23-190h32v120c0 31 7 50 39 49 72-2 45-101 50-169h31l1 190h-30c-1-10 1-25-2-33-11 22-28 36-60 37" id="v"/><path fill="#d86613" d="M115-194c53 0 69 39 70 98 0 66-23 100-70 100C84 3 66-7 56-30L54 0H23l1-261h32v101c10-23 28-34 59-34zm-8 174c40 0 45-34 45-75 0-40-5-75-45-74-42 0-51 32-51 76 0 43 10 73 51 73" id="w"/><path fill="#d86613" d="M100-194c63 0 86 42 84 106H49c0 40 14 67 53 68 26 1 43-12 49-29l28 8c-11 28-37 45-77 45C44 4 14-33 15-96c1-61 26-98 85-98zm52 81c6-60-76-77-97-28-3 7-6 17-6 28h103" id="x"/><path fill="#d86613" d="M114-163C36-179 61-72 57 0H25l-1-190h30c1 12-1 29 2 39 6-27 23-49 58-41v29" id="y"/><path fill="#d86613" d="M117-194c89-4 53 116 60 194h-32v-121c0-31-8-49-39-48C34-167 62-67 57 0H25l-1-190h30c1 10-1 24 2 32 11-22 29-35 61-36" id="z"/><path fill="#d86613" d="M59-47c-2 24 18 29 38 22v24C64 9 27 4 27-40v-127H5v-23h24l9-43h21v43h35v23H59v120" id="A"/><path fill="#d86613" d="M135-143c-3-34-86-38-87 0 15 53 115 12 119 90S17 21 10-45l28-5c4 36 97 45 98 0-10-56-113-15-118-90-4-57 82-63 122-42 12 7 21 19 24 35" id="B"/><g id="b"><use transform="matrix(0.0987654320987654,0,0,0.0987654320987654,0,0)" xlink:href="#u"/><use transform="matrix(0.0987654320987654,0,0,0.0987654320987654,23.703703703703695,0)" xlink:href="#v"/><use transform="matrix(0.0987654320987654,0,0,0.0987654320987654,43.45679012345677,0)" xlink:href="#w"/><use transform="matrix(0.0987654320987654,0,0,0.0987654320987654,63.209876543209845,0)" xlink:href="#x"/><use transform="matrix(0.0987654320987654,0,0,0.0987654320987654,82.96296296296292,0)" xlink:href="#y"/><use transform="matrix(0.0987654320987654,0,0,0.0987654320987654,94.716049382716,0)" xlink:href="#z"/><use transform="matrix(0.0987654320987654,0,0,0.0987654320987654,114.46913580246907,0)" xlink:href="#x"/><use transform="matrix(0.0987654320987654,0,0,0.0987654320987654,134.22222222222214,0)" xlink:href="#A"/><use transform="matrix(0.0987654320987654,0,0,0.0987654320987654,144.09876543209867,0)" xlink:href="#x"/><use transform="matrix(0.0987654320987654,0,0,0.0987654320987654,163.85185185185176,0)" xlink:href="#B"/></g><path fill="#d86613" d="M87 75C49 33 22-17 22-94c0-76 28-126 65-167h31c-38 41-64 92-64 168S80 34 118 75H87" id="C"/><path fill="#d86613" d="M143 0L79-87 56-68V0H24v-261h32v163l83-92h37l-77 82L181 0h-38" id="D"/><path fill="#d86613" d="M126-127c33 6 58 20 58 59 0 88-139 92-164 29-3-8-5-16-6-25l32-3c6 27 21 44 54 44 32 0 52-15 52-46 0-38-36-46-79-43v-28c39 1 72-4 72-42 0-27-17-43-46-43-28 0-47 15-49 41l-32-3c6-42 35-63 81-64 48-1 79 21 79 65 0 36-21 52-52 59" id="E"/><path fill="#d86613" d="M33-261c38 41 65 92 65 168S71 34 33 75H2C39 34 66-17 66-93S39-220 2-261h31" id="F"/><g id="c"><use transform="matrix(0.0987654320987654,0,0,0.0987654320987654,0,0)" xlink:href="#C"/><use transform="matrix(0.0987654320987654,0,0,0.0987654320987654,11.753086419753082,0)" xlink:href="#D"/><use transform="matrix(0.0987654320987654,0,0,0.0987654320987654,29.530864197530853,0)" xlink:href="#E"/><use transform="matrix(0.0987654320987654,0,0,0.0987654320987654,49.283950617283935,0)" xlink:href="#B"/><use transform="matrix(0.0987654320987654,0,0,0.0987654320987654,67.0617283950617,0)" xlink:href="#F"/></g><path fill="#d86613" d="M197 0v-115H63V0H30v-248h33v105h134v-105h34V0h-34" id="G"/><path fill="#d86613" d="M141-36C126-15 110 5 73 4 37 3 15-17 15-53c-1-64 63-63 125-63 3-35-9-54-41-54-24 1-41 7-42 31l-33-3c5-37 33-52 76-52 45 0 72 20 72 64v82c-1 20 7 32 28 27v20c-31 9-61-2-59-35zM48-53c0 20 12 33 32 33 41-3 63-29 60-74-43 2-92-5-92 41" id="H"/><path fill="#d86613" d="M85-194c31 0 48 13 60 33l-1-100h32l1 261h-30c-2-10 0-23-3-31C134-8 116 4 85 4 32 4 16-35 15-94c0-66 23-100 70-100zm9 24c-40 0-46 34-46 75 0 40 6 74 45 74 42 0 51-32 51-76 0-42-9-74-50-73" id="I"/><path fill="#d86613" d="M206 0h-36l-40-164L89 0H53L-1-190h32L70-26l43-164h34l41 164 42-164h31" id="J"/><g id="d"><use transform="matrix(0.0987654320987654,0,0,0.0987654320987654,0,0)" xlink:href="#G"/><use transform="matrix(0.0987654320987654,0,0,0.0987654320987654,25.58024691358024,0)" xlink:href="#H"/><use transform="matrix(0.0987654320987654,0,0,0.0987654320987654,45.333333333333314,0)" xlink:href="#y"/><use transform="matrix(0.0987654320987654,0,0,0.0987654320987654,57.0864197530864,0)" xlink:href="#I"/><use transform="matrix(0.0987654320987654,0,0,0.0987654320987654,76.83950617283948,0)" xlink:href="#J"/><use transform="matrix(0.0987654320987654,0,0,0.0987654320987654,102.41975308641972,0)" xlink:href="#H"/><use transform="matrix(0.0987654320987654,0,0,0.0987654320987654,122.17283950617279,0)" xlink:href="#y"/><use transform="matrix(0.0987654320987654,0,0,0.0987654320987654,133.92592592592587,0)" xlink:href="#x"/></g><path fill="#2c3e50" d="M24 0v-248h52v208h133V0H24" id="K"/><path fill="#2c3e50" d="M110-194c64 0 96 36 96 99 0 64-35 99-97 99-61 0-95-36-95-99 0-62 34-99 96-99zm-1 164c35 0 45-28 45-65 0-40-10-65-43-65-34 0-45 26-45 65 0 36 10 65 43 65" id="L"/><path fill="#2c3e50" d="M240-174c0 40-23 61-54 70L253 0h-59l-57-94H76V0H24v-248c93 4 217-23 216 74zM76-134c48-2 112 12 112-38 0-48-66-32-112-35v73" id="M"/><path fill="#2c3e50" d="M133-34C117-15 103 5 69 4 32 3 11-16 11-54c-1-60 55-63 116-61 1-26-3-47-28-47-18 1-26 9-28 27l-52-2c7-38 36-58 82-57s74 22 75 68l1 82c-1 14 12 18 25 15v27c-30 8-71 5-69-32zm-48 3c29 0 43-24 42-57-32 0-66-3-65 30 0 17 8 27 23 27" id="N"/><g id="e"><use transform="matrix(0.059259259259259206,0,0,0.059259259259259206,0,0)" xlink:href="#K"/><use transform="matrix(0.059259259259259206,0,0,0.059259259259259206,12.977777777777765,0)" xlink:href="#L"/><use transform="matrix(0.059259259259259206,0,0,0.059259259259259206,25.95555555555553,0)" xlink:href="#M"/><use transform="matrix(0.059259259259259206,0,0,0.059259259259259206,41.30370370370366,0)" xlink:href="#N"/></g><path fill="#2c3e50" d="M67-125c0 54 23 88 75 88 28 0 53-7 68-21v-34h-60v-39h108v91C232-14 192 4 140 4 58 4 20-42 15-125 8-236 126-280 215-234c19 10 29 26 37 47l-47 15c-11-23-29-39-63-39-53 1-75 33-75 86" id="O"/><path fill="#2c3e50" d="M115-3C79 11 28 4 28-45v-112H4v-33h27l15-45h31v45h36v33H77v99c-1 23 16 31 38 25v30" id="P"/><path fill="#2c3e50" d="M185-48c-13 30-37 53-82 52C43 2 14-33 14-96s30-98 90-98c62 0 83 45 84 108H66c0 31 8 55 39 56 18 0 30-7 34-22zm-45-69c5-46-57-63-70-21-2 6-4 13-4 21h74" id="Q"/><path fill="#2c3e50" d="M231 0h-52l-39-155L100 0H48L-1-190h46L77-45c9-52 24-97 36-145h53l37 145 32-145h46" id="R"/><path fill="#2c3e50" d="M123 10C108 53 80 86 19 72V37c35 8 53-11 59-39L3-190h52l48 148c12-52 28-100 44-148h51" id="S"/><g id="f"><use transform="matrix(0.059259259259259206,0,0,0.059259259259259206,0,0)" xlink:href="#O"/><use transform="matrix(0.059259259259259206,0,0,0.059259259259259206,16.592592592592577,0)" xlink:href="#N"/><use transform="matrix(0.059259259259259206,0,0,0.059259259259259206,28.444444444444418,0)" xlink:href="#P"/><use transform="matrix(0.059259259259259206,0,0,0.059259259259259206,35.496296296296265,0)" xlink:href="#Q"/><use transform="matrix(0.059259259259259206,0,0,0.059259259259259206,47.348148148148105,0)" xlink:href="#R"/><use transform="matrix(0.059259259259259206,0,0,0.059259259259259206,63.94074074074069,0)" xlink:href="#N"/><use transform="matrix(0.059259259259259206,0,0,0.059259259259259206,75.79259259259251,0)" xlink:href="#S"/></g><path d="M24 0v-248h52v208h133V0H24" id="T"/><path d="M110-194c64 0 96 36 96 99 0 64-35 99-97 99-61 0-95-36-95-99 0-62 34-99 96-99zm-1 164c35 0 45-28 45-65 0-40-10-65-43-65-34 0-45 26-45 65 0 36 10 65 43 65" id="U"/><path d="M240-174c0 40-23 61-54 70L253 0h-59l-57-94H76V0H24v-248c93 4 217-23 216 74zM76-134c48-2 112 12 112-38 0-48-66-32-112-35v73" id="V"/><path d="M133-34C117-15 103 5 69 4 32 3 11-16 11-54c-1-60 55-63 116-61 1-26-3-47-28-47-18 1-26 9-28 27l-52-2c7-38 36-58 82-57s74 22 75 68l1 82c-1 14 12 18 25 15v27c-30 8-71 5-69-32zm-48 3c29 0 43-24 42-57-32 0-66-3-65 30 0 17 8 27 23 27" id="W"/><path d="M275 0h-61l-44-196L126 0H64L0-248h53L97-49l45-199h58l43 199 44-199h52" id="X"/><path d="M199 0l-22-63H83L61 0H9l90-248h61L250 0h-51zm-33-102l-36-108c-10 38-24 72-36 108h72" id="Y"/><path d="M175 0L67-191c6 58 2 128 3 191H24v-248h59L193-55c-6-58-2-129-3-193h46V0h-61" id="Z"/><g id="g"><use transform="matrix(0.06234567901234567,0,0,0.06234567901234567,0,0)" xlink:href="#T"/><use transform="matrix(0.06234567901234567,0,0,0.06234567901234567,13.653703703703702,0)" xlink:href="#U"/><use transform="matrix(0.06234567901234567,0,0,0.06234567901234567,27.307407407407403,0)" xlink:href="#V"/><use transform="matrix(0.06234567901234567,0,0,0.06234567901234567,43.45493827160493,0)" xlink:href="#W"/><use transform="matrix(0.06234567901234567,0,0,0.06234567901234567,55.92407407407406,0)" xlink:href="#X"/><use transform="matrix(0.06234567901234567,0,0,0.06234567901234567,75.81234567901234,0)" xlink:href="#Y"/><use transform="matrix(0.06234567901234567,0,0,0.06234567901234567,91.95987654320987,0)" xlink:href="#Z"/></g><path d="M24-248c120-7 223 5 221 122C244-46 201 0 124 0H24v-248zM76-40c74 7 117-18 117-86 0-67-45-88-117-82v168" id="aa"/><path d="M185-48c-13 30-37 53-82 52C43 2 14-33 14-96s30-98 90-98c62 0 83 45 84 108H66c0 31 8 55 39 56 18 0 30-7 34-22zm-45-69c5-46-57-63-70-21-2 6-4 13-4 21h74" id="ab"/><path d="M128 0H69L1-190h53L99-40l48-150h52" id="ac"/><path d="M25-224v-37h50v37H25zM25 0v-190h50V0H25" id="ad"/><path d="M190-63c-7 42-38 67-86 67-59 0-84-38-90-98-12-110 154-137 174-36l-49 2c-2-19-15-32-35-32-30 0-35 28-38 64-6 74 65 87 74 30" id="ae"/><g id="h"><use transform="matrix(0.06234567901234567,0,0,0.06234567901234567,0,0)" xlink:href="#aa"/><use transform="matrix(0.06234567901234567,0,0,0.06234567901234567,16.147530864197527,0)" xlink:href="#ab"/><use transform="matrix(0.06234567901234567,0,0,0.06234567901234567,28.61666666666666,0)" xlink:href="#ac"/><use transform="matrix(0.06234567901234567,0,0,0.06234567901234567,41.08580246913579,0)" xlink:href="#ad"/><use transform="matrix(0.06234567901234567,0,0,0.06234567901234567,47.320370370370355,0)" xlink:href="#ae"/><use transform="matrix(0.06234567901234567,0,0,0.06234567901234567,59.78950617283949,0)" xlink:href="#ab"/></g><path fill="#333" d="M30 0v-248h33v221h125V0H30" id="af"/><path fill="#333" d="M100-194c62-1 85 37 85 99 1 63-27 99-86 99S16-35 15-95c0-66 28-99 85-99zM99-20c44 1 53-31 53-75 0-43-8-75-51-75s-53 32-53 75 10 74 51 75" id="ag"/><path fill="#333" d="M233-177c-1 41-23 64-60 70L243 0h-38l-65-103H63V0H30v-248c88 3 205-21 203 71zM63-129c60-2 137 13 137-47 0-61-80-42-137-45v92" id="ah"/><path fill="#333" d="M141-36C126-15 110 5 73 4 37 3 15-17 15-53c-1-64 63-63 125-63 3-35-9-54-41-54-24 1-41 7-42 31l-33-3c5-37 33-52 76-52 45 0 72 20 72 64v82c-1 20 7 32 28 27v20c-31 9-61-2-59-35zM48-53c0 20 12 33 32 33 41-3 63-29 60-74-43 2-92-5-92 41" id="ai"/><g id="i"><use transform="matrix(0.04938271604938272,0,0,0.04938271604938272,0,0)" xlink:href="#af"/><use transform="matrix(0.04938271604938272,0,0,0.04938271604938272,9.876543209876544,0)" xlink:href="#ag"/><use transform="matrix(0.04938271604938272,0,0,0.04938271604938272,19.75308641975309,0)" xlink:href="#ah"/><use transform="matrix(0.04938271604938272,0,0,0.04938271604938272,32.543209876543216,0)" xlink:href="#ai"/></g><path fill="#d86613" d="M266 0h-40l-56-210L115 0H75L2-248h35L96-30l15-64 43-154h32l59 218 59-218h35" id="aj"/><path fill="#d86613" d="M30 0v-248h187v28H63v79h144v27H63v87h162V0H30" id="ak"/><path fill="#d86613" d="M185-189c-5-48-123-54-124 2 14 75 158 14 163 119 3 78-121 87-175 55-17-10-28-26-33-46l33-7c5 56 141 63 141-1 0-78-155-14-162-118-5-82 145-84 179-34 5 7 8 16 11 25" id="al"/><g id="j"><use transform="matrix(0.09259259259259256,0,0,0.09259259259259256,0,0)" xlink:href="#aj"/><use transform="matrix(0.09259259259259256,0,0,0.09259259259259256,31.38888888888888,0)" xlink:href="#ak"/><use transform="matrix(0.09259259259259256,0,0,0.09259259259259256,53.61111111111109,0)" xlink:href="#al"/></g><path fill="#3a414a" d="M67-125c0 53 21 87 73 88 37 1 54-22 65-47l45 17C233-25 199 4 140 4 58 4 20-42 15-125 8-235 124-281 211-232c18 10 29 29 36 50l-46 12c-8-25-30-41-62-41-52 0-71 34-72 86" id="am"/><path fill="#3a414a" d="M114-157C55-157 80-60 75 0H25v-261h50l-1 109c12-26 28-41 61-42 86-1 58 113 63 194h-50c-7-57 23-157-34-157" id="an"/><path fill="#3a414a" d="M25-224v-37h50v37H25zM25 0v-190h50V0H25" id="ao"/><path fill="#3a414a" d="M135-150c-39-12-60 13-60 57V0H25l-1-190h47c2 13-1 29 3 40 6-28 27-53 61-41v41" id="ap"/><path fill="#3a414a" d="M135-194c53 0 70 44 70 98 0 56-19 98-73 100-31 1-45-17-59-34 3 33 2 69 2 105H25l-1-265h48c2 10 0 23 3 31 11-24 29-35 60-35zM114-30c33 0 39-31 40-66 0-38-9-64-40-64-56 0-55 130 0 130" id="aq"/><path fill="#3a414a" d="M137-138c1-29-70-34-71-4 15 46 118 7 119 86 1 83-164 76-172 9l43-7c4 19 20 25 44 25 33 8 57-30 24-41C81-84 22-81 20-136c-2-80 154-74 161-7" id="ar"/><path fill="#3a414a" d="M115-3C79 11 28 4 28-45v-112H4v-33h27l15-45h31v45h36v33H77v99c-1 23 16 31 38 25v30" id="as"/><path fill="#3a414a" d="M133-34C117-15 103 5 69 4 32 3 11-16 11-54c-1-60 55-63 116-61 1-26-3-47-28-47-18 1-26 9-28 27l-52-2c7-38 36-58 82-57s74 22 75 68l1 82c-1 14 12 18 25 15v27c-30 8-71 5-69-32zm-48 3c29 0 43-24 42-57-32 0-66-3-65 30 0 17 8 27 23 27" id="at"/><path fill="#3a414a" d="M190-63c-7 42-38 67-86 67-59 0-84-38-90-98-12-110 154-137 174-36l-49 2c-2-19-15-32-35-32-30 0-35 28-38 64-6 74 65 87 74 30" id="au"/><path fill="#3a414a" d="M147 0L96-86 75-71V0H25v-261h50v150l67-79h53l-66 74L201 0h-54" id="av"/><g id="k"><use transform="matrix(0.049382716049382706,0,0,0.049382716049382706,0,0)" xlink:href="#am"/><use transform="matrix(0.049382716049382706,0,0,0.049382716049382706,12.790123456790122,0)" xlink:href="#an"/><use transform="matrix(0.049382716049382706,0,0,0.049382716049382706,23.604938271604937,0)" xlink:href="#ao"/><use transform="matrix(0.049382716049382706,0,0,0.049382716049382706,28.54320987654321,0)" xlink:href="#ap"/><use transform="matrix(0.049382716049382706,0,0,0.049382716049382706,35.456790123456784,0)" xlink:href="#aq"/><use transform="matrix(0.049382716049382706,0,0,0.049382716049382706,46.271604938271594,0)" xlink:href="#ar"/><use transform="matrix(0.049382716049382706,0,0,0.049382716049382706,56.14814814814814,0)" xlink:href="#as"/><use transform="matrix(0.049382716049382706,0,0,0.049382716049382706,62.02469135802468,0)" xlink:href="#at"/><use transform="matrix(0.049382716049382706,0,0,0.049382716049382706,71.90123456790123,0)" xlink:href="#au"/><use transform="matrix(0.049382716049382706,0,0,0.049382716049382706,81.77777777777777,0)" xlink:href="#av"/></g><path fill="#3a414a" d="M169-182c-1-43-94-46-97-3 18 66 151 10 154 114 3 95-165 93-204 36-6-8-10-19-12-30l50-8c3 46 112 56 116 5-17-69-150-10-154-114-4-87 153-88 188-35 5 8 8 18 10 28" id="aw"/><path fill="#3a414a" d="M185-48c-13 30-37 53-82 52C43 2 14-33 14-96s30-98 90-98c62 0 83 45 84 108H66c0 31 8 55 39 56 18 0 30-7 34-22zm-45-69c5-46-57-63-70-21-2 6-4 13-4 21h74" id="ax"/><path fill="#3a414a" d="M128 0H69L1-190h53L99-40l48-150h52" id="ay"/><g id="l"><use transform="matrix(0.049382716049382706,0,0,0.049382716049382706,0,0)" xlink:href="#aw"/><use transform="matrix(0.049382716049382706,0,0,0.049382716049382706,11.85185185185185,0)" xlink:href="#ax"/><use transform="matrix(0.049382716049382706,0,0,0.049382716049382706,21.728395061728392,0)" xlink:href="#ap"/><use transform="matrix(0.049382716049382706,0,0,0.049382716049382706,28.64197530864197,0)" xlink:href="#ay"/><use transform="matrix(0.049382716049382706,0,0,0.049382716049382706,38.51851851851851,0)" xlink:href="#ax"/><use transform="matrix(0.049382716049382706,0,0,0.049382716049382706,48.39506172839505,0)" xlink:href="#ap"/></g><path fill="#3a414a" d="M182-130c37 4 62 22 62 59C244 23 116-4 24 0v-248c84 5 203-23 205 63 0 31-19 50-47 55zM76-148c40-3 101 13 101-30 0-44-60-28-101-31v61zm0 110c48-3 116 14 116-37 0-48-69-32-116-35v72" id="az"/><g id="m"><use transform="matrix(0.0987654320987654,0,0,0.0987654320987654,0,0)" xlink:href="#az"/><use transform="matrix(0.0987654320987654,0,0,0.0987654320987654,25.58024691358024,0)" xlink:href="#ax"/><use transform="matrix(0.0987654320987654,0,0,0.0987654320987654,45.333333333333314,0)" xlink:href="#ax"/><use transform="matrix(0.0987654320987654,0,0,0.0987654320987654,65.08641975308639,0)" xlink:href="#an"/><use transform="matrix(0.0987654320987654,0,0,0.0987654320987654,86.71604938271601,0)" xlink:href="#ao"/><use transform="matrix(0.0987654320987654,0,0,0.0987654320987654,96.59259259259255,0)" xlink:href="#ay"/><use transform="matrix(0.0987654320987654,0,0,0.0987654320987654,116.34567901234561,0)" xlink:href="#ax"/></g><path fill="#3a414a" d="M24 0v-248h52v208h133V0H24" id="aA"/><path fill="#3a414a" d="M110-194c64 0 96 36 96 99 0 64-35 99-97 99-61 0-95-36-95-99 0-62 34-99 96-99zm-1 164c35 0 45-28 45-65 0-40-10-65-43-65-34 0-45 26-45 65 0 36 10 65 43 65" id="aB"/><path fill="#3a414a" d="M231 0h-52l-39-155L100 0H48L-1-190h46L77-45c9-52 24-97 36-145h53l37 145 32-145h46" id="aC"/><path fill="#3a414a" d="M135-194c87-1 58 113 63 194h-50c-7-57 23-157-34-157-59 0-34 97-39 157H25l-1-190h47c2 12-1 28 3 38 12-26 28-41 61-42" id="aD"/><g id="n"><use transform="matrix(0.049382716049382706,0,0,0.049382716049382706,0,0)" xlink:href="#aA"/><use transform="matrix(0.049382716049382706,0,0,0.049382716049382706,10.814814814814813,0)" xlink:href="#aB"/><use transform="matrix(0.049382716049382706,0,0,0.049382716049382706,21.629629629629626,0)" xlink:href="#ap"/><use transform="matrix(0.049382716049382706,0,0,0.049382716049382706,28.543209876543205,0)" xlink:href="#at"/><use transform="matrix(0.049382716049382706,0,0,0.049382716049382706,38.419753086419746,0)" xlink:href="#aC"/><use transform="matrix(0.049382716049382706,0,0,0.049382716049382706,52.246913580246904,0)" xlink:href="#at"/><use transform="matrix(0.049382716049382706,0,0,0.049382716049382706,62.12345679012344,0)" xlink:href="#aD"/></g><g id="o"><use transform="matrix(0.049382716049382706,0,0,0.049382716049382706,0,0)" xlink:href="#aA"/><use transform="matrix(0.049382716049382706,0,0,0.049382716049382706,10.814814814814813,0)" xlink:href="#ao"/><use transform="matrix(0.049382716049382706,0,0,0.049382716049382706,15.753086419753084,0)" xlink:href="#ar"/><use transform="matrix(0.049382716049382706,0,0,0.049382716049382706,25.629629629629626,0)" xlink:href="#as"/><use transform="matrix(0.049382716049382706,0,0,0.049382716049382706,31.506172839506167,0)" xlink:href="#ax"/><use transform="matrix(0.049382716049382706,0,0,0.049382716049382706,41.38271604938271,0)" xlink:href="#aD"/><use transform="matrix(0.049382716049382706,0,0,0.049382716049382706,52.19753086419752,0)" xlink:href="#ax"/><use transform="matrix(0.049382716049382706,0,0,0.049382716049382706,62.07407407407406,0)" xlink:href="#ap"/></g><path fill="#3a414a" d="M24-248c93 1 206-16 204 79-1 75-69 88-152 82V0H24v-248zm52 121c47 0 100 7 100-41 0-47-54-39-100-39v80" id="aE"/><path fill="#3a414a" d="M25 0v-261h50V0H25" id="aF"/><path fill="#3a414a" d="M85 4C-2 5 27-109 22-190h50c7 57-23 150 33 157 60-5 35-97 40-157h50l1 190h-47c-2-12 1-28-3-38-12 25-28 42-61 42" id="aG"/><path fill="#3a414a" d="M195-6C206 82 75 100 31 46c-4-6-6-13-8-21l49-6c3 16 16 24 34 25 40 0 42-37 40-79-11 22-30 35-61 35-53 0-70-43-70-97 0-56 18-96 73-97 30 0 46 14 59 34l2-30h47zm-90-29c32 0 41-27 41-63 0-35-9-62-40-62-32 0-39 29-40 63 0 36 9 62 39 62" id="aH"/><g id="p"><use transform="matrix(0.049382716049382706,0,0,0.049382716049382706,0,0)" xlink:href="#aE"/><use transform="matrix(0.049382716049382706,0,0,0.049382716049382706,11.85185185185185,0)" xlink:href="#aF"/><use transform="matrix(0.049382716049382706,0,0,0.049382716049382706,16.79012345679012,0)" xlink:href="#aG"/><use transform="matrix(0.049382716049382706,0,0,0.049382716049382706,27.604938271604933,0)" xlink:href="#aH"/><use transform="matrix(0.049382716049382706,0,0,0.049382716049382706,38.419753086419746,0)" xlink:href="#ao"/><use transform="matrix(0.049382716049382706,0,0,0.049382716049382706,43.35802469135802,0)" xlink:href="#aD"/></g></defs></g></svg>