<svg xmlns="http://www.w3.org/2000/svg" xmlns:xlink="http://www.w3.org/1999/xlink" xmlns:lucid="lucid" width="1383.51" height="1159.43"><g transform="translate(-259.99272777667744 203.5)" lucid:page-tab-id="0_0"><path d="M620-100h1000v520H620z" fill-opacity="0"/><path d="M640.2-100h20.2m10.1 0h20.2m10.1 0H721m10.1 0h20.2m10.1 0h20.22m10.1 0h20.2m10.1 0h20.2m10.1 0h20.2m10.1 0h20.2m10.1 0h20.2m10.1 0h20.2m10.12 0h20.2m10.1 0h20.2m10.1 0h20.2m10.1 0h20.2m10.1 0h20.2m10.1 0h20.2m10.1 0h20.22m10.1 0h20.2m10.1 0h20.2m10.1 0h20.2m10.1 0h20.2m10.1 0h20.2m10.1 0h20.2m10.12 0h20.2m10.1 0h20.2m10.1 0h20.2m10.1 0h20.2m10.1 0h20.2m10.1 0h20.2m10.1 0h20.2m10.12 0h20.2m10.1 0h10.1v10.2m0 10.2v20.38m0 10.2v20.4m0 10.2V1.95m0 10.2v20.4m0 10.18v20.4m0 10.2V93.7m0 10.2v20.4m0 10.2v20.38m0 10.2v20.4m0 10.2v20.38m0 10.2v20.4m0 10.18v20.4m0 10.2v20.38m0 10.2v20.4m0 10.2V369m0 10.2v20.4m0 10.18V420h-10.1m-10.1 0h-20.2m-10.1 0h-20.2m-10.1 0H1519m-10.1 0h-20.2m-10.1 0h-20.22m-10.1 0h-20.2m-10.1 0h-20.2m-10.1 0h-20.2m-10.1 0h-20.2m-10.1 0h-20.2m-10.1 0h-20.2m-10.12 0h-20.2m-10.1 0h-20.2m-10.1 0h-20.2m-10.1 0h-20.2m-10.1 0h-20.2m-10.1 0h-20.2m-10.1 0h-20.22m-10.1 0h-20.2m-10.1 0h-20.2m-10.1 0h-20.2m-10.1 0h-20.2m-10.1 0h-20.2m-10.1 0h-20.2m-10.12 0h-20.2m-10.1 0h-20.2m-10.1 0h-20.2m-10.1 0h-20.2m-10.1 0h-20.2m-10.1 0h-20.2m-10.1 0H670.5m-10.1 0h-20.2m-10.1 0H620v-10.2m0-10.2v-20.38m0-10.2v-20.4m0-10.2v-20.38m0-10.2v-20.4m0-10.2v-20.38m0-10.2V226.3m0-10.2v-20.4m0-10.2V165.1m0-10.2v-20.4m0-10.2v-20.38m0-10.2v-20.4m0-10.18v-20.4m0-10.2V12.17m0-10.2v-20.4m0-10.2V-49m0-10.2v-20.4m0-10.18V-100h10.1" stroke="#d86613" stroke-width="2" fill="none"/><path d="M780-14a6 6 0 0 1 6-6h808a6 6 0 0 1 6 6v388a6 6 0 0 1-6 6H786a6 6 0 0 1-6-6z" stroke="#d86613" stroke-width="5" fill-opacity="0"/><path d="M620-174a6 6 0 0 1 6-6h988a6 6 0 0 1 6 6v68a6 6 0 0 1-6 6H626a6 6 0 0 1-6-6z" fill="#fff" fill-opacity="0"/><use xlink:href="#a" transform="matrix(1,0,0,1,625,-175) translate(436.86111111111114 43.895833333333314)"/><path d="M620-166a14 14 0 0 1 14-14h972a14 14 0 0 1 14 14v852a14 14 0 0 1-14 14H634a14 14 0 0 1-14-14z" stroke="#d86613" stroke-width="7" fill-opacity="0"/><path d="M620-94a6 6 0 0 1 6-6h988a6 6 0 0 1 6 6v68a6 6 0 0 1-6 6H626a6 6 0 0 1-6-6z" fill="#fff" fill-opacity="0"/><use xlink:href="#b" transform="matrix(1,0,0,1,625,-95) translate(0 41.569444444444436)"/><use xlink:href="#c" transform="matrix(1,0,0,1,625,-95) translate(191.50617283950606 41.569444444444436)"/><path d="M620 426a6 6 0 0 1 6-6h988a6 6 0 0 1 6 6v68a6 6 0 0 1-6 6H626a6 6 0 0 1-6-6z" fill="#fff" fill-opacity="0"/><use xlink:href="#d" transform="matrix(1,0,0,1,625,425) translate(0 41.569444444444436)"/><path d="M1177.48 606.2h-114.96c-1.32 0-2.52-1.13-2.52-2.57v-57.4c0-1.45 1.2-2.58 2.52-2.58h114.96c1.32 0 2.52 1.13 2.52 2.57v57.4c0 1.45-1.2 2.58-2.52 2.58zm-112.32-5.13h109.68v-52.3h-109.68zM1130.7 537.98c-1.08-3.92-3.9-6.75-7.83-7.8-5.9-1.6-11.96 1.9-13.56 7.8l-4.93-1.35c2.3-8.63 11.13-13.78 19.76-11.5 5.78 1.54 9.96 5.7 11.5 11.5z" stroke="#fff" stroke-opacity="0" fill="#3f8624"/><path d="M1139.22 532.75c-2.2-5.08-5.83-8.68-10.9-10.88-10.56-4.56-22.84.3-27.43 10.88l-4.7-2c5.6-13.2 20.84-19.36 34.03-13.76 6.46 2.73 11.05 7.28 13.77 13.74zM1120 625.16c-7.44.03-13.72-4.75-15.63-11.95l4.94-1.28c1.08 3.92 3.9 6.74 7.83 7.8 5.9 1.6 11.96-1.9 13.56-7.8l4.93 1.3c-1.9 7.2-8.2 11.97-15.63 11.94z" stroke="#fff" stroke-opacity="0" fill="#3f8624"/><path d="M1120 634.92c-10.7 0-19.75-6-23.9-15.8l4.72-2.02c2.2 5.08 5.78 8.68 10.88 10.87 10.54 4.58 22.84-.3 27.37-10.87l4.73 2c-4.15 9.8-13.17 15.78-23.8 15.82zM1082.9 583.3c0 3.3-2.67 5.97-5.97 5.97s-5.98-2.67-5.98-5.97 2.68-5.98 5.98-5.98c3.3 0 5.97 2.68 5.97 5.98z" stroke="#fff" stroke-opacity="0" fill="#3f8624"/><path d="M1074.37 586.9h5.1v16.74h-5.1V586.9zM1086.53 561.83c0 3.3-2.68 5.97-5.98 5.97-3.3 0-5.97-2.67-5.97-5.97s2.68-5.98 5.97-5.98c3.3 0 5.98 2.68 5.98 5.98z" stroke="#fff" stroke-opacity="0" fill="#3f8624"/><path d="M1098.63 603.64h-5.1v-25.27l-13.64-13.6 3.6-3.6 15.13 15.07v27.4zM1170.43 577.48h-19.5v-19.46h19.5zm-14.38-5.1h9.27v-9.26h-9.27zM1141.52 567.75c0 3.3-2.67 5.97-5.97 5.97s-5.98-2.67-5.98-5.97 2.68-5.97 5.98-5.97c3.3 0 5.97 2.67 5.97 5.97z" stroke="#fff" stroke-opacity="0" fill="#3f8624"/><path d="M1136.75 565.2h16.75v5.1h-16.75v-5.1zM1133.15 589.3c0 3.3-2.68 5.97-5.98 5.97-3.3 0-5.97-2.68-5.97-5.97 0-3.3 2.68-5.98 5.97-5.98 3.3 0 5.98 2.68 5.98 5.98z" stroke="#fff" stroke-opacity="0" fill="#3f8624"/><path d="M1131.97 586.74h45.48v5.1h-45.48v-5.1zM1120 573.72c0 3.3-2.68 5.98-5.97 5.98-3.3 0-5.98-2.68-5.98-5.98 0-3.3 2.68-5.97 5.98-5.97 3.3 0 5.97 2.68 5.97 5.97z" stroke="#fff" stroke-opacity="0" fill="#3f8624"/><path d="M1111.06 574.4l-15.1-15.1-.06-13.06 5.1-.06.05 11 13.64 13.6-3.64 3.6z" stroke="#fff" stroke-opacity="0" fill="#3f8624"/><path d="M1119.73 593.43c12.4 0 22.45 8.78 22.45 19.6 0 10.83-10.06 19.6-22.45 19.6-12.4 0-22.45-8.77-22.45-19.6 0-10.82 10.06-19.6 22.45-19.6zM1119.73 517.4c12.4 0 22.45 8.8 22.45 19.62s-10.06 19.6-22.45 19.6c-12.4 0-22.45-8.78-22.45-19.6 0-10.82 10.06-19.6 22.45-19.6z" stroke="#fff" stroke-opacity="0" stroke-width=".37" fill="#fff" fill-opacity="0"/><use xlink:href="#e" transform="matrix(1,0,0,1,1030,643.9173126614987) translate(16.637037037037118 17.066666666666652)"/><use xlink:href="#f" transform="matrix(1,0,0,1,1030,643.9173126614987) translate(75.71851851851854 17.066666666666652)"/><use xlink:href="#g" transform="matrix(1,0,0,1,1030,643.9173126614987) translate(50.38518518518522 43.7333333333333)"/><path d="M826.8 795.4h-13.68v8.28h13.68v5.4h-13.68v8.16h13.68v5.52h-13.68v8.16h13.68v5.4h-13.68v8.28h13.68v5.4h-13.68v7.8c0 4.68-3.84 8.52-8.52 8.52h-7.8V880h-5.4v-13.68h-8.28V880h-5.4v-13.68h-8.16V880h-5.52v-13.68h-8.16V880h-5.4v-13.68h-8.28V880h-5.4v-13.68H729c-4.68 0-8.52-3.84-8.52-8.52V850H706.8v-5.4h13.68v-8.28H706.8v-5.4h13.68v-8.16H706.8v-5.52h13.68v-8.16H706.8v-5.4h13.68v-8.28H706.8V790h13.68v-7.8c0-4.68 3.84-8.52 8.52-8.52h7.8V760h5.4v13.68h8.28V760h5.4v13.68h8.16V760h5.52v13.68h8.16V760h5.4v13.68h8.28V760h5.4v13.68h7.8c4.68 0 8.52 3.84 8.52 8.52v7.8h13.68zm-19.08 62.4v-75.6c0-1.68-1.44-3.12-3.12-3.12H729c-1.68 0-3.12 1.44-3.12 3.12v75.6c0 1.68 1.44 3.12 3.12 3.12h75.6c1.68 0 3.12-1.44 3.12-3.12zm-30-28.2c3.48 3.12 5.4 7.44 5.4 12.12 0 5.04-2.16 9.6-6 12.72-2.88 2.4-6.6 3.72-10.32 3.72-1.2 0-2.28-.12-3.48-.36-6.36-1.32-11.4-6.6-12.6-12.96-1.08-5.76.96-11.4 5.16-15.24v-36.84c0-6 4.92-10.92 10.92-10.92s10.92 4.92 10.92 10.92zm-4.08 20.64c2.64-2.04 4.08-5.16 4.08-8.52 0-3.36-1.56-6.48-4.44-8.64l-1.08-.84v-39.48c0-3-2.4-5.52-5.4-5.52-3 0-5.4 2.52-5.4 5.52v39.48l-1.08.84c-3.48 2.52-5.04 6.6-4.2 10.68.72 4.32 4.08 7.8 8.28 8.64 3.36.72 6.72-.12 9.24-2.16zm-4.08-16.2c3.12 1.2 5.4 4.2 5.4 7.68 0 4.56-3.6 8.28-8.16 8.28-4.56 0-8.16-3.72-8.16-8.28 0-3.48 2.28-6.48 5.4-7.68v-30.36h5.52zm13.56-38.64V790h13.68v5.4zm0 21.84v-5.4h13.68v5.4zm0-10.92v-5.4h10.92v5.4zm0 21.84v-5.4h10.92v5.4zm-16.32 16.32c1.56 0 2.76-1.2 2.76-2.76 0-1.44-1.2-2.64-2.76-2.64-1.56 0-2.76 1.2-2.76 2.64 0 1.56 1.2 2.76 2.76 2.76z" stroke="#000" stroke-opacity="0" fill="#3f8624"/><use xlink:href="#h" transform="matrix(1,0,0,1,676.7958091813645,889) translate(35.946296296296296 17.955555555555552)"/><use xlink:href="#i" transform="matrix(1,0,0,1,676.7958091813645,889) translate(53.87067901234569 44.888888888888886)"/><path d="M945.9 814.1l-.1 1.23-.3 1.3-.52 1.23-.7 1.14-.87 1.02-1 .86-1.14.7-1.23.5-1.3.32-1.23.1h-85.85v-5h85.65l.64-.05.54-.13.5-.2.47-.3.42-.35.35-.42.3-.46.2-.52.13-.53.05-.65v-61.23h5zm89.24-236.68H949.5l-.65.05-.53.13-.5.2-.48.3-.4.35-.37.4-.28.48-.22.5-.13.54-.05.65v150.3h-5v-150.5l.1-1.23.3-1.3.52-1.25.7-1.13.86-1.02 1.02-.87 1.13-.7 1.24-.5 1.3-.32 1.23-.08h85.84z" stroke="#3f8624" stroke-width=".05" fill="#3f8624"/><path d="M849.15 824.63L834.9 820l14.25-4.63z" fill="#3f8624"/><path d="M851.65 828.08L826.8 820l24.85-8.08zm-8.67-8.08l3.67 1.2v-2.4z" stroke="#3f8624" stroke-width=".05" fill="#3f8624"/><path d="M1051.9 574.92l-14.26 4.63v-9.27z" fill="#3f8624"/><path d="M1060 574.92l-24.86 8.07v-16.16zm-19.86 1.2l3.68-1.2-3.68-1.2z" stroke="#3f8624" stroke-width=".05" fill="#3f8624"/><use xlink:href="#j" transform="matrix(1,0,0,1,922.1880280474722,731.3333333333334) translate(0 14.222222222222223)"/><g stroke="#000" stroke-opacity="0" fill="#3f8624"><path d="M834.15 763.52c2.76 3.2 4.3 7.07 4.66 10.66l5.96 1.3c-.35-5.1-2.55-10.53-6.6-15.23-4.03-4.7-9.08-7.68-13.92-8.62l.38 6.07c3.2.5 6.78 2.62 9.53 5.82z"/><path d="M842 756.77c5.23 6.08 8.12 13.25 8.6 20l5.95 1.28c-.54-8.18-4.05-16.95-10.57-24.52-6.52-7.58-14.57-12.44-22.58-14.18l.43 6.13c6.27 1.28 12.93 5.2 18.17 11.3z"/><path d="M849.9 749.96c7.8 9.07 12.05 19.63 12.67 29.22l5.95 1.28c-.75-11.24-5.77-23.44-14.73-33.84-8.96-10.4-20.2-17.08-31.2-19.5l.44 6.13c9.45 2 19.2 7.8 26.86 16.7zM830.45 766.9c2.34 2.72 2.6 6.4.56 8.15-2.03 1.75-5.66.98-8-1.74-2.34-2.7-2.6-6.4-.53-8.17 2.04-1.76 5.63-.95 7.98 1.77z"/></g><path d="M780-14a6 6 0 0 1 6-6h808a6 6 0 0 1 6 6v48a6 6 0 0 1-6 6H786a6 6 0 0 1-6-6z" fill="#fff" fill-opacity="0"/><path d="M783.28-19.35l.87-.36.9-.23.95-.07h3m3.98 0h6m3.98 0h5.98m4 0h5.98m4 0h5.97m3.98 0h6m3.98 0h5.98m4 0h5.98m4 0h5.97m4 0h5.97m4 0h5.98m4 0h5.97m4 0h5.98m4 0h5.97m4 0h5.98m4 0h5.97m4 0h5.98m4 0h5.97m4 0h5.98m4 0h5.97m4 0h5.98m4 0h5.97m4 0h5.98m4 0h5.97m4 0h5.98m4 0h5.97m4 0h5.98m4 0h5.98m4 0h5.97m4 0h5.98m4 0h5.97m4 0h5.98m4 0h5.97m4 0h5.98m4 0h5.97m4 0h5.98m4 0h5.97m4 0h5.98m4 0h5.97m4 0h5.98m4 0h5.98m4 0h5.98m4 0h5.98m4 0h5.97m4 0h5.98m4 0h5.98m4 0h5.98m4 0h5.97m4 0h5.98m4 0h5.98m4 0h5.98m4 0h5.97m4 0h5.98m4 0h5.98m4 0h5.98m4 0h5.97m4 0h5.98m4 0h6m3.98 0h5.98m4 0h5.98m4 0h5.97m4 0h6m3.98 0h5.98m4 0h5.98m4 0h5.97m4 0h6m3.98 0h5.98m4 0h5.98m4 0h5.97m4 0h6m3.98 0h5.98m4 0h5.98m4 0h5.97m4 0h6m3.98 0h5.98m4 0h5.98m4 0h5.98m4 0h5.97m3.98 0h6m3.98 0h5.98m4 0h5.98m4 0h2.98l.94.07.9.22.88.35m2.63 2.63l.36.87.23.9.07.95v2.88m0 3.84v5.76m0 3.84v5.76m0 3.84v5.76m0 3.84v5.76m0 3.84V34l-.07.94-.22.9-.35.88m-2.63 2.63l-.87.36-.9.23-.95.07h-3m-3.98 0h-6m-3.98 0h-5.98m-4 0h-5.98m-4 0h-5.97m-3.98 0h-6m-3.98 0h-5.98m-4 0h-5.98m-4 0h-5.98m-4 0h-5.97m-4 0h-5.98m-4 0h-5.97m-4 0h-5.98m-4 0h-5.97m-4 0h-5.98m-4 0h-5.97m-4 0h-5.98m-4 0h-5.97m-4 0h-5.98m-4 0h-5.97m-4 0h-5.98m-4 0h-5.97m-4 0h-5.98m-4 0h-5.97m-4 0h-5.98m-4 0h-5.97m-4 0h-5.98m-4 0h-5.98m-4 0h-5.97m-4 0h-5.98m-4 0h-5.97m-4 0h-5.98m-4 0h-5.97m-4 0h-5.98m-4 0h-5.97m-4 0h-5.98m-4 0h-5.97m-4 0h-5.98m-4 0h-5.97m-4 0h-5.98m-4 0H1192m-4 0h-5.98m-4 0h-5.98m-4 0h-5.97m-4 0h-5.98m-4 0h-5.98m-4 0h-5.98m-4 0h-5.97m-4 0h-5.98m-4 0h-5.98m-4 0h-5.98m-4 0h-5.97m-4 0h-5.98m-4 0h-5.98m-4 0h-5.98m-4 0h-5.97m-4 0h-5.98m-4 0h-6m-3.98 0h-5.98m-4 0h-5.98m-4 0h-5.97m-4 0h-6m-3.98 0h-5.98m-4 0h-5.98m-4 0h-5.97m-4 0h-6m-3.98 0h-5.98m-4 0h-5.98m-4 0h-5.97m-4 0h-6m-3.98 0h-5.98m-4 0h-5.98m-4 0h-5.98m-4 0h-5.97m-3.98 0h-6m-3.98 0h-5.98m-4 0h-5.98m-4 0h-5.97m-3.98 0h-6m-3.98 0h-5.98m-4 0H793m-4 0H786l-.94-.07-.9-.22-.88-.35m-2.63-2.63l-.36-.87-.23-.9L780 34v-2.88m0-3.84v-5.76m0-3.84v-5.76m0-3.84V2.32m0-3.84v-5.76m0-3.84V-14l.07-.94.22-.9.35-.88" stroke="#d86613" stroke-width="2" fill="none"/><use xlink:href="#k" transform="matrix(1,0,0,1,785,-15) translate(367.08333333333337 32.91666666666666)"/><path d="M776.42 520c-18.2 0-36.42 4.58-36.42 13v80.53c0 8.52 18.36 13 36.42 13 18.06 0 36.42-4.48 36.42-13V533c0-8.53-18.2-13-36.42-13zm0 4.58c19.23 0 31.9 5.1 31.9 8.42 0 3.3-12.74 8.4-31.9 8.4-19.08 0-31.83-5.1-31.83-8.4 0-3.4 12.6-8.42 31.82-8.42zm0 97.37c-19.23 0-31.83-5.12-31.83-8.42V593.3c6.54 4.25 19.3 6.38 31.82 6.38 12.6 0 25.35-2.23 31.9-6.4v20.25c0 3.3-12.67 8.42-31.9 8.42zm0-26.85c-19.23 0-31.83-5-31.83-8.4v-20.25c6.54 4.15 19.3 6.4 31.82 6.4 12.6 0 25.35-2.36 31.9-6.4v20.24c0 3.4-12.67 8.4-31.9 8.4zm0-26.84c-20.98 0-31.83-5.43-31.83-8.42V539.6c6.54 4.26 19.3 6.4 31.82 6.4 12.6 0 25.35-2.14 31.9-6.4v20.24c0 3-10.92 8.42-31.9 8.42z" stroke="#fff" stroke-opacity="0" fill="#d86613"/><path d="M750.47 552.34h5.4v4.57h-5.4v-4.56zM750.47 579.2h5.4v4.56h-5.4v-4.57zM750.47 606.04h5.4v4.57h-5.4v-4.56zM758.48 552.34H768v4.57h-9.52v-4.56zM758.48 579.2H768v4.56h-9.52v-4.57zM758.48 606.04H768v4.57h-9.52v-4.56z" stroke="#fff" stroke-opacity="0" fill="#d86613"/><use xlink:href="#l" transform="matrix(1,0,0,1,710,635.5293378493922) translate(25.234567901234584 17.77777777777777)"/><path d="M1400.17 521.64h89.66v89.67h-89.66z" stroke="#fff" stroke-opacity="0" fill="#d86613"/><path d="M1488.22 523.25v86.44h-86.44v-86.45h86.44m3.25-3.25h-92.94v92.95h92.94V520z" stroke="#fff" stroke-opacity="0" fill="#fff"/><path d="M1472.88 555v-2.2h-4.37v-4.75c0-2.2-1.8-4-3.98-4h-4.76v-4.37h-2.18v4.38h-4.38v-4.38h-2.2v4.38h-4.36v-4.38h-2.2v4.38h-4.36v-4.38h-2.2v4.38h-4.36v-4.38h-2.2v4.38h-4.74c-2.2 0-4 1.8-4 4v4.74h-4.37v2.2h4.38v4.37h-4.37v2.18h4.38v4.38h-4.37v2.18h4.38v4.4h-4.37v2.17h4.38v4.38h-4.37v2.2h4.38v4.74c0 2.18 1.8 3.98 4 3.98h4.75v4.38h2.2v-4.38h4.36v4.38h2.18v-4.38h4.37v4.38h2.2v-4.38h4.36v4.38h2.2v-4.38h4.38v4.38h2.18v-4.38h4.76c2.2 0 4-1.8 4-4v-4.75h4.36v-2.18h-4.37v-4.38h4.38v-2.18h-4.37v-4.4h4.38v-2.17h-4.37v-4.38h4.38v-2.18h-4.37V555zm-6.56 31c0 .98-.82 1.8-1.8 1.8h-37.94c-1 0-1.8-.82-1.8-1.8v-37.95c0-1 .8-1.8 1.8-1.8h37.94c.98 0 1.8.8 1.8 1.8z" stroke="#fff" stroke-opacity="0" fill="#fff"/><path d="M1456.07 553.9h-21.05c-1.4 0-2.6 1.18-2.6 2.6v21.04c0 1.42 1.2 2.6 2.6 2.6h21.05c1.42 0 2.6-1.18 2.6-2.6V556.5c0-1.42-1.18-2.6-2.6-2.6zm.42 23.64c0 .24-.2.42-.43.42h-21.05c-.23 0-.42-.18-.42-.42V556.5c0-.24.2-.42.42-.42h21.05c.24 0 .42.18.42.42z" stroke="#fff" stroke-opacity="0" fill="#fff"/><path d="M1390 630.7a6 6 0 0 1 6-6h98a6 6 0 0 1 6 6v41.33a6 6 0 0 1-6 6h-98a6 6 0 0 1-6-6z" fill="none"/><use xlink:href="#m" transform="matrix(1,0,0,1,1390,624.6950904392766) translate(7.006172839506171 18.111111111111114)"/><use xlink:href="#n" transform="matrix(1,0,0,1,1390,624.6950904392766) translate(19.96913580246914 44.777777777777786)"/><path d="M1398.32 300h-76.64c-.88 0-1.68-.77-1.68-1.7v-47.9c0-.93.8-1.7 1.68-1.7h76.64c.88 0 1.68.77 1.68 1.7v47.9c0 .93-.8 1.7-1.68 1.7zm-74.88-3.4h73.12v-44.5h-73.12z" stroke="#fff" stroke-opacity="0" fill="#3f8624"/><path d="M1329.58 256.8h3.4v35.13h-3.4V256.8zM1339.15 256.8h3.4v35.13h-3.4V256.8zM1348.73 256.8h3.4v35.13h-3.4V256.8zM1358.3 256.8h3.4v35.13h-3.4V256.8zM1367.88 256.8h3.4v35.13h-3.4V256.8zM1377.45 256.8h3.4v35.13h-3.4V256.8zM1387.03 256.8h3.4v35.13h-3.4V256.8z" stroke="#fff" stroke-opacity="0" fill="#3f8624"/><use xlink:href="#o" transform="matrix(1,0,0,1,1290,309) translate(20.37037037037038 14.222222222222221)"/><use xlink:href="#p" transform="matrix(1,0,0,1,1290,309) translate(62.39506172839506 14.222222222222221)"/><use xlink:href="#q" transform="matrix(1,0,0,1,1290,309) translate(30.074074074074076 35.55555555555556)"/><path d="M1204.86 574.92H1264a6 6 0 0 0 6-6V280.35a6 6 0 0 1 6-6h19.14" stroke="#3f8624" stroke-width="5" fill="none"/><path d="M1188.1 574.92l14.26-4.64v9.27zM1311.9 274.35l-14.26 4.63v-9.27z" stroke="#3f8624" stroke-width="5" fill="#3f8624"/><path d="M1558.32 231.3h-76.64c-.88 0-1.68-.77-1.68-1.7v-47.9c0-.93.8-1.7 1.68-1.7h76.64c.88 0 1.68.77 1.68 1.7v47.9c0 .93-.8 1.7-1.68 1.7zm-74.88-3.4h73.12v-44.5h-73.12z" stroke="#fff" stroke-opacity="0" fill="#3f8624"/><path d="M1489.58 188.1h3.4v35.13h-3.4V188.1zM1499.15 188.1h3.4v35.13h-3.4V188.1zM1508.73 188.1h3.4v35.13h-3.4V188.1zM1518.3 188.1h3.4v35.13h-3.4V188.1zM1527.88 188.1h3.4v35.13h-3.4V188.1zM1537.45 188.1h3.4v35.13h-3.4V188.1zM1547.03 188.1h3.4v35.13h-3.4V188.1z" stroke="#fff" stroke-opacity="0" fill="#3f8624"/><use xlink:href="#r" transform="matrix(1,0,0,1,1450,240.29999999999995) translate(24.172839506172842 14.222222222222221)"/><use xlink:href="#s" transform="matrix(1,0,0,1,1450,240.29999999999995) translate(2.9382716049382793 35.55555555555556)"/><use xlink:href="#t" transform="matrix(1,0,0,1,1450,240.29999999999995) translate(80.91358024691357 35.55555555555556)"/><use xlink:href="#u" transform="matrix(1,0,0,1,1450,240.29999999999995) translate(36.98765432098766 56.888888888888886)"/><path d="M1424.86 274.35h9.14a6 6 0 0 0 6-6v-56.7a6 6 0 0 1 6-6h9.14" stroke="#3f8624" stroke-width="5" fill="none"/><path d="M1408.1 274.35l14.26-4.64v9.3zM1471.9 205.65l-14.26 4.63V201z" stroke="#3f8624" stroke-width="5" fill="#3f8624"/><use xlink:href="#v" transform="matrix(1,0,0,1,1394.5679012345681,210.5962337967825) translate(0 14.222222222222223)"/><path d="M1168.32 111.3h-76.64c-.88 0-1.68-.77-1.68-1.7V61.7c0-.93.8-1.7 1.68-1.7h76.64c.88 0 1.68.77 1.68 1.7v47.9c0 .93-.8 1.7-1.68 1.7zm-74.88-3.4h73.12V63.4h-73.12z" stroke="#fff" stroke-opacity="0" fill="#3f8624"/><path d="M1099.58 68.1h3.4v35.13h-3.4V68.1zM1109.15 68.1h3.4v35.13h-3.4V68.1zM1118.73 68.1h3.4v35.13h-3.4V68.1zM1128.3 68.1h3.4v35.13h-3.4V68.1zM1137.88 68.1h3.4v35.13h-3.4V68.1zM1147.45 68.1h3.4v35.13h-3.4V68.1zM1157.03 68.1h3.4v35.13h-3.4V68.1z" stroke="#fff" stroke-opacity="0" fill="#3f8624"/><use xlink:href="#w" transform="matrix(1,0,0,1,1060,120.3) translate(13.827160493827165 14.222222222222221)"/><use xlink:href="#x" transform="matrix(1,0,0,1,1060,120.3) translate(68.98765432098764 14.222222222222221)"/><path d="M1522.5 155.14h-5v-14.47h5zm-7.17-71.9l1.3.32 1.23.5 1.14.7 1.02.87.86 1.02.7 1.14.5 1.22.32 1.3.1 1.23v27.78h-5V91.75l-.05-.65-.13-.53-.2-.5-.3-.47-.35-.42-.42-.36-.46-.28-.52-.2-.53-.14-.65-.05h-319.04v-5h319.24z" stroke="#3f8624" stroke-width=".05" fill="#3f8624"/><path d="M1520 171.9l-4.63-14.26h9.27z" fill="#3f8624"/><path d="M1520 180l-8.08-24.86h16.16zm-1.2-19.86l1.2 3.68 1.2-3.68z" stroke="#3f8624" stroke-width=".05" fill="#3f8624"/><path d="M1192.36 90.28l-14.27-4.63 14.26-4.64z" fill="#3f8624"/><path d="M1194.86 93.73L1170 85.65l24.86-8.08zm-8.68-8.08l3.68 1.2v-2.4z" stroke="#3f8624" stroke-width=".05" fill="#3f8624"/><use xlink:href="#y" transform="matrix(1,0,0,1,1494.888888888889,119.33333333333333) translate(0 14.222222222222223)"/><path d="M1138.32 251.3h-76.64c-.88 0-1.68-.77-1.68-1.7v-47.9c0-.93.8-1.7 1.68-1.7h76.64c.88 0 1.68.77 1.68 1.7v47.9c0 .93-.8 1.7-1.68 1.7zm-74.88-3.4h73.12v-44.5h-73.12z" stroke="#fff" stroke-opacity="0" fill="#3f8624"/><path d="M1069.58 208.1h3.4v35.13h-3.4V208.1zM1079.15 208.1h3.4v35.13h-3.4V208.1zM1088.73 208.1h3.4v35.13h-3.4V208.1zM1098.3 208.1h3.4v35.13h-3.4V208.1zM1107.88 208.1h3.4v35.13h-3.4V208.1zM1117.45 208.1h3.4v35.13h-3.4V208.1zM1127.03 208.1h3.4v35.13h-3.4V208.1z" stroke="#fff" stroke-opacity="0" fill="#3f8624"/><use xlink:href="#r" transform="matrix(1,0,0,1,1030,260.3) translate(24.172839506172842 14.222222222222221)"/><use xlink:href="#z" transform="matrix(1,0,0,1,1030,260.3) translate(42.345679012345684 35.55555555555556)"/><path d="M1065.14 85.65H1056a6 6 0 0 0-6 6V154a6 6 0 0 0 6 6h38a6 6 0 0 1 6 6v9.14" stroke="#3f8624" stroke-width="5" fill="none"/><path d="M1081.9 85.65l-14.26 4.63v-9.27zM1100 191.9l-4.63-14.26h9.27z" stroke="#3f8624" stroke-width="5" fill="#3f8624"/><use xlink:href="#y" transform="matrix(1,0,0,1,991.7777777777778,113.26944444444446) translate(0 14.222222222222223)"/><path d="M878.32 251.3h-76.64c-.88 0-1.68-.77-1.68-1.7v-47.9c0-.93.8-1.7 1.68-1.7h76.64c.88 0 1.68.77 1.68 1.7v47.9c0 .93-.8 1.7-1.68 1.7zm-74.88-3.4h73.12v-44.5h-73.12z" stroke="#fff" stroke-opacity="0" fill="#3f8624"/><path d="M809.58 208.1h3.4v35.13h-3.4V208.1zM819.15 208.1h3.4v35.13h-3.4V208.1zM828.73 208.1h3.4v35.13h-3.4V208.1zM838.3 208.1h3.4v35.13h-3.4V208.1zM847.88 208.1h3.4v35.13h-3.4V208.1zM857.45 208.1h3.4v35.13h-3.4V208.1zM867.03 208.1h3.4v35.13h-3.4V208.1z" stroke="#fff" stroke-opacity="0" fill="#3f8624"/><use xlink:href="#A" transform="matrix(1,0,0,1,770,260.3) translate(38.41975308641975 14.222222222222221)"/><path d="M842.5 175.14h-5v-18.47h5zm222.64-87H846.1l-.65.06-.53.13-.5.2-.47.3-.42.35-.36.42-.28.47-.22.5-.13.53-.05.65v43.58h-5V91.55l.1-1.23.3-1.3.52-1.23.7-1.15.86-1.02 1.02-.86 1.14-.7 1.23-.5 1.3-.32 1.23-.1h219.24z" stroke="#3f8624" stroke-width=".05" fill="#3f8624"/><path d="M840 191.9l-4.63-14.26h9.26z" fill="#3f8624"/><path d="M840 200l-8.08-24.86h16.16zm-1.2-19.86l1.2 3.68 1.2-3.68z" stroke="#3f8624" stroke-width=".05" fill="#3f8624"/><path d="M1081.9 85.65l-14.26 4.63v-9.27z" fill="#3f8624"/><path d="M1090 85.65l-24.86 8.08V77.57zm-19.86 1.2l3.68-1.2-3.68-1.2z" stroke="#3f8624" stroke-width=".05" fill="#3f8624"/><use xlink:href="#y" transform="matrix(1,0,0,1,814.8888888888889,135.33333333333334) translate(0 14.222222222222223)"/><path d="M904.86 225.65h139.8" stroke="#3f8624" stroke-width="5" fill="none"/><path d="M888.1 225.65l14.26-4.64v9.28zM1055.1 225.65l-12.92 7.64V218z" stroke="#3f8624" stroke-width="5" fill="#3f8624"/><use xlink:href="#B" transform="matrix(1,0,0,1,946.3456790123457,200.31666666666666) translate(0 14.222222222222223)"/><path d="M1238.32 351.3h-76.64c-.88 0-1.68-.77-1.68-1.7v-47.9c0-.93.8-1.7 1.68-1.7h76.64c.88 0 1.68.77 1.68 1.7v47.9c0 .93-.8 1.7-1.68 1.7zm-74.88-3.4h73.12v-44.5h-73.12z" stroke="#fff" stroke-opacity="0" fill="#3f8624"/><path d="M1169.58 308.1h3.4v35.13h-3.4V308.1zM1179.15 308.1h3.4v35.13h-3.4V308.1zM1188.73 308.1h3.4v35.13h-3.4V308.1zM1198.3 308.1h3.4v35.13h-3.4V308.1zM1207.88 308.1h3.4v35.13h-3.4V308.1zM1217.45 308.1h3.4v35.13h-3.4V308.1zM1227.03 308.1h3.4v35.13h-3.4V308.1z" stroke="#fff" stroke-opacity="0" fill="#3f8624"/><use xlink:href="#C" transform="matrix(1,0,0,1,1130,360.3) translate(18.740740740740748 14.222222222222221)"/><path d="M1142.5 248.2h51.5a6 6 0 0 1 6 6v43.3" stroke="#3f8624" stroke-width="5" fill="none"/><path d="M1142.56 250.7h-3.03l.47-1.1v-3.9h2.56zM1202.5 300h-5v-2.56h5z" stroke="#3f8624" stroke-width=".05" fill="#3f8624"/><path d="M1038.32 351.3h-76.64c-.88 0-1.68-.77-1.68-1.7v-47.9c0-.93.8-1.7 1.68-1.7h76.64c.88 0 1.68.77 1.68 1.7v47.9c0 .93-.8 1.7-1.68 1.7zm-74.88-3.4h73.12v-44.5h-73.12z" stroke="#fff" stroke-opacity="0" fill="#3f8624"/><path d="M969.58 308.1h3.4v35.13h-3.4V308.1zM979.15 308.1h3.4v35.13h-3.4V308.1zM988.73 308.1h3.4v35.13h-3.4V308.1zM998.3 308.1h3.4v35.13h-3.4V308.1zM1007.88 308.1h3.4v35.13h-3.4V308.1zM1017.45 308.1h3.4v35.13h-3.4V308.1zM1027.03 308.1h3.4v35.13h-3.4V308.1z" stroke="#fff" stroke-opacity="0" fill="#3f8624"/><use xlink:href="#D" transform="matrix(1,0,0,1,930,360.3) translate(45.851851851851855 14.222222222222221)"/><path d="M1000 297.5v-45.85a6 6 0 0 1 6-6h51.5" stroke="#3f8624" stroke-width="5" fill="none"/><path d="M1002.5 300h-5v-2.56h5zM1060 248.15h-2.56v-5h2.56z" stroke="#3f8624" stroke-width=".05" fill="#3f8624"/><path d="M389 15.65l5.9.84 4.85.83 4.43 1.26 6.1 2.23 4.86 2.24 6.74 3.92 4.43 3.35 4.86 4.48 4 4.34 3.6 4.62 3.15 4.9 3.18 6.43 2.1 6.02 1.48 4.48.84 3.36 3.38.55 5.7 1.12 5.26 1.82 6.74 3.5 5.06 3.77 3.8 3.64 4.43 5.33 2.53 4.62 2.1 4.9 1.7 6.3.62 5.74-.2 6.3-.43 3.9-1.5 5.2-1.88 4.6-2.1 4.2-3.17 4.35-3.17 3.78-4.42 3.78-5.27 3.5-4.86 2.25-4.85 1.68-5.28 1.26-4.85.55H328.5l-7.4-1.12-7.8-2.24-8.2-4.07-6.13-4.34-6.32-6.3-3.8-4.9-2.95-4.9-2.74-6.17-1.9-6.86-1.05-5.88-.2-5.33.2-6.02.85-4.2 1.9-7.42 2.95-6.86 4.43-7.14 4.85-5.6L301.7 61l6.55-3.9 6.32-2.67 5.9-1.54 5.28-.85 1.9-.14 3.16-6.15 5.28-7.14 5.06-5.3 5.9-5.05 5.27-3.5 5.7-2.94 5.06-2.23 6.54-2.1 6.1-1.12 6.76-.7zm-11.6 18.62l-5.7 1.12-4.42 1.53-4.22 1.68-4.42 2.53-3.6 2.38-4 3.37-4 4.06-2.53 3.78-1.88 2.95-2.32 4.76-1.7 5.6h-8.64l-6.32 1-5.48 1.8-5.06 2.67-4.85 3.5-4.43 4.62-3.37 5.17-2.74 6.58-1.05 4.76-.42 4.9.2 4.63.86 4.62 1.88 4.9 2.53 4.76 3.18 3.93 3.58 3.5 4.43 3.08 3.78 2.1 4.22 1.55 4.22.98 4.2.56h118.5l3.16-.3 2.95-.7 4.43-1.8 3.8-2.25 3.36-2.94 2.75-3.5 2.53-4.75 1.26-3.92.42-3.64.2-3.65-.4-2.52-.64-3.78-1.7-3.78-1.25-2.38-1.9-2.67-3.17-3.36-4-2.8-3.8-1.96-4-1.25-4-.42h-14.35l-.2-6.16-.43-4.62L431.8 69l-1.7-5.05-2.52-5.46-2.32-3.8-2.32-3.35-4-4.2-3.8-3.08-3.6-2.66-3.78-2.23-3.58-1.54-4-1.54-5.07-1.4-6.95-1h-4.42z" stroke="#000" stroke-opacity="0" stroke-width=".01" fill="#5c85de"/><use xlink:href="#E" transform="matrix(1,0,0,1,280,160.65) translate(37.45061728395065 28.444444444444436)"/><path d="M748.32 311.3h-76.64c-.88 0-1.68-.77-1.68-1.7v-47.9c0-.93.8-1.7 1.68-1.7h76.64c.88 0 1.68.77 1.68 1.7v47.9c0 .93-.8 1.7-1.68 1.7zm-74.88-3.4h73.12v-44.5h-73.12z" stroke="#fff" stroke-opacity="0" fill="#3f8624"/><path d="M679.58 268.1h3.4v35.13h-3.4V268.1zM689.15 268.1h3.4v35.13h-3.4V268.1zM698.73 268.1h3.4v35.13h-3.4V268.1zM708.3 268.1h3.4v35.13h-3.4V268.1zM717.88 268.1h3.4v35.13h-3.4V268.1zM727.45 268.1h3.4v35.13h-3.4V268.1zM737.03 268.1h3.4v35.13h-3.4V268.1z" stroke="#fff" stroke-opacity="0" fill="#3f8624"/><use xlink:href="#F" transform="matrix(1,0,0,1,640,320.3) translate(33.530864197530875 14.222222222222221)"/><use xlink:href="#G" transform="matrix(1,0,0,1,640,320.3) translate(5.950617283950635 35.55555555555556)"/><use xlink:href="#H" transform="matrix(1,0,0,1,640,320.3) translate(79.87654320987654 35.55555555555556)"/><path d="M712.5 235.14h-5v-78.47h5zm352.64-147H716.1l-.65.06-.53.13-.5.2-.47.3-.42.35-.36.42-.28.47-.22.5-.13.53-.05.65v43.58h-5V91.55l.1-1.23.3-1.3.52-1.23.7-1.15.86-1.02 1.02-.86 1.14-.7 1.23-.5 1.3-.32 1.23-.1h349.24z" stroke="#3f8624" stroke-width=".05" fill="#3f8624"/><path d="M710 251.9l-4.63-14.26h9.26z" fill="#3f8624"/><path d="M710 260l-8.08-24.86h16.16zm-1.2-19.86l1.2 3.68 1.2-3.68z" stroke="#3f8624" stroke-width=".05" fill="#3f8624"/><path d="M1081.9 85.65l-14.26 4.63v-9.27z" fill="#3f8624"/><path d="M1090 85.65l-24.86 8.08V77.57zm-19.86 1.2l3.68-1.2-3.68-1.2z" stroke="#3f8624" stroke-width=".05" fill="#3f8624"/><use xlink:href="#y" transform="matrix(1,0,0,1,684.8888888888889,135.33333333333334) translate(0 14.222222222222223)"/><path d="M526.5 83.25l1.3.3 1.22.52 1.14.7 1 .86.88 1.02.7 1.14.5 1.22.32 1.3.1 1.23v188l.05.65.14.53.2.5.3.47.35.42.4.36.47.28.5.2.54.14.66.05h107.88v5H537.06l-1.23-.1-1.3-.3-1.23-.52-1.14-.7-1.02-.86-.86-1.02-.7-1.14-.5-1.22-.32-1.3-.1-1.23v-188l-.05-.65-.12-.53-.2-.5-.3-.47-.35-.42-.42-.36-.46-.28-.5-.2-.53-.14-.64-.05h-18.9v-5h19.1z" stroke="#3f8624" stroke-width=".05" fill="#3f8624"/><path d="M661.9 285.65l-14.26 4.64V281z" fill="#3f8624"/><path d="M670 285.65l-24.86 8.08v-16.16zm-19.86 1.2l3.68-1.2-3.68-1.2z" stroke="#3f8624" stroke-width=".05" fill="#3f8624"/><path d="M503.66 90.28l-14.27-4.63L503.65 81z" fill="#3f8624"/><path d="M506.16 93.73l-24.86-8.08 24.86-8.08zm-8.68-8.08l3.68 1.2v-2.4zM526.5 83.25l1.3.3 1.22.52 1.14.7 1 .86.88 1.02.7 1.14.5 1.22.32 1.3.1 1.23v128l.05.65.14.53.2.5.3.47.35.42.4.35.47.3.5.2.54.13.66.05h237.88v5H537.06l-1.23-.1-1.3-.3-1.23-.52-1.14-.7-1.02-.86-.86-1.02-.7-1.14-.5-1.22-.32-1.3-.1-1.23v-128l-.05-.65-.12-.53-.2-.5-.3-.47-.35-.42-.42-.36-.46-.28-.5-.2-.53-.14-.64-.05h-18.9v-5h19.1z" stroke="#3f8624" stroke-width=".05" fill="#3f8624"/><path d="M791.9 225.65l-14.26 4.63V221z" fill="#3f8624"/><path d="M800 225.65l-24.86 8.08v-16.16zm-19.86 1.2l3.68-1.2-3.68-1.2z" stroke="#3f8624" stroke-width=".05" fill="#3f8624"/><path d="M503.66 90.28l-14.27-4.63L503.65 81z" fill="#3f8624"/><path d="M506.16 93.73l-24.86-8.08 24.86-8.08zm-8.68-8.08l3.68 1.2v-2.4z" stroke="#3f8624" stroke-width=".05" fill="#3f8624"/><path d="M776.42 517.5V496a6 6 0 0 1 6-6h320.6a6 6 0 0 0 6-6v-99" stroke="#d86613" stroke-width="5" fill="none"/><path d="M778.92 520.08l-2.5-.08-2.5.17v-2.73h5zM1111.53 385.06h-5v-2.56h5z" stroke="#d86613" stroke-width=".05" fill="#d86613"/><path d="M1445 517.5V496a6 6 0 0 0-6-6h-323.97a6 6 0 0 1-6-6v-99" stroke="#d86613" stroke-width="5" fill="none"/><path d="M1447.5 520h-5v-2.56h5zM1111.53 385.06h-5v-2.56h5z" stroke="#d86613" stroke-width=".05" fill="#d86613"/><defs><path fill="#d86613" d="M175 0L67-191c6 58 2 128 3 191H24v-248h59L193-55c-6-58-2-129-3-193h46V0h-61" id="I"/><path fill="#d86613" d="M110-194c64 0 96 36 96 99 0 64-35 99-97 99-61 0-95-36-95-99 0-62 34-99 96-99zm-1 164c35 0 45-28 45-65 0-40-10-65-43-65-34 0-45 26-45 65 0 36 10 65 43 65" id="J"/><path fill="#d86613" d="M88-194c31-1 46 15 58 34l-1-101h50l1 261h-48c-2-10 0-23-3-31C134-8 116 4 84 4 32 4 16-41 15-95c0-56 19-97 73-99zm17 164c33 0 40-30 41-66 1-37-9-64-41-64s-38 30-39 65c0 43 13 65 39 65" id="K"/><path fill="#d86613" d="M185-48c-13 30-37 53-82 52C43 2 14-33 14-96s30-98 90-98c62 0 83 45 84 108H66c0 31 8 55 39 56 18 0 30-7 34-22zm-45-69c5-46-57-63-70-21-2 6-4 13-4 21h74" id="L"/><g id="a"><use transform="matrix(0.12962962962962957,0,0,0.12962962962962957,0,0)" xlink:href="#I"/><use transform="matrix(0.12962962962962957,0,0,0.12962962962962957,33.574074074074055,0)" xlink:href="#J"/><use transform="matrix(0.12962962962962957,0,0,0.12962962962962957,61.96296296296293,0)" xlink:href="#K"/><use transform="matrix(0.12962962962962957,0,0,0.12962962962962957,90.3518518518518,0)" xlink:href="#L"/></g><path fill="#d86613" d="M194 0L95-120 63-95V0H30v-248h33v124l119-124h40L117-140 236 0h-42" id="M"/><path fill="#d86613" d="M84 4C-5 8 30-112 23-190h32v120c0 31 7 50 39 49 72-2 45-101 50-169h31l1 190h-30c-1-10 1-25-2-33-11 22-28 36-60 37" id="N"/><path fill="#d86613" d="M115-194c53 0 69 39 70 98 0 66-23 100-70 100C84 3 66-7 56-30L54 0H23l1-261h32v101c10-23 28-34 59-34zm-8 174c40 0 45-34 45-75 0-40-5-75-45-74-42 0-51 32-51 76 0 43 10 73 51 73" id="O"/><path fill="#d86613" d="M100-194c63 0 86 42 84 106H49c0 40 14 67 53 68 26 1 43-12 49-29l28 8c-11 28-37 45-77 45C44 4 14-33 15-96c1-61 26-98 85-98zm52 81c6-60-76-77-97-28-3 7-6 17-6 28h103" id="P"/><path fill="#d86613" d="M114-163C36-179 61-72 57 0H25l-1-190h30c1 12-1 29 2 39 6-27 23-49 58-41v29" id="Q"/><path fill="#d86613" d="M117-194c89-4 53 116 60 194h-32v-121c0-31-8-49-39-48C34-167 62-67 57 0H25l-1-190h30c1 10-1 24 2 32 11-22 29-35 61-36" id="R"/><path fill="#d86613" d="M59-47c-2 24 18 29 38 22v24C64 9 27 4 27-40v-127H5v-23h24l9-43h21v43h35v23H59v120" id="S"/><path fill="#d86613" d="M135-143c-3-34-86-38-87 0 15 53 115 12 119 90S17 21 10-45l28-5c4 36 97 45 98 0-10-56-113-15-118-90-4-57 82-63 122-42 12 7 21 19 24 35" id="T"/><g id="b"><use transform="matrix(0.0987654320987654,0,0,0.0987654320987654,0,0)" xlink:href="#M"/><use transform="matrix(0.0987654320987654,0,0,0.0987654320987654,23.703703703703695,0)" xlink:href="#N"/><use transform="matrix(0.0987654320987654,0,0,0.0987654320987654,43.45679012345677,0)" xlink:href="#O"/><use transform="matrix(0.0987654320987654,0,0,0.0987654320987654,63.209876543209845,0)" xlink:href="#P"/><use transform="matrix(0.0987654320987654,0,0,0.0987654320987654,82.96296296296292,0)" xlink:href="#Q"/><use transform="matrix(0.0987654320987654,0,0,0.0987654320987654,94.716049382716,0)" xlink:href="#R"/><use transform="matrix(0.0987654320987654,0,0,0.0987654320987654,114.46913580246907,0)" xlink:href="#P"/><use transform="matrix(0.0987654320987654,0,0,0.0987654320987654,134.22222222222214,0)" xlink:href="#S"/><use transform="matrix(0.0987654320987654,0,0,0.0987654320987654,144.09876543209867,0)" xlink:href="#P"/><use transform="matrix(0.0987654320987654,0,0,0.0987654320987654,163.85185185185176,0)" xlink:href="#T"/></g><path fill="#d86613" d="M87 75C49 33 22-17 22-94c0-76 28-126 65-167h31c-38 41-64 92-64 168S80 34 118 75H87" id="U"/><path fill="#d86613" d="M143 0L79-87 56-68V0H24v-261h32v163l83-92h37l-77 82L181 0h-38" id="V"/><path fill="#d86613" d="M126-127c33 6 58 20 58 59 0 88-139 92-164 29-3-8-5-16-6-25l32-3c6 27 21 44 54 44 32 0 52-15 52-46 0-38-36-46-79-43v-28c39 1 72-4 72-42 0-27-17-43-46-43-28 0-47 15-49 41l-32-3c6-42 35-63 81-64 48-1 79 21 79 65 0 36-21 52-52 59" id="W"/><path fill="#d86613" d="M33-261c38 41 65 92 65 168S71 34 33 75H2C39 34 66-17 66-93S39-220 2-261h31" id="X"/><g id="c"><use transform="matrix(0.0987654320987654,0,0,0.0987654320987654,0,0)" xlink:href="#U"/><use transform="matrix(0.0987654320987654,0,0,0.0987654320987654,11.753086419753082,0)" xlink:href="#V"/><use transform="matrix(0.0987654320987654,0,0,0.0987654320987654,29.530864197530853,0)" xlink:href="#W"/><use transform="matrix(0.0987654320987654,0,0,0.0987654320987654,49.283950617283935,0)" xlink:href="#T"/><use transform="matrix(0.0987654320987654,0,0,0.0987654320987654,67.0617283950617,0)" xlink:href="#X"/></g><path fill="#d86613" d="M197 0v-115H63V0H30v-248h33v105h134v-105h34V0h-34" id="Y"/><path fill="#d86613" d="M141-36C126-15 110 5 73 4 37 3 15-17 15-53c-1-64 63-63 125-63 3-35-9-54-41-54-24 1-41 7-42 31l-33-3c5-37 33-52 76-52 45 0 72 20 72 64v82c-1 20 7 32 28 27v20c-31 9-61-2-59-35zM48-53c0 20 12 33 32 33 41-3 63-29 60-74-43 2-92-5-92 41" id="Z"/><path fill="#d86613" d="M85-194c31 0 48 13 60 33l-1-100h32l1 261h-30c-2-10 0-23-3-31C134-8 116 4 85 4 32 4 16-35 15-94c0-66 23-100 70-100zm9 24c-40 0-46 34-46 75 0 40 6 74 45 74 42 0 51-32 51-76 0-42-9-74-50-73" id="aa"/><path fill="#d86613" d="M206 0h-36l-40-164L89 0H53L-1-190h32L70-26l43-164h34l41 164 42-164h31" id="ab"/><g id="d"><use transform="matrix(0.0987654320987654,0,0,0.0987654320987654,0,0)" xlink:href="#Y"/><use transform="matrix(0.0987654320987654,0,0,0.0987654320987654,25.58024691358024,0)" xlink:href="#Z"/><use transform="matrix(0.0987654320987654,0,0,0.0987654320987654,45.333333333333314,0)" xlink:href="#Q"/><use transform="matrix(0.0987654320987654,0,0,0.0987654320987654,57.0864197530864,0)" xlink:href="#aa"/><use transform="matrix(0.0987654320987654,0,0,0.0987654320987654,76.83950617283948,0)" xlink:href="#ab"/><use transform="matrix(0.0987654320987654,0,0,0.0987654320987654,102.41975308641972,0)" xlink:href="#Z"/><use transform="matrix(0.0987654320987654,0,0,0.0987654320987654,122.17283950617279,0)" xlink:href="#Q"/><use transform="matrix(0.0987654320987654,0,0,0.0987654320987654,133.92592592592587,0)" xlink:href="#P"/></g><path fill="#2c3e50" d="M24 0v-248h52v208h133V0H24" id="ac"/><path fill="#2c3e50" d="M110-194c64 0 96 36 96 99 0 64-35 99-97 99-61 0-95-36-95-99 0-62 34-99 96-99zm-1 164c35 0 45-28 45-65 0-40-10-65-43-65-34 0-45 26-45 65 0 36 10 65 43 65" id="ad"/><path fill="#2c3e50" d="M240-174c0 40-23 61-54 70L253 0h-59l-57-94H76V0H24v-248c93 4 217-23 216 74zM76-134c48-2 112 12 112-38 0-48-66-32-112-35v73" id="ae"/><path fill="#2c3e50" d="M133-34C117-15 103 5 69 4 32 3 11-16 11-54c-1-60 55-63 116-61 1-26-3-47-28-47-18 1-26 9-28 27l-52-2c7-38 36-58 82-57s74 22 75 68l1 82c-1 14 12 18 25 15v27c-30 8-71 5-69-32zm-48 3c29 0 43-24 42-57-32 0-66-3-65 30 0 17 8 27 23 27" id="af"/><g id="e"><use transform="matrix(0.059259259259259206,0,0,0.059259259259259206,0,0)" xlink:href="#ac"/><use transform="matrix(0.059259259259259206,0,0,0.059259259259259206,12.977777777777765,0)" xlink:href="#ad"/><use transform="matrix(0.059259259259259206,0,0,0.059259259259259206,25.95555555555553,0)" xlink:href="#ae"/><use transform="matrix(0.059259259259259206,0,0,0.059259259259259206,41.30370370370366,0)" xlink:href="#af"/></g><path fill="#2c3e50" d="M67-125c0 54 23 88 75 88 28 0 53-7 68-21v-34h-60v-39h108v91C232-14 192 4 140 4 58 4 20-42 15-125 8-236 126-280 215-234c19 10 29 26 37 47l-47 15c-11-23-29-39-63-39-53 1-75 33-75 86" id="ag"/><path fill="#2c3e50" d="M115-3C79 11 28 4 28-45v-112H4v-33h27l15-45h31v45h36v33H77v99c-1 23 16 31 38 25v30" id="ah"/><path fill="#2c3e50" d="M185-48c-13 30-37 53-82 52C43 2 14-33 14-96s30-98 90-98c62 0 83 45 84 108H66c0 31 8 55 39 56 18 0 30-7 34-22zm-45-69c5-46-57-63-70-21-2 6-4 13-4 21h74" id="ai"/><path fill="#2c3e50" d="M231 0h-52l-39-155L100 0H48L-1-190h46L77-45c9-52 24-97 36-145h53l37 145 32-145h46" id="aj"/><path fill="#2c3e50" d="M123 10C108 53 80 86 19 72V37c35 8 53-11 59-39L3-190h52l48 148c12-52 28-100 44-148h51" id="ak"/><g id="f"><use transform="matrix(0.059259259259259206,0,0,0.059259259259259206,0,0)" xlink:href="#ag"/><use transform="matrix(0.059259259259259206,0,0,0.059259259259259206,16.592592592592577,0)" xlink:href="#af"/><use transform="matrix(0.059259259259259206,0,0,0.059259259259259206,28.444444444444418,0)" xlink:href="#ah"/><use transform="matrix(0.059259259259259206,0,0,0.059259259259259206,35.496296296296265,0)" xlink:href="#ai"/><use transform="matrix(0.059259259259259206,0,0,0.059259259259259206,47.348148148148105,0)" xlink:href="#aj"/><use transform="matrix(0.059259259259259206,0,0,0.059259259259259206,63.94074074074069,0)" xlink:href="#af"/><use transform="matrix(0.059259259259259206,0,0,0.059259259259259206,75.79259259259251,0)" xlink:href="#ak"/></g><path fill="#2c3e50" d="M67-93c0 74 22 123 53 168H70C40 30 18-18 18-93s22-123 52-168h50c-32 44-53 94-53 168" id="al"/><path fill="#2c3e50" d="M238-95c0 69-44 99-111 99C63 4 22-25 22-93v-155h51v151c-1 38 19 59 55 60 90 1 49-130 58-211h52v153" id="am"/><path fill="#2c3e50" d="M169-182c-1-43-94-46-97-3 18 66 151 10 154 114 3 95-165 93-204 36-6-8-10-19-12-30l50-8c3 46 112 56 116 5-17-69-150-10-154-114-4-87 153-88 188-35 5 8 8 18 10 28" id="an"/><path fill="#2c3e50" d="M99-251c69 0 84 53 88 123 5 99-61 162-144 118-15-8-21-25-26-45l46-6c4 31 50 33 63 7 7-15 12-36 12-60-9 18-29 28-54 28-48 0-72-32-72-82 0-55 31-83 87-83zm-1 128c24 0 37-16 37-39 0-27-10-51-37-51-25 0-35 19-35 45 0 25 10 45 35 45" id="ao"/><path fill="#2c3e50" d="M23 0v-37h61v-169l-59 37v-38l62-41h46v211h57V0H23" id="ap"/><path fill="#2c3e50" d="M139-81c0-46-55-55-73-27H18l9-140h149v37H72l-4 63c44-38 133-4 122 66C201 21 21 35 11-62l49-4c5 18 15 30 39 30 26 0 40-18 40-45" id="aq"/><path fill="#2c3e50" d="M102-93c0 74-22 123-52 168H0C30 29 54-18 53-93c0-74-22-123-53-168h50c30 45 52 94 52 168" id="ar"/><g id="g"><use transform="matrix(0.059259259259259206,0,0,0.059259259259259206,0,0)" xlink:href="#al"/><use transform="matrix(0.059259259259259206,0,0,0.059259259259259206,7.051851851851845,0)" xlink:href="#am"/><use transform="matrix(0.059259259259259206,0,0,0.059259259259259206,22.399999999999977,0)" xlink:href="#an"/><use transform="matrix(0.059259259259259206,0,0,0.059259259259259206,36.622222222222184,0)" xlink:href="#ao"/><use transform="matrix(0.059259259259259206,0,0,0.059259259259259206,48.474074074074025,0)" xlink:href="#ap"/><use transform="matrix(0.059259259259259206,0,0,0.059259259259259206,60.325925925925866,0)" xlink:href="#aq"/><use transform="matrix(0.059259259259259206,0,0,0.059259259259259206,72.1777777777777,0)" xlink:href="#ar"/></g><path d="M24 0v-248h52v208h133V0H24" id="as"/><path d="M110-194c64 0 96 36 96 99 0 64-35 99-97 99-61 0-95-36-95-99 0-62 34-99 96-99zm-1 164c35 0 45-28 45-65 0-40-10-65-43-65-34 0-45 26-45 65 0 36 10 65 43 65" id="at"/><path d="M240-174c0 40-23 61-54 70L253 0h-59l-57-94H76V0H24v-248c93 4 217-23 216 74zM76-134c48-2 112 12 112-38 0-48-66-32-112-35v73" id="au"/><path d="M133-34C117-15 103 5 69 4 32 3 11-16 11-54c-1-60 55-63 116-61 1-26-3-47-28-47-18 1-26 9-28 27l-52-2c7-38 36-58 82-57s74 22 75 68l1 82c-1 14 12 18 25 15v27c-30 8-71 5-69-32zm-48 3c29 0 43-24 42-57-32 0-66-3-65 30 0 17 8 27 23 27" id="av"/><path d="M275 0h-61l-44-196L126 0H64L0-248h53L97-49l45-199h58l43 199 44-199h52" id="aw"/><path d="M199 0l-22-63H83L61 0H9l90-248h61L250 0h-51zm-33-102l-36-108c-10 38-24 72-36 108h72" id="ax"/><path d="M175 0L67-191c6 58 2 128 3 191H24v-248h59L193-55c-6-58-2-129-3-193h46V0h-61" id="ay"/><g id="h"><use transform="matrix(0.06234567901234567,0,0,0.06234567901234567,0,0)" xlink:href="#as"/><use transform="matrix(0.06234567901234567,0,0,0.06234567901234567,13.653703703703702,0)" xlink:href="#at"/><use transform="matrix(0.06234567901234567,0,0,0.06234567901234567,27.307407407407403,0)" xlink:href="#au"/><use transform="matrix(0.06234567901234567,0,0,0.06234567901234567,43.45493827160493,0)" xlink:href="#av"/><use transform="matrix(0.06234567901234567,0,0,0.06234567901234567,55.92407407407406,0)" xlink:href="#aw"/><use transform="matrix(0.06234567901234567,0,0,0.06234567901234567,75.81234567901234,0)" xlink:href="#ax"/><use transform="matrix(0.06234567901234567,0,0,0.06234567901234567,91.95987654320987,0)" xlink:href="#ay"/></g><path d="M24-248c120-7 223 5 221 122C244-46 201 0 124 0H24v-248zM76-40c74 7 117-18 117-86 0-67-45-88-117-82v168" id="az"/><path d="M185-48c-13 30-37 53-82 52C43 2 14-33 14-96s30-98 90-98c62 0 83 45 84 108H66c0 31 8 55 39 56 18 0 30-7 34-22zm-45-69c5-46-57-63-70-21-2 6-4 13-4 21h74" id="aA"/><path d="M128 0H69L1-190h53L99-40l48-150h52" id="aB"/><path d="M25-224v-37h50v37H25zM25 0v-190h50V0H25" id="aC"/><path d="M190-63c-7 42-38 67-86 67-59 0-84-38-90-98-12-110 154-137 174-36l-49 2c-2-19-15-32-35-32-30 0-35 28-38 64-6 74 65 87 74 30" id="aD"/><g id="i"><use transform="matrix(0.06234567901234567,0,0,0.06234567901234567,0,0)" xlink:href="#az"/><use transform="matrix(0.06234567901234567,0,0,0.06234567901234567,16.147530864197527,0)" xlink:href="#aA"/><use transform="matrix(0.06234567901234567,0,0,0.06234567901234567,28.61666666666666,0)" xlink:href="#aB"/><use transform="matrix(0.06234567901234567,0,0,0.06234567901234567,41.08580246913579,0)" xlink:href="#aC"/><use transform="matrix(0.06234567901234567,0,0,0.06234567901234567,47.320370370370355,0)" xlink:href="#aD"/><use transform="matrix(0.06234567901234567,0,0,0.06234567901234567,59.78950617283949,0)" xlink:href="#aA"/></g><path fill="#333" d="M30 0v-248h33v221h125V0H30" id="aE"/><path fill="#333" d="M100-194c62-1 85 37 85 99 1 63-27 99-86 99S16-35 15-95c0-66 28-99 85-99zM99-20c44 1 53-31 53-75 0-43-8-75-51-75s-53 32-53 75 10 74 51 75" id="aF"/><path fill="#333" d="M233-177c-1 41-23 64-60 70L243 0h-38l-65-103H63V0H30v-248c88 3 205-21 203 71zM63-129c60-2 137 13 137-47 0-61-80-42-137-45v92" id="aG"/><path fill="#333" d="M141-36C126-15 110 5 73 4 37 3 15-17 15-53c-1-64 63-63 125-63 3-35-9-54-41-54-24 1-41 7-42 31l-33-3c5-37 33-52 76-52 45 0 72 20 72 64v82c-1 20 7 32 28 27v20c-31 9-61-2-59-35zM48-53c0 20 12 33 32 33 41-3 63-29 60-74-43 2-92-5-92 41" id="aH"/><g id="j"><use transform="matrix(0.04938271604938272,0,0,0.04938271604938272,0,0)" xlink:href="#aE"/><use transform="matrix(0.04938271604938272,0,0,0.04938271604938272,9.876543209876544,0)" xlink:href="#aF"/><use transform="matrix(0.04938271604938272,0,0,0.04938271604938272,19.75308641975309,0)" xlink:href="#aG"/><use transform="matrix(0.04938271604938272,0,0,0.04938271604938272,32.543209876543216,0)" xlink:href="#aH"/></g><path fill="#d86613" d="M266 0h-40l-56-210L115 0H75L2-248h35L96-30l15-64 43-154h32l59 218 59-218h35" id="aI"/><path fill="#d86613" d="M30 0v-248h187v28H63v79h144v27H63v87h162V0H30" id="aJ"/><path fill="#d86613" d="M185-189c-5-48-123-54-124 2 14 75 158 14 163 119 3 78-121 87-175 55-17-10-28-26-33-46l33-7c5 56 141 63 141-1 0-78-155-14-162-118-5-82 145-84 179-34 5 7 8 16 11 25" id="aK"/><g id="k"><use transform="matrix(0.09259259259259256,0,0,0.09259259259259256,0,0)" xlink:href="#aI"/><use transform="matrix(0.09259259259259256,0,0,0.09259259259259256,31.38888888888888,0)" xlink:href="#aJ"/><use transform="matrix(0.09259259259259256,0,0,0.09259259259259256,53.61111111111109,0)" xlink:href="#aK"/></g><path fill="#3a414a" d="M169-182c-1-43-94-46-97-3 18 66 151 10 154 114 3 95-165 93-204 36-6-8-10-19-12-30l50-8c3 46 112 56 116 5-17-69-150-10-154-114-4-87 153-88 188-35 5 8 8 18 10 28" id="aL"/><path fill="#3a414a" d="M115-3C79 11 28 4 28-45v-112H4v-33h27l15-45h31v45h36v33H77v99c-1 23 16 31 38 25v30" id="aM"/><path fill="#3a414a" d="M110-194c64 0 96 36 96 99 0 64-35 99-97 99-61 0-95-36-95-99 0-62 34-99 96-99zm-1 164c35 0 45-28 45-65 0-40-10-65-43-65-34 0-45 26-45 65 0 36 10 65 43 65" id="aN"/><path fill="#3a414a" d="M135-150c-39-12-60 13-60 57V0H25l-1-190h47c2 13-1 29 3 40 6-28 27-53 61-41v41" id="aO"/><path fill="#3a414a" d="M133-34C117-15 103 5 69 4 32 3 11-16 11-54c-1-60 55-63 116-61 1-26-3-47-28-47-18 1-26 9-28 27l-52-2c7-38 36-58 82-57s74 22 75 68l1 82c-1 14 12 18 25 15v27c-30 8-71 5-69-32zm-48 3c29 0 43-24 42-57-32 0-66-3-65 30 0 17 8 27 23 27" id="aP"/><path fill="#3a414a" d="M195-6C206 82 75 100 31 46c-4-6-6-13-8-21l49-6c3 16 16 24 34 25 40 0 42-37 40-79-11 22-30 35-61 35-53 0-70-43-70-97 0-56 18-96 73-97 30 0 46 14 59 34l2-30h47zm-90-29c32 0 41-27 41-63 0-35-9-62-40-62-32 0-39 29-40 63 0 36 9 62 39 62" id="aQ"/><path fill="#3a414a" d="M185-48c-13 30-37 53-82 52C43 2 14-33 14-96s30-98 90-98c62 0 83 45 84 108H66c0 31 8 55 39 56 18 0 30-7 34-22zm-45-69c5-46-57-63-70-21-2 6-4 13-4 21h74" id="aR"/><g id="l"><use transform="matrix(0.06172839506172837,0,0,0.06172839506172837,0,0)" xlink:href="#aL"/><use transform="matrix(0.06172839506172837,0,0,0.06172839506172837,14.81481481481481,0)" xlink:href="#aM"/><use transform="matrix(0.06172839506172837,0,0,0.06172839506172837,22.160493827160487,0)" xlink:href="#aN"/><use transform="matrix(0.06172839506172837,0,0,0.06172839506172837,35.679012345679,0)" xlink:href="#aO"/><use transform="matrix(0.06172839506172837,0,0,0.06172839506172837,44.32098765432097,0)" xlink:href="#aP"/><use transform="matrix(0.06172839506172837,0,0,0.06172839506172837,56.66666666666664,0)" xlink:href="#aQ"/><use transform="matrix(0.06172839506172837,0,0,0.06172839506172837,70.18518518518516,0)" xlink:href="#aR"/></g><path fill="#3a414a" d="M67-125c0 53 21 87 73 88 37 1 54-22 65-47l45 17C233-25 199 4 140 4 58 4 20-42 15-125 8-235 124-281 211-232c18 10 29 29 36 50l-46 12c-8-25-30-41-62-41-52 0-71 34-72 86" id="aS"/><path fill="#3a414a" d="M220-157c-53 9-28 100-34 157h-49v-107c1-27-5-49-29-50C55-147 81-57 75 0H25l-1-190h47c2 12-1 28 3 38 10-53 101-56 108 0 13-22 24-43 59-42 82 1 51 116 57 194h-49v-107c-1-25-5-48-29-50" id="aT"/><path fill="#3a414a" d="M135-194c53 0 70 44 70 98 0 56-19 98-73 100-31 1-45-17-59-34 3 33 2 69 2 105H25l-1-265h48c2 10 0 23 3 31 11-24 29-35 60-35zM114-30c33 0 39-31 40-66 0-38-9-64-40-64-56 0-55 130 0 130" id="aU"/><path fill="#3a414a" d="M85 4C-2 5 27-109 22-190h50c7 57-23 150 33 157 60-5 35-97 40-157h50l1 190h-47c-2-12 1-28-3-38-12 25-28 42-61 42" id="aV"/><g id="m"><use transform="matrix(0.06172839506172839,0,0,0.06172839506172839,0,0)" xlink:href="#aS"/><use transform="matrix(0.06172839506172839,0,0,0.06172839506172839,15.987654320987653,0)" xlink:href="#aN"/><use transform="matrix(0.06172839506172839,0,0,0.06172839506172839,29.50617283950617,0)" xlink:href="#aT"/><use transform="matrix(0.06172839506172839,0,0,0.06172839506172839,49.25925925925925,0)" xlink:href="#aU"/><use transform="matrix(0.06172839506172839,0,0,0.06172839506172839,62.77777777777777,0)" xlink:href="#aV"/><use transform="matrix(0.06172839506172839,0,0,0.06172839506172839,76.29629629629629,0)" xlink:href="#aM"/><use transform="matrix(0.06172839506172839,0,0,0.06172839506172839,83.64197530864197,0)" xlink:href="#aR"/></g><path fill="#3a414a" d="M238-95c0 69-44 99-111 99C63 4 22-25 22-93v-155h51v151c-1 38 19 59 55 60 90 1 49-130 58-211h52v153" id="aW"/><path fill="#3a414a" d="M135-194c87-1 58 113 63 194h-50c-7-57 23-157-34-157-59 0-34 97-39 157H25l-1-190h47c2 12-1 28 3 38 12-26 28-41 61-42" id="aX"/><path fill="#3a414a" d="M25-224v-37h50v37H25zM25 0v-190h50V0H25" id="aY"/><path fill="#3a414a" d="M67-93c0 74 22 123 53 168H70C40 30 18-18 18-93s22-123 52-168h50c-32 44-53 94-53 168" id="aZ"/><path fill="#3a414a" d="M137-138c1-29-70-34-71-4 15 46 118 7 119 86 1 83-164 76-172 9l43-7c4 19 20 25 44 25 33 8 57-30 24-41C81-84 22-81 20-136c-2-80 154-74 161-7" id="ba"/><path fill="#3a414a" d="M102-93c0 74-22 123-52 168H0C30 29 54-18 53-93c0-74-22-123-53-168h50c30 45 52 94 52 168" id="bb"/><g id="n"><use transform="matrix(0.06172839506172839,0,0,0.06172839506172839,0,0)" xlink:href="#aW"/><use transform="matrix(0.06172839506172839,0,0,0.06172839506172839,15.987654320987653,0)" xlink:href="#aX"/><use transform="matrix(0.06172839506172839,0,0,0.06172839506172839,29.50617283950617,0)" xlink:href="#aY"/><use transform="matrix(0.06172839506172839,0,0,0.06172839506172839,35.67901234567901,0)" xlink:href="#aM"/><use transform="matrix(0.06172839506172839,0,0,0.06172839506172839,43.02469135802469,0)" xlink:href="#aZ"/><use transform="matrix(0.06172839506172839,0,0,0.06172839506172839,50.37037037037037,0)" xlink:href="#ba"/><use transform="matrix(0.06172839506172839,0,0,0.06172839506172839,62.716049382716044,0)" xlink:href="#bb"/></g><path fill="#3a414a" d="M24-248c120-7 223 5 221 122C244-46 201 0 124 0H24v-248zM76-40c74 7 117-18 117-86 0-67-45-88-117-82v168" id="bc"/><path fill="#3a414a" d="M24-248c93 1 206-16 204 79-1 75-69 88-152 82V0H24v-248zm52 121c47 0 100 7 100-41 0-47-54-39-100-39v80" id="bd"/><g id="o"><use transform="matrix(0.049382716049382706,0,0,0.049382716049382706,0,0)" xlink:href="#aW"/><use transform="matrix(0.049382716049382706,0,0,0.049382716049382706,12.790123456790122,0)" xlink:href="#bc"/><use transform="matrix(0.049382716049382706,0,0,0.049382716049382706,25.580246913580243,0)" xlink:href="#bd"/></g><path fill="#3a414a" d="M190-63c-7 42-38 67-86 67-59 0-84-38-90-98-12-110 154-137 174-36l-49 2c-2-19-15-32-35-32-30 0-35 28-38 64-6 74 65 87 74 30" id="be"/><path fill="#3a414a" d="M147 0L96-86 75-71V0H25v-261h50v150l67-79h53l-66 74L201 0h-54" id="bf"/><g id="p"><use transform="matrix(0.049382716049382706,0,0,0.049382716049382706,0,0)" xlink:href="#bd"/><use transform="matrix(0.049382716049382706,0,0,0.049382716049382706,11.85185185185185,0)" xlink:href="#aP"/><use transform="matrix(0.049382716049382706,0,0,0.049382716049382706,21.728395061728392,0)" xlink:href="#be"/><use transform="matrix(0.049382716049382706,0,0,0.049382716049382706,31.604938271604933,0)" xlink:href="#bf"/><use transform="matrix(0.049382716049382706,0,0,0.049382716049382706,41.481481481481474,0)" xlink:href="#aR"/><use transform="matrix(0.049382716049382706,0,0,0.049382716049382706,51.35802469135801,0)" xlink:href="#aM"/></g><path fill="#3a414a" d="M76-208v77h127v40H76V0H24v-248h183v40H76" id="bg"/><path fill="#3a414a" d="M231 0h-52l-39-155L100 0H48L-1-190h46L77-45c9-52 24-97 36-145h53l37 145 32-145h46" id="bh"/><path fill="#3a414a" d="M88-194c31-1 46 15 58 34l-1-101h50l1 261h-48c-2-10 0-23-3-31C134-8 116 4 84 4 32 4 16-41 15-95c0-56 19-97 73-99zm17 164c33 0 40-30 41-66 1-37-9-64-41-64s-38 30-39 65c0 43 13 65 39 65" id="bi"/><g id="q"><use transform="matrix(0.049382716049382706,0,0,0.049382716049382706,0,0)" xlink:href="#bg"/><use transform="matrix(0.049382716049382706,0,0,0.049382716049382706,10.814814814814813,0)" xlink:href="#aN"/><use transform="matrix(0.049382716049382706,0,0,0.049382716049382706,21.629629629629626,0)" xlink:href="#aO"/><use transform="matrix(0.049382716049382706,0,0,0.049382716049382706,28.543209876543205,0)" xlink:href="#bh"/><use transform="matrix(0.049382716049382706,0,0,0.049382716049382706,42.37037037037037,0)" xlink:href="#aP"/><use transform="matrix(0.049382716049382706,0,0,0.049382716049382706,52.24691358024691,0)" xlink:href="#bi"/><use transform="matrix(0.049382716049382706,0,0,0.049382716049382706,63.061728395061714,0)" xlink:href="#aR"/><use transform="matrix(0.049382716049382706,0,0,0.049382716049382706,72.93827160493827,0)" xlink:href="#aO"/></g><path fill="#3a414a" d="M114-157C55-157 80-60 75 0H25v-261h50l-1 109c12-26 28-41 61-42 86-1 58 113 63 194h-50c-7-57 23-157-34-157" id="bj"/><g id="r"><use transform="matrix(0.049382716049382706,0,0,0.049382716049382706,0,0)" xlink:href="#aS"/><use transform="matrix(0.049382716049382706,0,0,0.049382716049382706,12.790123456790122,0)" xlink:href="#bj"/><use transform="matrix(0.049382716049382706,0,0,0.049382716049382706,23.604938271604937,0)" xlink:href="#aY"/><use transform="matrix(0.049382716049382706,0,0,0.049382716049382706,28.54320987654321,0)" xlink:href="#aO"/><use transform="matrix(0.049382716049382706,0,0,0.049382716049382706,35.456790123456784,0)" xlink:href="#aU"/><use transform="matrix(0.049382716049382706,0,0,0.049382716049382706,46.271604938271594,0)" xlink:href="#ba"/><use transform="matrix(0.049382716049382706,0,0,0.049382716049382706,56.14814814814814,0)" xlink:href="#aM"/><use transform="matrix(0.049382716049382706,0,0,0.049382716049382706,62.02469135802468,0)" xlink:href="#aP"/><use transform="matrix(0.049382716049382706,0,0,0.049382716049382706,71.90123456790123,0)" xlink:href="#be"/><use transform="matrix(0.049382716049382706,0,0,0.049382716049382706,81.77777777777777,0)" xlink:href="#bf"/></g><path fill="#3a414a" d="M67-125c0 54 23 88 75 88 28 0 53-7 68-21v-34h-60v-39h108v91C232-14 192 4 140 4 58 4 20-42 15-125 8-236 126-280 215-234c19 10 29 26 37 47l-47 15c-11-23-29-39-63-39-53 1-75 33-75 86" id="bk"/><path fill="#3a414a" d="M123 10C108 53 80 86 19 72V37c35 8 53-11 59-39L3-190h52l48 148c12-52 28-100 44-148h51" id="bl"/><g id="s"><use transform="matrix(0.049382716049382706,0,0,0.049382716049382706,0,0)" xlink:href="#bk"/><use transform="matrix(0.049382716049382706,0,0,0.049382716049382706,13.827160493827158,0)" xlink:href="#aP"/><use transform="matrix(0.049382716049382706,0,0,0.049382716049382706,23.7037037037037,0)" xlink:href="#aM"/><use transform="matrix(0.049382716049382706,0,0,0.049382716049382706,29.58024691358024,0)" xlink:href="#aR"/><use transform="matrix(0.049382716049382706,0,0,0.049382716049382706,39.456790123456784,0)" xlink:href="#bh"/><use transform="matrix(0.049382716049382706,0,0,0.049382716049382706,53.28395061728394,0)" xlink:href="#aP"/><use transform="matrix(0.049382716049382706,0,0,0.049382716049382706,63.16049382716048,0)" xlink:href="#bl"/></g><path fill="#3a414a" d="M182-130c37 4 62 22 62 59C244 23 116-4 24 0v-248c84 5 203-23 205 63 0 31-19 50-47 55zM76-148c40-3 101 13 101-30 0-44-60-28-101-31v61zm0 110c48-3 116 14 116-37 0-48-69-32-116-35v72" id="bm"/><g id="t"><use transform="matrix(0.049382716049382706,0,0,0.049382716049382706,0,0)" xlink:href="#bm"/><use transform="matrix(0.049382716049382706,0,0,0.049382716049382706,12.790123456790122,0)" xlink:href="#aO"/><use transform="matrix(0.049382716049382706,0,0,0.049382716049382706,19.703703703703702,0)" xlink:href="#aY"/><use transform="matrix(0.049382716049382706,0,0,0.049382716049382706,24.641975308641975,0)" xlink:href="#bi"/><use transform="matrix(0.049382716049382706,0,0,0.049382716049382706,35.456790123456784,0)" xlink:href="#aQ"/><use transform="matrix(0.049382716049382706,0,0,0.049382716049382706,46.271604938271594,0)" xlink:href="#aR"/></g><path fill="#3a414a" d="M99-251c69 0 84 53 88 123 5 99-61 162-144 118-15-8-21-25-26-45l46-6c4 31 50 33 63 7 7-15 12-36 12-60-9 18-29 28-54 28-48 0-72-32-72-82 0-55 31-83 87-83zm-1 128c24 0 37-16 37-39 0-27-10-51-37-51-25 0-35 19-35 45 0 25 10 45 35 45" id="bn"/><path fill="#3a414a" d="M23 0v-37h61v-169l-59 37v-38l62-41h46v211h57V0H23" id="bo"/><path fill="#3a414a" d="M139-81c0-46-55-55-73-27H18l9-140h149v37H72l-4 63c44-38 133-4 122 66C201 21 21 35 11-62l49-4c5 18 15 30 39 30 26 0 40-18 40-45" id="bp"/><g id="u"><use transform="matrix(0.049382716049382706,0,0,0.049382716049382706,0,0)" xlink:href="#aZ"/><use transform="matrix(0.049382716049382706,0,0,0.049382716049382706,5.876543209876542,0)" xlink:href="#aW"/><use transform="matrix(0.049382716049382706,0,0,0.049382716049382706,18.666666666666664,0)" xlink:href="#aL"/><use transform="matrix(0.049382716049382706,0,0,0.049382716049382706,30.518518518518512,0)" xlink:href="#bn"/><use transform="matrix(0.049382716049382706,0,0,0.049382716049382706,40.39506172839505,0)" xlink:href="#bo"/><use transform="matrix(0.049382716049382706,0,0,0.049382716049382706,50.271604938271594,0)" xlink:href="#bp"/><use transform="matrix(0.049382716049382706,0,0,0.049382716049382706,60.14814814814814,0)" xlink:href="#bb"/></g><path fill="#333" d="M232-93c-1 65-40 97-104 97C67 4 28-28 28-90v-158h33c8 89-33 224 67 224 102 0 64-133 71-224h33v155" id="bq"/><path fill="#333" d="M30-248c118-7 216 8 213 122C240-48 200 0 122 0H30v-248zM63-27c89 8 146-16 146-99s-60-101-146-95v194" id="br"/><path fill="#333" d="M30-248c87 1 191-15 191 75 0 78-77 80-158 76V0H30v-248zm33 125c57 0 124 11 124-50 0-59-68-47-124-48v98" id="bs"/><g id="v"><use transform="matrix(0.04938271604938272,0,0,0.04938271604938272,0,0)" xlink:href="#bq"/><use transform="matrix(0.04938271604938272,0,0,0.04938271604938272,12.790123456790125,0)" xlink:href="#br"/><use transform="matrix(0.04938271604938272,0,0,0.04938271604938272,25.58024691358025,0)" xlink:href="#bs"/></g><path fill="#3a414a" d="M230 0l2-204L168 0h-37L68-204 70 0H24v-248h70l56 185 57-185h69V0h-46" id="bt"/><path fill="#3a414a" d="M140-251c80 0 125 45 125 126 0 70-33 111-92 124 6 28 34 38 68 31l-1 36C177 83 129 55 120 2 51-6 15-50 15-125c0-81 44-126 125-126zm-1 214c52 0 73-35 73-88 0-50-21-86-72-86-52 0-73 35-73 86s22 88 72 88" id="bu"/><path fill="#3a414a" d="M136-208V0H84v-208H4v-40h212v40h-80" id="bv"/><g id="w"><use transform="matrix(0.049382716049382706,0,0,0.049382716049382706,0,0)" xlink:href="#bt"/><use transform="matrix(0.049382716049382706,0,0,0.049382716049382706,14.765432098765428,0)" xlink:href="#bu"/><use transform="matrix(0.049382716049382706,0,0,0.049382716049382706,28.592592592592588,0)" xlink:href="#bv"/><use transform="matrix(0.049382716049382706,0,0,0.049382716049382706,39.407407407407405,0)" xlink:href="#bv"/></g><g id="x"><use transform="matrix(0.049382716049382706,0,0,0.049382716049382706,0,0)" xlink:href="#bm"/><use transform="matrix(0.049382716049382706,0,0,0.049382716049382706,12.790123456790122,0)" xlink:href="#aO"/><use transform="matrix(0.049382716049382706,0,0,0.049382716049382706,19.703703703703702,0)" xlink:href="#aN"/><use transform="matrix(0.049382716049382706,0,0,0.049382716049382706,30.51851851851852,0)" xlink:href="#bf"/><use transform="matrix(0.049382716049382706,0,0,0.049382716049382706,40.395061728395056,0)" xlink:href="#aR"/><use transform="matrix(0.049382716049382706,0,0,0.049382716049382706,50.271604938271594,0)" xlink:href="#aO"/></g><path fill="#333" d="M240 0l2-218c-23 76-54 145-80 218h-23L58-218 59 0H30v-248h44l77 211c21-75 51-140 76-211h43V0h-30" id="bw"/><path fill="#333" d="M140-251c81 0 123 46 123 126C263-53 228-8 163 1c7 30 30 48 69 40v23c-55 16-95-15-103-61C56-3 17-48 17-125c0-80 42-126 123-126zm0 227c63 0 89-41 89-101s-29-99-89-99c-61 0-89 39-89 99S79-25 140-24" id="bx"/><path fill="#333" d="M127-220V0H93v-220H8v-28h204v28h-85" id="by"/><g id="y"><use transform="matrix(0.04938271604938272,0,0,0.04938271604938272,0,0)" xlink:href="#bw"/><use transform="matrix(0.04938271604938272,0,0,0.04938271604938272,14.765432098765434,0)" xlink:href="#bx"/><use transform="matrix(0.04938271604938272,0,0,0.04938271604938272,28.592592592592595,0)" xlink:href="#by"/><use transform="matrix(0.04938271604938272,0,0,0.04938271604938272,39.40740740740741,0)" xlink:href="#by"/></g><path fill="#3a414a" d="M128 0H69L1-190h53L99-40l48-150h52" id="bz"/><g id="z"><use transform="matrix(0.049382716049382706,0,0,0.049382716049382706,0,0)" xlink:href="#aL"/><use transform="matrix(0.049382716049382706,0,0,0.049382716049382706,11.85185185185185,0)" xlink:href="#aR"/><use transform="matrix(0.049382716049382706,0,0,0.049382716049382706,21.728395061728392,0)" xlink:href="#aO"/><use transform="matrix(0.049382716049382706,0,0,0.049382716049382706,28.64197530864197,0)" xlink:href="#bz"/><use transform="matrix(0.049382716049382706,0,0,0.049382716049382706,38.51851851851851,0)" xlink:href="#aR"/><use transform="matrix(0.049382716049382706,0,0,0.049382716049382706,48.39506172839505,0)" xlink:href="#aO"/></g><g id="A"><use transform="matrix(0.049382716049382706,0,0,0.049382716049382706,0,0)" xlink:href="#bv"/><use transform="matrix(0.049382716049382706,0,0,0.049382716049382706,9.82716049382716,0)" xlink:href="#aO"/><use transform="matrix(0.049382716049382706,0,0,0.049382716049382706,16.74074074074074,0)" xlink:href="#aP"/><use transform="matrix(0.049382716049382706,0,0,0.049382716049382706,26.617283950617278,0)" xlink:href="#be"/><use transform="matrix(0.049382716049382706,0,0,0.049382716049382706,36.49382716049382,0)" xlink:href="#bf"/><use transform="matrix(0.049382716049382706,0,0,0.049382716049382706,46.37037037037037,0)" xlink:href="#aR"/><use transform="matrix(0.049382716049382706,0,0,0.049382716049382706,56.24691358024691,0)" xlink:href="#aO"/></g><path fill="#333" d="M177-190C167-65 218 103 67 71c-23-6-38-20-44-43l32-5c15 47 100 32 89-28v-30C133-14 115 1 83 1 29 1 15-40 15-95c0-56 16-97 71-98 29-1 48 16 59 35 1-10 0-23 2-32h30zM94-22c36 0 50-32 50-73 0-42-14-75-50-75-39 0-46 34-46 75s6 73 46 73" id="bA"/><path fill="#333" d="M212-179c-10-28-35-45-73-45-59 0-87 40-87 99 0 60 29 101 89 101 43 0 62-24 78-52l27 14C228-24 195 4 139 4 59 4 22-46 18-125c-6-104 99-153 187-111 19 9 31 26 39 46" id="bB"/><g id="B"><use transform="matrix(0.04938271604938272,0,0,0.04938271604938272,0,0)" xlink:href="#bA"/><use transform="matrix(0.04938271604938272,0,0,0.04938271604938272,9.876543209876544,0)" xlink:href="#aG"/><use transform="matrix(0.04938271604938272,0,0,0.04938271604938272,22.66666666666667,0)" xlink:href="#bs"/><use transform="matrix(0.04938271604938272,0,0,0.04938271604938272,34.518518518518526,0)" xlink:href="#bB"/></g><path fill="#3a414a" d="M24 0v-248h52v208h133V0H24" id="bC"/><g id="C"><use transform="matrix(0.049382716049382706,0,0,0.049382716049382706,0,0)" xlink:href="#bd"/><use transform="matrix(0.049382716049382706,0,0,0.049382716049382706,11.85185185185185,0)" xlink:href="#aN"/><use transform="matrix(0.049382716049382706,0,0,0.049382716049382706,22.666666666666664,0)" xlink:href="#ba"/><use transform="matrix(0.049382716049382706,0,0,0.049382716049382706,32.5432098765432,0)" xlink:href="#aM"/><use transform="matrix(0.049382716049382706,0,0,0.049382716049382706,38.419753086419746,0)" xlink:href="#aQ"/><use transform="matrix(0.049382716049382706,0,0,0.049382716049382706,49.234567901234556,0)" xlink:href="#aO"/><use transform="matrix(0.049382716049382706,0,0,0.049382716049382706,56.14814814814814,0)" xlink:href="#aR"/><use transform="matrix(0.049382716049382706,0,0,0.049382716049382706,66.02469135802468,0)" xlink:href="#aL"/><use transform="matrix(0.049382716049382706,0,0,0.049382716049382706,77.87654320987653,0)" xlink:href="#bu"/><use transform="matrix(0.049382716049382706,0,0,0.049382716049382706,91.7037037037037,0)" xlink:href="#bC"/></g><path fill="#3a414a" d="M240-174c0 40-23 61-54 70L253 0h-59l-57-94H76V0H24v-248c93 4 217-23 216 74zM76-134c48-2 112 12 112-38 0-48-66-32-112-35v73" id="bD"/><g id="D"><use transform="matrix(0.049382716049382706,0,0,0.049382716049382706,0,0)" xlink:href="#bD"/><use transform="matrix(0.049382716049382706,0,0,0.049382716049382706,12.790123456790122,0)" xlink:href="#aR"/><use transform="matrix(0.049382716049382706,0,0,0.049382716049382706,22.666666666666664,0)" xlink:href="#bi"/><use transform="matrix(0.049382716049382706,0,0,0.049382716049382706,33.48148148148148,0)" xlink:href="#aY"/><use transform="matrix(0.049382716049382706,0,0,0.049382716049382706,38.41975308641975,0)" xlink:href="#ba"/></g><g id="E"><use transform="matrix(0.0987654320987654,0,0,0.0987654320987654,0,0)" xlink:href="#bm"/><use transform="matrix(0.0987654320987654,0,0,0.0987654320987654,25.58024691358024,0)" xlink:href="#aR"/><use transform="matrix(0.0987654320987654,0,0,0.0987654320987654,45.333333333333314,0)" xlink:href="#aR"/><use transform="matrix(0.0987654320987654,0,0,0.0987654320987654,65.08641975308639,0)" xlink:href="#bj"/><use transform="matrix(0.0987654320987654,0,0,0.0987654320987654,86.71604938271601,0)" xlink:href="#aY"/><use transform="matrix(0.0987654320987654,0,0,0.0987654320987654,96.59259259259255,0)" xlink:href="#bz"/><use transform="matrix(0.0987654320987654,0,0,0.0987654320987654,116.34567901234561,0)" xlink:href="#aR"/></g><g id="F"><use transform="matrix(0.049382716049382706,0,0,0.049382716049382706,0,0)" xlink:href="#bC"/><use transform="matrix(0.049382716049382706,0,0,0.049382716049382706,10.814814814814813,0)" xlink:href="#aN"/><use transform="matrix(0.049382716049382706,0,0,0.049382716049382706,21.629629629629626,0)" xlink:href="#aO"/><use transform="matrix(0.049382716049382706,0,0,0.049382716049382706,28.543209876543205,0)" xlink:href="#aP"/><use transform="matrix(0.049382716049382706,0,0,0.049382716049382706,38.419753086419746,0)" xlink:href="#bh"/><use transform="matrix(0.049382716049382706,0,0,0.049382716049382706,52.246913580246904,0)" xlink:href="#aP"/><use transform="matrix(0.049382716049382706,0,0,0.049382716049382706,62.12345679012344,0)" xlink:href="#aX"/></g><g id="G"><use transform="matrix(0.049382716049382706,0,0,0.049382716049382706,0,0)" xlink:href="#bC"/><use transform="matrix(0.049382716049382706,0,0,0.049382716049382706,10.814814814814813,0)" xlink:href="#aY"/><use transform="matrix(0.049382716049382706,0,0,0.049382716049382706,15.753086419753084,0)" xlink:href="#ba"/><use transform="matrix(0.049382716049382706,0,0,0.049382716049382706,25.629629629629626,0)" xlink:href="#aM"/><use transform="matrix(0.049382716049382706,0,0,0.049382716049382706,31.506172839506167,0)" xlink:href="#aR"/><use transform="matrix(0.049382716049382706,0,0,0.049382716049382706,41.38271604938271,0)" xlink:href="#aX"/><use transform="matrix(0.049382716049382706,0,0,0.049382716049382706,52.19753086419752,0)" xlink:href="#aR"/><use transform="matrix(0.049382716049382706,0,0,0.049382716049382706,62.07407407407406,0)" xlink:href="#aO"/></g><path fill="#3a414a" d="M25 0v-261h50V0H25" id="bE"/><g id="H"><use transform="matrix(0.049382716049382706,0,0,0.049382716049382706,0,0)" xlink:href="#bd"/><use transform="matrix(0.049382716049382706,0,0,0.049382716049382706,11.85185185185185,0)" xlink:href="#bE"/><use transform="matrix(0.049382716049382706,0,0,0.049382716049382706,16.79012345679012,0)" xlink:href="#aV"/><use transform="matrix(0.049382716049382706,0,0,0.049382716049382706,27.604938271604933,0)" xlink:href="#aQ"/><use transform="matrix(0.049382716049382706,0,0,0.049382716049382706,38.419753086419746,0)" xlink:href="#aY"/><use transform="matrix(0.049382716049382706,0,0,0.049382716049382706,43.35802469135802,0)" xlink:href="#aX"/></g></defs></g></svg>